STARTFONT 2.1
COMMENT ter-u24n
FONT -xos4-Terpinus-Medium-R-Normal--24-240-72-72-C-120-ISO10646-1
SIZE 24 72 72
FONTBOUNDINGBOX 12 24 0 -5
STARTPROPERTIES 19
FOUNDRY "xos4"
FAMILY_NAME "Terpinus"
WEIGHT_NAME "Medium"
SLANT "R"
SETWIDTH_NAME "Normal"
ADD_STYLE_NAME ""
PIXEL_SIZE 24
POINT_SIZE 240
RESOLUTION_X 72
RESOLUTION_Y 72
SPACING "C"
AVERAGE_WIDTH 120
CHARSET_REGISTRY "ISO10646"
CHARSET_ENCODING "1"
MIN_SPACE 0
FONT_ASCENT 19
FONT_DESCENT 5
DEFAULT_CHAR 65533
COPYRIGHT "Copyright (C) 2006 Dimitar Toshkov Zhekov"
ENDPROPERTIES
CHARS 777
STARTCHAR char0
ENCODING 0
SWIDTH 500 0
DWIDTH 12 0
BBX 12 24 0 -5
BITMAP
0000
0000
0000
0000
71C0
4040
4040
4040
0000
0000
4040
4040
4040
0000
0000
4040
4040
4040
71C0
0000
0000
0000
0000
0000
ENDCHAR
STARTCHAR space
ENCODING 32
SWIDTH 500 0
DWIDTH 12 0
BBX 12 24 0 -5
BITMAP
0000
0000
0000
0000
0000
0000
0000
0000
0000
0000
0000
0000
0000
0000
0000
0000
0000
0000
0000
0000
0000
0000
0000
0000
ENDCHAR
STARTCHAR exclam
ENCODING 33
SWIDTH 500 0
DWIDTH 12 0
BBX 12 24 0 -5
BITMAP
0000
0000
0000
0000
0400
0400
0400
0400
0400
0400
0400
0400
0400
0400
0000
0000
0400
0400
0400
0000
0000
0000
0000
0000
ENDCHAR
STARTCHAR quotedbl
ENCODING 34
SWIDTH 500 0
DWIDTH 12 0
BBX 12 24 0 -5
BITMAP
0000
0000
1100
1100
1100
1100
1100
0000
0000
0000
0000
0000
0000
0000
0000
0000
0000
0000
0000
0000
0000
0000
0000
0000
ENDCHAR
STARTCHAR numbersign
ENCODING 35
SWIDTH 500 0
DWIDTH 12 0
BBX 12 24 0 -5
BITMAP
0000
0000
0000
0000
1100
1100
1100
1100
7FC0
1100
1100
1100
1100
1100
7FC0
1100
1100
1100
1100
0000
0000
0000
0000
0000
ENDCHAR
STARTCHAR dollar
ENCODING 36
SWIDTH 500 0
DWIDTH 12 0
BBX 12 24 0 -5
BITMAP
0000
0000
0000
0400
0400
1F00
2480
4440
4400
4400
2400
1F00
0480
0440
0440
4440
2480
1F00
0400
0400
0000
0000
0000
0000
ENDCHAR
STARTCHAR percent
ENCODING 37
SWIDTH 500 0
DWIDTH 12 0
BBX 12 24 0 -5
BITMAP
0000
0000
0000
0000
0000
3080
4880
4900
3100
0200
0200
0400
0400
0800
0800
1180
1240
2240
2180
0000
0000
0000
0000
0000
ENDCHAR
STARTCHAR ampersand
ENCODING 38
SWIDTH 500 0
DWIDTH 12 0
BBX 12 24 0 -5
BITMAP
0000
0000
0000
0000
1E00
2100
2100
2100
2100
1200
0C00
1400
2240
4140
4080
4080
4080
2140
1E40
0000
0000
0000
0000
0000
ENDCHAR
STARTCHAR quotesingle
ENCODING 39
SWIDTH 500 0
DWIDTH 12 0
BBX 12 24 0 -5
BITMAP
0000
0000
0400
0400
0400
0400
0400
0000
0000
0000
0000
0000
0000
0000
0000
0000
0000
0000
0000
0000
0000
0000
0000
0000
ENDCHAR
STARTCHAR parenleft
ENCODING 40
SWIDTH 500 0
DWIDTH 12 0
BBX 12 24 0 -5
BITMAP
0000
0000
0000
0000
0100
0200
0400
0400
0800
0800
0800
0800
0800
0800
0800
0400
0400
0200
0100
0000
0000
0000
0000
0000
ENDCHAR
STARTCHAR parenright
ENCODING 41
SWIDTH 500 0
DWIDTH 12 0
BBX 12 24 0 -5
BITMAP
0000
0000
0000
0000
0800
0400
0200
0200
0100
0100
0100
0100
0100
0100
0100
0200
0200
0400
0800
0000
0000
0000
0000
0000
ENDCHAR
STARTCHAR asterisk
ENCODING 42
SWIDTH 500 0
DWIDTH 12 0
BBX 12 24 0 -5
BITMAP
0000
0000
0000
0000
0000
0000
0000
2080
1100
0A00
0400
7FC0
0400
0A00
1100
2080
0000
0000
0000
0000
0000
0000
0000
0000
ENDCHAR
STARTCHAR plus
ENCODING 43
SWIDTH 500 0
DWIDTH 12 0
BBX 12 24 0 -5
BITMAP
0000
0000
0000
0000
0000
0000
0000
0400
0400
0400
0400
7FC0
0400
0400
0400
0400
0000
0000
0000
0000
0000
0000
0000
0000
ENDCHAR
STARTCHAR comma
ENCODING 44
SWIDTH 500 0
DWIDTH 12 0
BBX 12 24 0 -5
BITMAP
0000
0000
0000
0000
0000
0000
0000
0000
0000
0000
0000
0000
0000
0000
0000
0400
0400
0400
0400
0800
0000
0000
0000
0000
ENDCHAR
STARTCHAR hyphen
ENCODING 45
SWIDTH 500 0
DWIDTH 12 0
BBX 12 24 0 -5
BITMAP
0000
0000
0000
0000
0000
0000
0000
0000
0000
0000
0000
7FC0
0000
0000
0000
0000
0000
0000
0000
0000
0000
0000
0000
0000
ENDCHAR
STARTCHAR period
ENCODING 46
SWIDTH 500 0
DWIDTH 12 0
BBX 12 24 0 -5
BITMAP
0000
0000
0000
0000
0000
0000
0000
0000
0000
0000
0000
0000
0000
0000
0000
0000
0400
0400
0400
0000
0000
0000
0000
0000
ENDCHAR
STARTCHAR slash
ENCODING 47
SWIDTH 500 0
DWIDTH 12 0
BBX 12 24 0 -5
BITMAP
0000
0000
0000
0000
0000
0080
0080
0100
0100
0200
0200
0400
0400
0800
0800
1000
1000
2000
2000
0000
0000
0000
0000
0000
ENDCHAR
STARTCHAR zero
ENCODING 48
SWIDTH 500 0
DWIDTH 12 0
BBX 12 24 0 -5
BITMAP
0000
0000
0000
0000
1F00
2080
4040
4040
40C0
4140
4240
4440
4840
5040
6040
4040
4040
2080
1F00
0000
0000
0000
0000
0000
ENDCHAR
STARTCHAR one
ENCODING 49
SWIDTH 500 0
DWIDTH 12 0
BBX 12 24 0 -5
BITMAP
0000
0000
0000
0000
0400
0C00
1400
2400
0400
0400
0400
0400
0400
0400
0400
0400
0400
0400
3F80
0000
0000
0000
0000
0000
ENDCHAR
STARTCHAR two
ENCODING 50
SWIDTH 500 0
DWIDTH 12 0
BBX 12 24 0 -5
BITMAP
0000
0000
0000
0000
1F00
2080
4040
4040
4040
0040
0080
0100
0200
0400
0800
1000
2000
4000
7FC0
0000
0000
0000
0000
0000
ENDCHAR
STARTCHAR three
ENCODING 51
SWIDTH 500 0
DWIDTH 12 0
BBX 12 24 0 -5
BITMAP
0000
0000
0000
0000
1F00
2080
4040
0040
0040
0040
0080
0F00
0080
0040
0040
0040
4040
2080
1F00
0000
0000
0000
0000
0000
ENDCHAR
STARTCHAR four
ENCODING 52
SWIDTH 500 0
DWIDTH 12 0
BBX 12 24 0 -5
BITMAP
0000
0000
0000
0000
0040
00C0
0140
0240
0440
0840
1040
2040
4040
4040
4040
7FC0
0040
0040
0040
0000
0000
0000
0000
0000
ENDCHAR
STARTCHAR five
ENCODING 53
SWIDTH 500 0
DWIDTH 12 0
BBX 12 24 0 -5
BITMAP
0000
0000
0000
0000
7FC0
4000
4000
4000
4000
4000
7F00
0080
0040
0040
0040
0040
4040
2080
1F00
0000
0000
0000
0000
0000
ENDCHAR
STARTCHAR six
ENCODING 54
SWIDTH 500 0
DWIDTH 12 0
BBX 12 24 0 -5
BITMAP
0000
0000
0000
0000
1F80
2000
4000
4000
4000
4000
7F00
4080
4040
4040
4040
4040
4040
2080
1F00
0000
0000
0000
0000
0000
ENDCHAR
STARTCHAR seven
ENCODING 55
SWIDTH 500 0
DWIDTH 12 0
BBX 12 24 0 -5
BITMAP
0000
0000
0000
0000
7FC0
4040
4040
0040
0080
0080
0100
0100
0200
0200
0400
0400
0400
0400
0400
0000
0000
0000
0000
0000
ENDCHAR
STARTCHAR eight
ENCODING 56
SWIDTH 500 0
DWIDTH 12 0
BBX 12 24 0 -5
BITMAP
0000
0000
0000
0000
1F00
2080
4040
4040
4040
4040
2080
1F00
2080
4040
4040
4040
4040
2080
1F00
0000
0000
0000
0000
0000
ENDCHAR
STARTCHAR nine
ENCODING 57
SWIDTH 500 0
DWIDTH 12 0
BBX 12 24 0 -5
BITMAP
0000
0000
0000
0000
1F00
2080
4040
4040
4040
4040
4040
2040
1FC0
0040
0040
0040
0040
0080
3F00
0000
0000
0000
0000
0000
ENDCHAR
STARTCHAR colon
ENCODING 58
SWIDTH 500 0
DWIDTH 12 0
BBX 12 24 0 -5
BITMAP
0000
0000
0000
0000
0000
0000
0000
0000
0400
0400
0400
0000
0000
0000
0000
0400
0400
0400
0000
0000
0000
0000
0000
0000
ENDCHAR
STARTCHAR semicolon
ENCODING 59
SWIDTH 500 0
DWIDTH 12 0
BBX 12 24 0 -5
BITMAP
0000
0000
0000
0000
0000
0000
0000
0000
0400
0400
0400
0000
0000
0000
0000
0400
0400
0400
0400
0800
0000
0000
0000
0000
ENDCHAR
STARTCHAR less
ENCODING 60
SWIDTH 500 0
DWIDTH 12 0
BBX 12 24 0 -5
BITMAP
0000
0000
0000
0000
0040
0080
0100
0200
0400
0800
1000
2000
1000
0800
0400
0200
0100
0080
0040
0000
0000
0000
0000
0000
ENDCHAR
STARTCHAR equal
ENCODING 61
SWIDTH 500 0
DWIDTH 12 0
BBX 12 24 0 -5
BITMAP
0000
0000
0000
0000
0000
0000
0000
0000
0000
7FC0
0000
0000
0000
0000
7FC0
0000
0000
0000
0000
0000
0000
0000
0000
0000
ENDCHAR
STARTCHAR greater
ENCODING 62
SWIDTH 500 0
DWIDTH 12 0
BBX 12 24 0 -5
BITMAP
0000
0000
0000
0000
2000
1000
0800
0400
0200
0100
0080
0040
0080
0100
0200
0400
0800
1000
2000
0000
0000
0000
0000
0000
ENDCHAR
STARTCHAR question
ENCODING 63
SWIDTH 500 0
DWIDTH 12 0
BBX 12 24 0 -5
BITMAP
0000
0000
0000
0000
1F00
2080
4040
4040
4040
0080
0100
0200
0400
0400
0000
0000
0400
0400
0400
0000
0000
0000
0000
0000
ENDCHAR
STARTCHAR at
ENCODING 64
SWIDTH 500 0
DWIDTH 12 0
BBX 12 24 0 -5
BITMAP
0000
0000
0000
0000
1F80
2040
4020
43E0
4420
4820
4820
4820
4820
4820
4460
43A0
4000
2000
1FE0
0000
0000
0000
0000
0000
ENDCHAR
STARTCHAR A
ENCODING 65
SWIDTH 500 0
DWIDTH 12 0
BBX 12 24 0 -5
BITMAP
0000
0000
0000
0000
1F00
2080
4040
4040
4040
4040
4040
4040
7FC0
4040
4040
4040
4040
4040
4040
0000
0000
0000
0000
0000
ENDCHAR
STARTCHAR B
ENCODING 66
SWIDTH 500 0
DWIDTH 12 0
BBX 12 24 0 -5
BITMAP
0000
0000
0000
0000
7F00
4080
4040
4040
4040
4080
7F00
4080
4040
4040
4040
4040
4040
4080
7F00
0000
0000
0000
0000
0000
ENDCHAR
STARTCHAR C
ENCODING 67
SWIDTH 500 0
DWIDTH 12 0
BBX 12 24 0 -5
BITMAP
0000
0000
0000
0000
1F00
2080
4040
4040
4000
4000
4000
4000
4000
4000
4000
4040
4040
2080
1F00
0000
0000
0000
0000
0000
ENDCHAR
STARTCHAR D
ENCODING 68
SWIDTH 500 0
DWIDTH 12 0
BBX 12 24 0 -5
BITMAP
0000
0000
0000
0000
7F00
4080
4040
4040
4040
4040
4040
4040
4040
4040
4040
4040
4040
4080
7F00
0000
0000
0000
0000
0000
ENDCHAR
STARTCHAR E
ENCODING 69
SWIDTH 500 0
DWIDTH 12 0
BBX 12 24 0 -5
BITMAP
0000
0000
0000
0000
7FC0
4000
4000
4000
4000
4000
4000
7F00
4000
4000
4000
4000
4000
4000
7FC0
0000
0000
0000
0000
0000
ENDCHAR
STARTCHAR F
ENCODING 70
SWIDTH 500 0
DWIDTH 12 0
BBX 12 24 0 -5
BITMAP
0000
0000
0000
0000
7FC0
4000
4000
4000
4000
4000
4000
7F00
4000
4000
4000
4000
4000
4000
4000
0000
0000
0000
0000
0000
ENDCHAR
STARTCHAR G
ENCODING 71
SWIDTH 500 0
DWIDTH 12 0
BBX 12 24 0 -5
BITMAP
0000
0000
0000
0000
1F00
2080
4040
4040
4000
4000
4000
47C0
4040
4040
4040
4040
4040
2080
1F00
0000
0000
0000
0000
0000
ENDCHAR
STARTCHAR H
ENCODING 72
SWIDTH 500 0
DWIDTH 12 0
BBX 12 24 0 -5
BITMAP
0000
0000
0000
0000
4040
4040
4040
4040
4040
4040
4040
7FC0
4040
4040
4040
4040
4040
4040
4040
0000
0000
0000
0000
0000
ENDCHAR
STARTCHAR I
ENCODING 73
SWIDTH 500 0
DWIDTH 12 0
BBX 12 24 0 -5
BITMAP
0000
0000
0000
0000
1F00
0400
0400
0400
0400
0400
0400
0400
0400
0400
0400
0400
0400
0400
1F00
0000
0000
0000
0000
0000
ENDCHAR
STARTCHAR J
ENCODING 74
SWIDTH 500 0
DWIDTH 12 0
BBX 12 24 0 -5
BITMAP
0000
0000
0000
0000
03E0
0080
0080
0080
0080
0080
0080
0080
0080
0080
4080
4080
4080
2100
1E00
0000
0000
0000
0000
0000
ENDCHAR
STARTCHAR K
ENCODING 75
SWIDTH 500 0
DWIDTH 12 0
BBX 12 24 0 -5
BITMAP
0000
0000
0000
0000
4040
4080
4100
4200
4400
4800
5000
6000
5000
4800
4400
4200
4100
4080
4040
0000
0000
0000
0000
0000
ENDCHAR
STARTCHAR L
ENCODING 76
SWIDTH 500 0
DWIDTH 12 0
BBX 12 24 0 -5
BITMAP
0000
0000
0000
0000
4000
4000
4000
4000
4000
4000
4000
4000
4000
4000
4000
4000
4000
4000
7FC0
0000
0000
0000
0000
0000
ENDCHAR
STARTCHAR M
ENCODING 77
SWIDTH 500 0
DWIDTH 12 0
BBX 12 24 0 -5
BITMAP
0000
0000
0000
0000
4020
6060
50A0
4920
4620
4020
4020
4020
4020
4020
4020
4020
4020
4020
4020
0000
0000
0000
0000
0000
ENDCHAR
STARTCHAR N
ENCODING 78
SWIDTH 500 0
DWIDTH 12 0
BBX 12 24 0 -5
BITMAP
0000
0000
0000
0000
4040
4040
4040
4040
6040
5040
4840
4440
4240
4140
40C0
4040
4040
4040
4040
0000
0000
0000
0000
0000
ENDCHAR
STARTCHAR O
ENCODING 79
SWIDTH 500 0
DWIDTH 12 0
BBX 12 24 0 -5
BITMAP
0000
0000
0000
0000
1F00
2080
4040
4040
4040
4040
4040
4040
4040
4040
4040
4040
4040
2080
1F00
0000
0000
0000
0000
0000
ENDCHAR
STARTCHAR P
ENCODING 80
SWIDTH 500 0
DWIDTH 12 0
BBX 12 24 0 -5
BITMAP
0000
0000
0000
0000
7F00
4080
4040
4040
4040
4040
4080
7F00
4000
4000
4000
4000
4000
4000
4000
0000
0000
0000
0000
0000
ENDCHAR
STARTCHAR Q
ENCODING 81
SWIDTH 500 0
DWIDTH 12 0
BBX 12 24 0 -5
BITMAP
0000
0000
0000
0000
1F00
2080
4040
4040
4040
4040
4040
4040
4040
4040
4040
4040
4440
2280
1F00
0080
0040
0000
0000
0000
ENDCHAR
STARTCHAR R
ENCODING 82
SWIDTH 500 0
DWIDTH 12 0
BBX 12 24 0 -5
BITMAP
0000
0000
0000
0000
7F00
4080
4040
4040
4040
4040
4080
7F00
5000
4800
4400
4200
4100
4080
4040
0000
0000
0000
0000
0000
ENDCHAR
STARTCHAR S
ENCODING 83
SWIDTH 500 0
DWIDTH 12 0
BBX 12 24 0 -5
BITMAP
0000
0000
0000
0000
1F00
2080
4040
4000
4000
4000
2000
1F00
0080
0040
0040
0040
4040
2080
1F00
0000
0000
0000
0000
0000
ENDCHAR
STARTCHAR T
ENCODING 84
SWIDTH 500 0
DWIDTH 12 0
BBX 12 24 0 -5
BITMAP
0000
0000
0000
0000
7FC0
0400
0400
0400
0400
0400
0400
0400
0400
0400
0400
0400
0400
0400
0400
0000
0000
0000
0000
0000
ENDCHAR
STARTCHAR U
ENCODING 85
SWIDTH 500 0
DWIDTH 12 0
BBX 12 24 0 -5
BITMAP
0000
0000
0000
0000
4040
4040
4040
4040
4040
4040
4040
4040
4040
4040
4040
4040
4040
2080
1F00
0000
0000
0000
0000
0000
ENDCHAR
STARTCHAR V
ENCODING 86
SWIDTH 500 0
DWIDTH 12 0
BBX 12 24 0 -5
BITMAP
0000
0000
0000
0000
4040
4040
4040
4040
2080
2080
2080
1100
1100
1100
0A00
0A00
0A00
0400
0400
0000
0000
0000
0000
0000
ENDCHAR
STARTCHAR W
ENCODING 87
SWIDTH 500 0
DWIDTH 12 0
BBX 12 24 0 -5
BITMAP
0000
0000
0000
0000
4020
4020
4020
4020
4020
4020
4020
4020
4020
4020
4620
4920
50A0
6060
4020
0000
0000
0000
0000
0000
ENDCHAR
STARTCHAR X
ENCODING 88
SWIDTH 500 0
DWIDTH 12 0
BBX 12 24 0 -5
BITMAP
0000
0000
0000
0000
4040
4040
2080
2080
1100
1100
0A00
0400
0A00
1100
1100
2080
2080
4040
4040
0000
0000
0000
0000
0000
ENDCHAR
STARTCHAR Y
ENCODING 89
SWIDTH 500 0
DWIDTH 12 0
BBX 12 24 0 -5
BITMAP
0000
0000
0000
0000
4040
4040
2080
2080
1100
1100
0A00
0400
0400
0400
0400
0400
0400
0400
0400
0000
0000
0000
0000
0000
ENDCHAR
STARTCHAR Z
ENCODING 90
SWIDTH 500 0
DWIDTH 12 0
BBX 12 24 0 -5
BITMAP
0000
0000
0000
0000
7FC0
0040
0040
0040
0080
0100
0200
0400
0800
1000
2000
4000
4000
4000
7FC0
0000
0000
0000
0000
0000
ENDCHAR
STARTCHAR bracketleft
ENCODING 91
SWIDTH 500 0
DWIDTH 12 0
BBX 12 24 0 -5
BITMAP
0000
0000
0000
0000
0F00
0800
0800
0800
0800
0800
0800
0800
0800
0800
0800
0800
0800
0800
0F00
0000
0000
0000
0000
0000
ENDCHAR
STARTCHAR backslash
ENCODING 92
SWIDTH 500 0
DWIDTH 12 0
BBX 12 24 0 -5
BITMAP
0000
0000
0000
0000
0000
2000
2000
1000
1000
0800
0800
0400
0400
0200
0200
0100
0100
0080
0080
0000
0000
0000
0000
0000
ENDCHAR
STARTCHAR bracketright
ENCODING 93
SWIDTH 500 0
DWIDTH 12 0
BBX 12 24 0 -5
BITMAP
0000
0000
0000
0000
0F00
0100
0100
0100
0100
0100
0100
0100
0100
0100
0100
0100
0100
0100
0F00
0000
0000
0000
0000
0000
ENDCHAR
STARTCHAR asciicircum
ENCODING 94
SWIDTH 500 0
DWIDTH 12 0
BBX 12 24 0 -5
BITMAP
0000
0000
0400
0A00
1100
2080
4040
0000
0000
0000
0000
0000
0000
0000
0000
0000
0000
0000
0000
0000
0000
0000
0000
0000
ENDCHAR
STARTCHAR underscore
ENCODING 95
SWIDTH 500 0
DWIDTH 12 0
BBX 12 24 0 -5
BITMAP
0000
0000
0000
0000
0000
0000
0000
0000
0000
0000
0000
0000
0000
0000
0000
0000
0000
0000
0000
0000
7FC0
0000
0000
0000
ENDCHAR
STARTCHAR grave
ENCODING 96
SWIDTH 500 0
DWIDTH 12 0
BBX 12 24 0 -5
BITMAP
1000
0800
0400
0000
0000
0000
0000
0000
0000
0000
0000
0000
0000
0000
0000
0000
0000
0000
0000
0000
0000
0000
0000
0000
ENDCHAR
STARTCHAR a
ENCODING 97
SWIDTH 500 0
DWIDTH 12 0
BBX 12 24 0 -5
BITMAP
0000
0000
0000
0000
0000
0000
0000
0000
3F00
0080
0040
0040
1FC0
2040
4040
4040
4040
2040
1FC0
0000
0000
0000
0000
0000
ENDCHAR
STARTCHAR b
ENCODING 98
SWIDTH 500 0
DWIDTH 12 0
BBX 12 24 0 -5
BITMAP
0000
0000
0000
0000
4000
4000
4000
4000
7F00
4080
4040
4040
4040
4040
4040
4040
4040
4080
7F00
0000
0000
0000
0000
0000
ENDCHAR
STARTCHAR c
ENCODING 99
SWIDTH 500 0
DWIDTH 12 0
BBX 12 24 0 -5
BITMAP
0000
0000
0000
0000
0000
0000
0000
0000
1F00
2080
4040
4000
4000
4000
4000
4000
4040
2080
1F00
0000
0000
0000
0000
0000
ENDCHAR
STARTCHAR d
ENCODING 100
SWIDTH 500 0
DWIDTH 12 0
BBX 12 24 0 -5
BITMAP
0000
0000
0000
0000
0040
0040
0040
0040
1FC0
2040
4040
4040
4040
4040
4040
4040
4040
2040
1FC0
0000
0000
0000
0000
0000
ENDCHAR
STARTCHAR e
ENCODING 101
SWIDTH 500 0
DWIDTH 12 0
BBX 12 24 0 -5
BITMAP
0000
0000
0000
0000
0000
0000
0000
0000
1F00
2080
4040
4040
4040
7FC0
4000
4000
4000
2040
1F80
0000
0000
0000
0000
0000
ENDCHAR
STARTCHAR f
ENCODING 102
SWIDTH 500 0
DWIDTH 12 0
BBX 12 24 0 -5
BITMAP
0000
0000
0000
0000
03C0
0400
0400
0400
3F80
0400
0400
0400
0400
0400
0400
0400
0400
0400
0400
0000
0000
0000
0000
0000
ENDCHAR
STARTCHAR g
ENCODING 103
SWIDTH 500 0
DWIDTH 12 0
BBX 12 24 0 -5
BITMAP
0000
0000
0000
0000
0000
0000
0000
0000
1FC0
2040
4040
4040
4040
4040
4040
4040
4040
20C0
1F40
0040
0040
0080
3F00
0000
ENDCHAR
STARTCHAR h
ENCODING 104
SWIDTH 500 0
DWIDTH 12 0
BBX 12 24 0 -5
BITMAP
0000
0000
0000
0000
4000
4000
4000
4000
7F00
4080
4040
4040
4040
4040
4040
4040
4040
4040
4040
0000
0000
0000
0000
0000
ENDCHAR
STARTCHAR i
ENCODING 105
SWIDTH 500 0
DWIDTH 12 0
BBX 12 24 0 -5
BITMAP
0000
0000
0000
0000
0400
0400
0400
0000
1C00
0400
0400
0400
0400
0400
0400
0400
0400
0400
1F00
0000
0000
0000
0000
0000
ENDCHAR
STARTCHAR j
ENCODING 106
SWIDTH 500 0
DWIDTH 12 0
BBX 12 24 0 -5
BITMAP
0000
0000
0000
0000
0080
0080
0080
0000
0380
0080
0080
0080
0080
0080
0080
0080
0080
0080
0080
2080
2080
1100
0E00
0000
ENDCHAR
STARTCHAR k
ENCODING 107
SWIDTH 500 0
DWIDTH 12 0
BBX 12 24 0 -5
BITMAP
0000
0000
0000
0000
2000
2000
2000
2000
2040
2080
2100
2200
2400
3800
2400
2200
2100
2080
2040
0000
0000
0000
0000
0000
ENDCHAR
STARTCHAR l
ENCODING 108
SWIDTH 500 0
DWIDTH 12 0
BBX 12 24 0 -5
BITMAP
0000
0000
0000
0000
1C00
0400
0400
0400
0400
0400
0400
0400
0400
0400
0400
0400
0400
0400
1F00
0000
0000
0000
0000
0000
ENDCHAR
STARTCHAR m
ENCODING 109
SWIDTH 500 0
DWIDTH 12 0
BBX 12 24 0 -5
BITMAP
0000
0000
0000
0000
0000
0000
0000
0000
7F00
4480
4440
4440
4440
4440
4440
4440
4440
4440
4440
0000
0000
0000
0000
0000
ENDCHAR
STARTCHAR n
ENCODING 110
SWIDTH 500 0
DWIDTH 12 0
BBX 12 24 0 -5
BITMAP
0000
0000
0000
0000
0000
0000
0000
0000
7F00
4080
4040
4040
4040
4040
4040
4040
4040
4040
4040
0000
0000
0000
0000
0000
ENDCHAR
STARTCHAR o
ENCODING 111
SWIDTH 500 0
DWIDTH 12 0
BBX 12 24 0 -5
BITMAP
0000
0000
0000
0000
0000
0000
0000
0000
1F00
2080
4040
4040
4040
4040
4040
4040
4040
2080
1F00
0000
0000
0000
0000
0000
ENDCHAR
STARTCHAR p
ENCODING 112
SWIDTH 500 0
DWIDTH 12 0
BBX 12 24 0 -5
BITMAP
0000
0000
0000
0000
0000
0000
0000
0000
7F00
4080
4040
4040
4040
4040
4040
4040
4040
4080
7F00
4000
4000
4000
4000
0000
ENDCHAR
STARTCHAR q
ENCODING 113
SWIDTH 500 0
DWIDTH 12 0
BBX 12 24 0 -5
BITMAP
0000
0000
0000
0000
0000
0000
0000
0000
1FC0
2040
4040
4040
4040
4040
4040
4040
4040
2040
1FC0
0040
0040
0040
0040
0000
ENDCHAR
STARTCHAR r
ENCODING 114
SWIDTH 500 0
DWIDTH 12 0
BBX 12 24 0 -5
BITMAP
0000
0000
0000
0000
0000
0000
0000
0000
47C0
4800
5000
6000
4000
4000
4000
4000
4000
4000
4000
0000
0000
0000
0000
0000
ENDCHAR
STARTCHAR s
ENCODING 115
SWIDTH 500 0
DWIDTH 12 0
BBX 12 24 0 -5
BITMAP
0000
0000
0000
0000
0000
0000
0000
0000
3F80
4040
4000
4000
4000
3F80
0040
0040
0040
4040
3F80
0000
0000
0000
0000
0000
ENDCHAR
STARTCHAR t
ENCODING 116
SWIDTH 500 0
DWIDTH 12 0
BBX 12 24 0 -5
BITMAP
0000
0000
0000
0000
0400
0400
0400
0400
3F80
0400
0400
0400
0400
0400
0400
0400
0400
0400
03C0
0000
0000
0000
0000
0000
ENDCHAR
STARTCHAR u
ENCODING 117
SWIDTH 500 0
DWIDTH 12 0
BBX 12 24 0 -5
BITMAP
0000
0000
0000
0000
0000
0000
0000
0000
4040
4040
4040
4040
4040
4040
4040
4040
4040
2040
1FC0
0000
0000
0000
0000
0000
ENDCHAR
STARTCHAR v
ENCODING 118
SWIDTH 500 0
DWIDTH 12 0
BBX 12 24 0 -5
BITMAP
0000
0000
0000
0000
0000
0000
0000
0000
4040
4040
4040
2080
2080
1100
1100
0A00
0A00
0400
0400
0000
0000
0000
0000
0000
ENDCHAR
STARTCHAR w
ENCODING 119
SWIDTH 500 0
DWIDTH 12 0
BBX 12 24 0 -5
BITMAP
0000
0000
0000
0000
0000
0000
0000
0000
4040
4040
4040
4040
4440
4440
4440
4440
4440
4440
3B80
0000
0000
0000
0000
0000
ENDCHAR
STARTCHAR x
ENCODING 120
SWIDTH 500 0
DWIDTH 12 0
BBX 12 24 0 -5
BITMAP
0000
0000
0000
0000
0000
0000
0000
0000
4040
4040
2080
1100
0A00
0400
0A00
1100
2080
4040
4040
0000
0000
0000
0000
0000
ENDCHAR
STARTCHAR y
ENCODING 121
SWIDTH 500 0
DWIDTH 12 0
BBX 12 24 0 -5
BITMAP
0000
0000
0000
0000
0000
0000
0000
0000
4040
4040
4040
4040
4040
4040
4040
4040
4040
20C0
1F40
0040
0040
0080
3F00
0000
ENDCHAR
STARTCHAR z
ENCODING 122
SWIDTH 500 0
DWIDTH 12 0
BBX 12 24 0 -5
BITMAP
0000
0000
0000
0000
0000
0000
0000
0000
7FC0
0040
0080
0100
0200
0400
0800
1000
2000
4000
7FC0
0000
0000
0000
0000
0000
ENDCHAR
STARTCHAR braceleft
ENCODING 123
SWIDTH 500 0
DWIDTH 12 0
BBX 12 24 0 -5
BITMAP
0000
0000
0000
0000
0180
0200
0400
0400
0400
0400
0400
1800
0400
0400
0400
0400
0400
0200
0180
0000
0000
0000
0000
0000
ENDCHAR
STARTCHAR bar
ENCODING 124
SWIDTH 500 0
DWIDTH 12 0
BBX 12 24 0 -5
BITMAP
0000
0000
0000
0000
0400
0400
0400
0400
0400
0400
0400
0400
0400
0400
0400
0400
0400
0400
0400
0000
0000
0000
0000
0000
ENDCHAR
STARTCHAR braceright
ENCODING 125
SWIDTH 500 0
DWIDTH 12 0
BBX 12 24 0 -5
BITMAP
0000
0000
0000
0000
1800
0400
0200
0200
0200
0200
0200
0180
0200
0200
0200
0200
0200
0400
1800
0000
0000
0000
0000
0000
ENDCHAR
STARTCHAR asciitilde
ENCODING 126
SWIDTH 500 0
DWIDTH 12 0
BBX 12 24 0 -5
BITMAP
0000
0000
3840
4440
4440
4380
0000
0000
0000
0000
0000
0000
0000
0000
0000
0000
0000
0000
0000
0000
0000
0000
0000
0000
ENDCHAR
STARTCHAR nbspace
ENCODING 160
SWIDTH 500 0
DWIDTH 12 0
BBX 12 24 0 -5
BITMAP
0000
0000
0000
0000
0000
0000
0000
0000
0000
0000
0000
0000
0000
0000
0000
0000
0000
0000
0000
0000
0000
0000
0000
0000
ENDCHAR
STARTCHAR exclamdown
ENCODING 161
SWIDTH 500 0
DWIDTH 12 0
BBX 12 24 0 -5
BITMAP
0000
0000
0000
0000
0400
0400
0400
0000
0000
0400
0400
0400
0400
0400
0400
0400
0400
0400
0400
0000
0000
0000
0000
0000
ENDCHAR
STARTCHAR cent
ENCODING 162
SWIDTH 500 0
DWIDTH 12 0
BBX 12 24 0 -5
BITMAP
0000
0000
0000
0000
0000
0000
0400
0400
1F00
2480
4440
4400
4400
4400
4400
4400
4440
2480
1F00
0400
0400
0000
0000
0000
ENDCHAR
STARTCHAR sterling
ENCODING 163
SWIDTH 500 0
DWIDTH 12 0
BBX 12 24 0 -5
BITMAP
0000
0000
0000
0000
0E00
1100
2080
2000
2000
2000
2000
7E00
2000
2000
2000
2000
2040
2040
7FC0
0000
0000
0000
0000
0000
ENDCHAR
STARTCHAR currency
ENCODING 164
SWIDTH 500 0
DWIDTH 12 0
BBX 12 24 0 -5
BITMAP
0000
0000
0000
0000
0000
0000
4020
2040
1F80
2040
2040
2040
2040
2040
2040
1F80
2040
4020
0000
0000
0000
0000
0000
0000
ENDCHAR
STARTCHAR yen
ENCODING 165
SWIDTH 500 0
DWIDTH 12 0
BBX 12 24 0 -5
BITMAP
0000
0000
0000
0000
4040
4040
2080
2080
1100
1100
0A00
0400
0400
3F80
0400
0400
3F80
0400
0400
0000
0000
0000
0000
0000
ENDCHAR
STARTCHAR brokenbar
ENCODING 166
SWIDTH 500 0
DWIDTH 12 0
BBX 12 24 0 -5
BITMAP
0000
0000
0000
0000
0400
0400
0400
0400
0400
0400
0000
0000
0000
0400
0400
0400
0400
0400
0400
0000
0000
0000
0000
0000
ENDCHAR
STARTCHAR section
ENCODING 167
SWIDTH 500 0
DWIDTH 12 0
BBX 12 24 0 -5
BITMAP
0000
0000
0000
1F00
2080
2000
2000
1E00
2100
2080
2080
2080
2080
1080
0F00
0080
0080
2080
1F00
0000
0000
0000
0000
0000
ENDCHAR
STARTCHAR dieresis
ENCODING 168
SWIDTH 500 0
DWIDTH 12 0
BBX 12 24 0 -5
BITMAP
1100
1100
1100
0000
0000
0000
0000
0000
0000
0000
0000
0000
0000
0000
0000
0000
0000
0000
0000
0000
0000
0000
0000
0000
ENDCHAR
STARTCHAR copyright
ENCODING 169
SWIDTH 500 0
DWIDTH 12 0
BBX 12 24 0 -5
BITMAP
0000
0000
0000
0000
0000
0000
1F80
2040
4F20
50A0
50A0
5020
5020
50A0
50A0
4F20
2040
1F80
0000
0000
0000
0000
0000
0000
ENDCHAR
STARTCHAR ordfeminine
ENCODING 170
SWIDTH 500 0
DWIDTH 12 0
BBX 12 24 0 -5
BITMAP
0000
1F80
0040
0040
1FC0
2040
2040
2040
2040
1FC0
0000
3FC0
0000
0000
0000
0000
0000
0000
0000
0000
0000
0000
0000
0000
ENDCHAR
STARTCHAR guillemotleft
ENCODING 171
SWIDTH 500 0
DWIDTH 12 0
BBX 12 24 0 -5
BITMAP
0000
0000
0000
0000
0000
0000
0000
0000
0220
0440
0880
1100
2200
4400
2200
1100
0880
0440
0220
0000
0000
0000
0000
0000
ENDCHAR
STARTCHAR logicalnot
ENCODING 172
SWIDTH 500 0
DWIDTH 12 0
BBX 12 24 0 -5
BITMAP
0000
0000
0000
0000
0000
0000
0000
0000
0000
7FC0
0040
0040
0040
0040
0040
0000
0000
0000
0000
0000
0000
0000
0000
0000
ENDCHAR
STARTCHAR softhyphen
ENCODING 173
SWIDTH 500 0
DWIDTH 12 0
BBX 12 24 0 -5
BITMAP
0000
0000
0000
0000
0000
0000
0000
0000
0000
0000
0000
3F80
0000
0000
0000
0000
0000
0000
0000
0000
0000
0000
0000
0000
ENDCHAR
STARTCHAR registered
ENCODING 174
SWIDTH 500 0
DWIDTH 12 0
BBX 12 24 0 -5
BITMAP
0000
0000
0000
0000
0000
0000
1F80
2040
5F20
50A0
50A0
50A0
5F20
5220
5120
50A0
2040
1F80
0000
0000
0000
0000
0000
0000
ENDCHAR
STARTCHAR macron
ENCODING 175
SWIDTH 500 0
DWIDTH 12 0
BBX 12 24 0 -5
BITMAP
0000
3F80
0000
0000
0000
0000
0000
0000
0000
0000
0000
0000
0000
0000
0000
0000
0000
0000
0000
0000
0000
0000
0000
0000
ENDCHAR
STARTCHAR degree
ENCODING 176
SWIDTH 500 0
DWIDTH 12 0
BBX 12 24 0 -5
BITMAP
0000
0000
0F00
1080
1080
1080
1080
0F00
0000
0000
0000
0000
0000
0000
0000
0000
0000
0000
0000
0000
0000
0000
0000
0000
ENDCHAR
STARTCHAR plusminus
ENCODING 177
SWIDTH 500 0
DWIDTH 12 0
BBX 12 24 0 -5
BITMAP
0000
0000
0000
0000
0000
0000
0000
0400
0400
0400
0400
7FC0
0400
0400
0400
0400
0000
0000
7FC0
0000
0000
0000
0000
0000
ENDCHAR
STARTCHAR twosuperior
ENCODING 178
SWIDTH 500 0
DWIDTH 12 0
BBX 12 24 0 -5
BITMAP
0000
0000
0E00
1100
1100
0200
0400
0800
1F00
0000
0000
0000
0000
0000
0000
0000
0000
0000
0000
0000
0000
0000
0000
0000
ENDCHAR
STARTCHAR threesuperior
ENCODING 179
SWIDTH 500 0
DWIDTH 12 0
BBX 12 24 0 -5
BITMAP
0000
0000
0E00
1100
0100
0600
0100
1100
0E00
0000
0000
0000
0000
0000
0000
0000
0000
0000
0000
0000
0000
0000
0000
0000
ENDCHAR
STARTCHAR acute
ENCODING 180
SWIDTH 500 0
DWIDTH 12 0
BBX 12 24 0 -5
BITMAP
0100
0200
0400
0000
0000
0000
0000
0000
0000
0000
0000
0000
0000
0000
0000
0000
0000
0000
0000
0000
0000
0000
0000
0000
ENDCHAR
STARTCHAR mu
ENCODING 181
SWIDTH 500 0
DWIDTH 12 0
BBX 12 24 0 -5
BITMAP
0000
0000
0000
0000
0000
0000
0000
0000
4040
4040
4040
4040
4040
4040
4040
4040
40C0
4140
7E40
4000
4000
4000
4000
0000
ENDCHAR
STARTCHAR paragraph
ENCODING 182
SWIDTH 500 0
DWIDTH 12 0
BBX 12 24 0 -5
BITMAP
0000
0000
0000
0000
3FC0
4440
4440
4440
4440
4440
4440
3C40
0440
0440
0440
0440
0440
0440
0440
0000
0000
0000
0000
0000
ENDCHAR
STARTCHAR periodcentered
ENCODING 183
SWIDTH 500 0
DWIDTH 12 0
BBX 12 24 0 -5
BITMAP
0000
0000
0000
0000
0000
0000
0000
0000
0000
0000
0400
0400
0400
0000
0000
0000
0000
0000
0000
0000
0000
0000
0000
0000
ENDCHAR
STARTCHAR cedilla
ENCODING 184
SWIDTH 500 0
DWIDTH 12 0
BBX 12 24 0 -5
BITMAP
0000
0000
0000
0000
0000
0000
0000
0000
0000
0000
0000
0000
0000
0000
0000
0000
0000
0000
0000
0400
0400
0400
0800
0000
ENDCHAR
STARTCHAR onesuperior
ENCODING 185
SWIDTH 500 0
DWIDTH 12 0
BBX 12 24 0 -5
BITMAP
0000
0000
0400
0C00
1400
0400
0400
0400
0E00
0000
0000
0000
0000
0000
0000
0000
0000
0000
0000
0000
0000
0000
0000
0000
ENDCHAR
STARTCHAR ordmasculine
ENCODING 186
SWIDTH 500 0
DWIDTH 12 0
BBX 12 24 0 -5
BITMAP
0000
0F00
1080
2040
2040
2040
2040
2040
1080
0F00
0000
3FC0
0000
0000
0000
0000
0000
0000
0000
0000
0000
0000
0000
0000
ENDCHAR
STARTCHAR guillemotright
ENCODING 187
SWIDTH 500 0
DWIDTH 12 0
BBX 12 24 0 -5
BITMAP
0000
0000
0000
0000
0000
0000
0000
0000
4400
2200
1100
0880
0440
0220
0440
0880
1100
2200
4400
0000
0000
0000
0000
0000
ENDCHAR
STARTCHAR onequarter
ENCODING 188
SWIDTH 500 0
DWIDTH 12 0
BBX 12 24 0 -5
BITMAP
0000
0000
0000
0800
1800
2800
0800
0840
0880
0900
0200
0400
0880
1180
2280
4480
0880
0F80
0080
0080
0000
0000
0000
0000
ENDCHAR
STARTCHAR onehalf
ENCODING 189
SWIDTH 500 0
DWIDTH 12 0
BBX 12 24 0 -5
BITMAP
0000
0000
0000
0800
1800
2800
0800
0840
0880
0900
0200
0400
0800
1380
2440
4440
0080
0100
0200
07C0
0000
0000
0000
0000
ENDCHAR
STARTCHAR threequarters
ENCODING 190
SWIDTH 500 0
DWIDTH 12 0
BBX 12 24 0 -5
BITMAP
0000
0000
0000
1C00
2200
0200
0C00
0200
2240
1C80
0100
0200
0480
0980
1280
2480
4880
0F80
0080
0080
0000
0000
0000
0000
ENDCHAR
STARTCHAR questiondown
ENCODING 191
SWIDTH 500 0
DWIDTH 12 0
BBX 12 24 0 -5
BITMAP
0000
0000
0000
0000
0400
0400
0400
0000
0000
0400
0400
0800
1000
2000
4040
4040
4040
2080
1F00
0000
0000
0000
0000
0000
ENDCHAR
STARTCHAR Agrave
ENCODING 192
SWIDTH 500 0
DWIDTH 12 0
BBX 12 24 0 -5
BITMAP
1000
0800
0400
0000
1F00
2080
4040
4040
4040
4040
4040
4040
7FC0
4040
4040
4040
4040
4040
4040
0000
0000
0000
0000
0000
ENDCHAR
STARTCHAR Aacute
ENCODING 193
SWIDTH 500 0
DWIDTH 12 0
BBX 12 24 0 -5
BITMAP
0100
0200
0400
0000
1F00
2080
4040
4040
4040
4040
4040
4040
7FC0
4040
4040
4040
4040
4040
4040
0000
0000
0000
0000
0000
ENDCHAR
STARTCHAR Acircumflex
ENCODING 194
SWIDTH 500 0
DWIDTH 12 0
BBX 12 24 0 -5
BITMAP
0E00
1100
2080
0000
1F00
2080
4040
4040
4040
4040
4040
4040
7FC0
4040
4040
4040
4040
4040
4040
0000
0000
0000
0000
0000
ENDCHAR
STARTCHAR Atilde
ENCODING 195
SWIDTH 500 0
DWIDTH 12 0
BBX 12 24 0 -5
BITMAP
1880
2480
2300
0000
1F00
2080
4040
4040
4040
4040
4040
4040
7FC0
4040
4040
4040
4040
4040
4040
0000
0000
0000
0000
0000
ENDCHAR
STARTCHAR Adieresis
ENCODING 196
SWIDTH 500 0
DWIDTH 12 0
BBX 12 24 0 -5
BITMAP
1100
1100
1100
0000
1F00
2080
4040
4040
4040
4040
4040
4040
7FC0
4040
4040
4040
4040
4040
4040
0000
0000
0000
0000
0000
ENDCHAR
STARTCHAR Aring
ENCODING 197
SWIDTH 500 0
DWIDTH 12 0
BBX 12 24 0 -5
BITMAP
0E00
1100
1100
0E00
1F00
2080
4040
4040
4040
4040
4040
4040
7FC0
4040
4040
4040
4040
4040
4040
0000
0000
0000
0000
0000
ENDCHAR
STARTCHAR AE
ENCODING 198
SWIDTH 500 0
DWIDTH 12 0
BBX 12 24 0 -5
BITMAP
0000
0000
0000
0000
3FE0
4400
8400
8400
8400
8400
8400
FFC0
8400
8400
8400
8400
8400
8400
87E0
0000
0000
0000
0000
0000
ENDCHAR
STARTCHAR Ccedilla
ENCODING 199
SWIDTH 500 0
DWIDTH 12 0
BBX 12 24 0 -5
BITMAP
0000
0000
0000
0000
1F00
2080
4040
4040
4000
4000
4000
4000
4000
4000
4000
4040
4040
2080
1F00
0400
0400
0400
0800
0000
ENDCHAR
STARTCHAR Egrave
ENCODING 200
SWIDTH 500 0
DWIDTH 12 0
BBX 12 24 0 -5
BITMAP
1000
0800
0400
0000
7FC0
4000
4000
4000
4000
4000
4000
7F00
4000
4000
4000
4000
4000
4000
7FC0
0000
0000
0000
0000
0000
ENDCHAR
STARTCHAR Eacute
ENCODING 201
SWIDTH 500 0
DWIDTH 12 0
BBX 12 24 0 -5
BITMAP
0100
0200
0400
0000
7FC0
4000
4000
4000
4000
4000
4000
7F00
4000
4000
4000
4000
4000
4000
7FC0
0000
0000
0000
0000
0000
ENDCHAR
STARTCHAR Ecircumflex
ENCODING 202
SWIDTH 500 0
DWIDTH 12 0
BBX 12 24 0 -5
BITMAP
0E00
1100
2080
0000
7FC0
4000
4000
4000
4000
4000
4000
7F00
4000
4000
4000
4000
4000
4000
7FC0
0000
0000
0000
0000
0000
ENDCHAR
STARTCHAR Edieresis
ENCODING 203
SWIDTH 500 0
DWIDTH 12 0
BBX 12 24 0 -5
BITMAP
1100
1100
1100
0000
7FC0
4000
4000
4000
4000
4000
4000
7F00
4000
4000
4000
4000
4000
4000
7FC0
0000
0000
0000
0000
0000
ENDCHAR
STARTCHAR Igrave
ENCODING 204
SWIDTH 500 0
DWIDTH 12 0
BBX 12 24 0 -5
BITMAP
1000
0800
0400
0000
1F00
0400
0400
0400
0400
0400
0400
0400
0400
0400
0400
0400
0400
0400
1F00
0000
0000
0000
0000
0000
ENDCHAR
STARTCHAR Iacute
ENCODING 205
SWIDTH 500 0
DWIDTH 12 0
BBX 12 24 0 -5
BITMAP
0100
0200
0400
0000
1F00
0400
0400
0400
0400
0400
0400
0400
0400
0400
0400
0400
0400
0400
1F00
0000
0000
0000
0000
0000
ENDCHAR
STARTCHAR Icircumflex
ENCODING 206
SWIDTH 500 0
DWIDTH 12 0
BBX 12 24 0 -5
BITMAP
0E00
1100
2080
0000
1F00
0400
0400
0400
0400
0400
0400
0400
0400
0400
0400
0400
0400
0400
1F00
0000
0000
0000
0000
0000
ENDCHAR
STARTCHAR Idieresis
ENCODING 207
SWIDTH 500 0
DWIDTH 12 0
BBX 12 24 0 -5
BITMAP
1100
1100
1100
0000
1F00
0400
0400
0400
0400
0400
0400
0400
0400
0400
0400
0400
0400
0400
1F00
0000
0000
0000
0000
0000
ENDCHAR
STARTCHAR Eth
ENCODING 208
SWIDTH 500 0
DWIDTH 12 0
BBX 12 24 0 -5
BITMAP
0000
0000
0000
0000
7F00
4080
4040
4040
4040
4040
4040
FC40
4040
4040
4040
4040
4040
4080
7F00
0000
0000
0000
0000
0000
ENDCHAR
STARTCHAR Ntilde
ENCODING 209
SWIDTH 500 0
DWIDTH 12 0
BBX 12 24 0 -5
BITMAP
1880
2480
2300
0000
4040
4040
4040
4040
6040
5040
4840
4440
4240
4140
40C0
4040
4040
4040
4040
0000
0000
0000
0000
0000
ENDCHAR
STARTCHAR Ograve
ENCODING 210
SWIDTH 500 0
DWIDTH 12 0
BBX 12 24 0 -5
BITMAP
1000
0800
0400
0000
1F00
2080
4040
4040
4040
4040
4040
4040
4040
4040
4040
4040
4040
2080
1F00
0000
0000
0000
0000
0000
ENDCHAR
STARTCHAR Oacute
ENCODING 211
SWIDTH 500 0
DWIDTH 12 0
BBX 12 24 0 -5
BITMAP
0100
0200
0400
0000
1F00
2080
4040
4040
4040
4040
4040
4040
4040
4040
4040
4040
4040
2080
1F00
0000
0000
0000
0000
0000
ENDCHAR
STARTCHAR Ocircumflex
ENCODING 212
SWIDTH 500 0
DWIDTH 12 0
BBX 12 24 0 -5
BITMAP
0E00
1100
2080
0000
1F00
2080
4040
4040
4040
4040
4040
4040
4040
4040
4040
4040
4040
2080
1F00
0000
0000
0000
0000
0000
ENDCHAR
STARTCHAR Otilde
ENCODING 213
SWIDTH 500 0
DWIDTH 12 0
BBX 12 24 0 -5
BITMAP
1880
2480
2300
0000
1F00
2080
4040
4040
4040
4040
4040
4040
4040
4040
4040
4040
4040
2080
1F00
0000
0000
0000
0000
0000
ENDCHAR
STARTCHAR Odieresis
ENCODING 214
SWIDTH 500 0
DWIDTH 12 0
BBX 12 24 0 -5
BITMAP
1100
1100
1100
0000
1F00
2080
4040
4040
4040
4040
4040
4040
4040
4040
4040
4040
4040
2080
1F00
0000
0000
0000
0000
0000
ENDCHAR
STARTCHAR multiply
ENCODING 215
SWIDTH 500 0
DWIDTH 12 0
BBX 12 24 0 -5
BITMAP
0000
0000
0000
0000
0000
0000
8020
4040
2080
1100
0A00
0400
0A00
1100
2080
4040
8020
0000
0000
0000
0000
0000
0000
0000
ENDCHAR
STARTCHAR Oslash
ENCODING 216
SWIDTH 500 0
DWIDTH 12 0
BBX 12 24 0 -5
BITMAP
0000
0000
0000
0000
1F00
2080
4060
4040
40C0
4140
4240
4440
4840
5040
6040
4040
C040
2080
1F00
0000
0000
0000
0000
0000
ENDCHAR
STARTCHAR Ugrave
ENCODING 217
SWIDTH 500 0
DWIDTH 12 0
BBX 12 24 0 -5
BITMAP
1000
0800
0400
0000
4040
4040
4040
4040
4040
4040
4040
4040
4040
4040
4040
4040
4040
2080
1F00
0000
0000
0000
0000
0000
ENDCHAR
STARTCHAR Uacute
ENCODING 218
SWIDTH 500 0
DWIDTH 12 0
BBX 12 24 0 -5
BITMAP
0100
0200
0400
0000
4040
4040
4040
4040
4040
4040
4040
4040
4040
4040
4040
4040
4040
2080
1F00
0000
0000
0000
0000
0000
ENDCHAR
STARTCHAR Ucircumflex
ENCODING 219
SWIDTH 500 0
DWIDTH 12 0
BBX 12 24 0 -5
BITMAP
0E00
1100
2080
0000
4040
4040
4040
4040
4040
4040
4040
4040
4040
4040
4040
4040
4040
2080
1F00
0000
0000
0000
0000
0000
ENDCHAR
STARTCHAR Udieresis
ENCODING 220
SWIDTH 500 0
DWIDTH 12 0
BBX 12 24 0 -5
BITMAP
1100
1100
1100
0000
4040
4040
4040
4040
4040
4040
4040
4040
4040
4040
4040
4040
4040
2080
1F00
0000
0000
0000
0000
0000
ENDCHAR
STARTCHAR Yacute
ENCODING 221
SWIDTH 500 0
DWIDTH 12 0
BBX 12 24 0 -5
BITMAP
0100
0200
0400
0000
4040
4040
2080
2080
1100
1100
0A00
0400
0400
0400
0400
0400
0400
0400
0400
0000
0000
0000
0000
0000
ENDCHAR
STARTCHAR Thorn
ENCODING 222
SWIDTH 500 0
DWIDTH 12 0
BBX 12 24 0 -5
BITMAP
0000
0000
0000
0000
4000
4000
4000
7F00
4080
4040
4040
4040
4040
4080
7F00
4000
4000
4000
4000
0000
0000
0000
0000
0000
ENDCHAR
STARTCHAR germandbls
ENCODING 223
SWIDTH 500 0
DWIDTH 12 0
BBX 12 24 0 -5
BITMAP
0000
0000
0000
0000
3E00
4100
4080
4080
4080
4100
7F00
4080
4040
4040
4040
4040
6040
5080
4F00
0000
0000
0000
0000
0000
ENDCHAR
STARTCHAR agrave
ENCODING 224
SWIDTH 500 0
DWIDTH 12 0
BBX 12 24 0 -5
BITMAP
0000
0000
0000
0000
1000
0800
0400
0000
3F00
0080
0040
0040
1FC0
2040
4040
4040
4040
2040
1FC0
0000
0000
0000
0000
0000
ENDCHAR
STARTCHAR aacute
ENCODING 225
SWIDTH 500 0
DWIDTH 12 0
BBX 12 24 0 -5
BITMAP
0000
0000
0000
0000
0100
0200
0400
0000
3F00
0080
0040
0040
1FC0
2040
4040
4040
4040
2040
1FC0
0000
0000
0000
0000
0000
ENDCHAR
STARTCHAR acircumflex
ENCODING 226
SWIDTH 500 0
DWIDTH 12 0
BBX 12 24 0 -5
BITMAP
0000
0000
0000
0000
0E00
1100
2080
0000
3F00
0080
0040
0040
1FC0
2040
4040
4040
4040
2040
1FC0
0000
0000
0000
0000
0000
ENDCHAR
STARTCHAR atilde
ENCODING 227
SWIDTH 500 0
DWIDTH 12 0
BBX 12 24 0 -5
BITMAP
0000
0000
0000
0000
1880
2480
2300
0000
3F00
0080
0040
0040
1FC0
2040
4040
4040
4040
2040
1FC0
0000
0000
0000
0000
0000
ENDCHAR
STARTCHAR adieresis
ENCODING 228
SWIDTH 500 0
DWIDTH 12 0
BBX 12 24 0 -5
BITMAP
0000
0000
0000
0000
1100
1100
1100
0000
3F00
0080
0040
0040
1FC0
2040
4040
4040
4040
2040
1FC0
0000
0000
0000
0000
0000
ENDCHAR
STARTCHAR aring
ENCODING 229
SWIDTH 500 0
DWIDTH 12 0
BBX 12 24 0 -5
BITMAP
0000
0000
0000
0000
0E00
1100
1100
0E00
3F00
0080
0040
0040
1FC0
2040
4040
4040
4040
2040
1FC0
0000
0000
0000
0000
0000
ENDCHAR
STARTCHAR ae
ENCODING 230
SWIDTH 500 0
DWIDTH 12 0
BBX 12 24 0 -5
BITMAP
0000
0000
0000
0000
0000
0000
0000
0000
7BC0
0420
0420
0420
7C20
87E0
8400
8400
8400
8420
7BC0
0000
0000
0000
0000
0000
ENDCHAR
STARTCHAR ccedilla
ENCODING 231
SWIDTH 500 0
DWIDTH 12 0
BBX 12 24 0 -5
BITMAP
0000
0000
0000
0000
0000
0000
0000
0000
1F00
2080
4040
4000
4000
4000
4000
4000
4040
2080
1F00
0400
0400
0400
0800
0000
ENDCHAR
STARTCHAR egrave
ENCODING 232
SWIDTH 500 0
DWIDTH 12 0
BBX 12 24 0 -5
BITMAP
0000
0000
0000
0000
1000
0800
0400
0000
1F00
2080
4040
4040
4040
7FC0
4000
4000
4000
2040
1F80
0000
0000
0000
0000
0000
ENDCHAR
STARTCHAR eacute
ENCODING 233
SWIDTH 500 0
DWIDTH 12 0
BBX 12 24 0 -5
BITMAP
0000
0000
0000
0000
0100
0200
0400
0000
1F00
2080
4040
4040
4040
7FC0
4000
4000
4000
2040
1F80
0000
0000
0000
0000
0000
ENDCHAR
STARTCHAR ecircumflex
ENCODING 234
SWIDTH 500 0
DWIDTH 12 0
BBX 12 24 0 -5
BITMAP
0000
0000
0000
0000
0E00
1100
2080
0000
1F00
2080
4040
4040
4040
7FC0
4000
4000
4000
2040
1F80
0000
0000
0000
0000
0000
ENDCHAR
STARTCHAR edieresis
ENCODING 235
SWIDTH 500 0
DWIDTH 12 0
BBX 12 24 0 -5
BITMAP
0000
0000
0000
0000
1100
1100
1100
0000
1F00
2080
4040
4040
4040
7FC0
4000
4000
4000
2040
1F80
0000
0000
0000
0000
0000
ENDCHAR
STARTCHAR igrave
ENCODING 236
SWIDTH 500 0
DWIDTH 12 0
BBX 12 24 0 -5
BITMAP
0000
0000
0000
0000
1000
0800
0400
0000
1C00
0400
0400
0400
0400
0400
0400
0400
0400
0400
1F00
0000
0000
0000
0000
0000
ENDCHAR
STARTCHAR iacute
ENCODING 237
SWIDTH 500 0
DWIDTH 12 0
BBX 12 24 0 -5
BITMAP
0000
0000
0000
0000
0100
0200
0400
0000
1C00
0400
0400
0400
0400
0400
0400
0400
0400
0400
1F00
0000
0000
0000
0000
0000
ENDCHAR
STARTCHAR icircumflex
ENCODING 238
SWIDTH 500 0
DWIDTH 12 0
BBX 12 24 0 -5
BITMAP
0000
0000
0000
0000
0E00
1100
2080
0000
1C00
0400
0400
0400
0400
0400
0400
0400
0400
0400
1F00
0000
0000
0000
0000
0000
ENDCHAR
STARTCHAR idieresis
ENCODING 239
SWIDTH 500 0
DWIDTH 12 0
BBX 12 24 0 -5
BITMAP
0000
0000
0000
0000
1100
1100
1100
0000
1C00
0400
0400
0400
0400
0400
0400
0400
0400
0400
1F00
0000
0000
0000
0000
0000
ENDCHAR
STARTCHAR eth
ENCODING 240
SWIDTH 500 0
DWIDTH 12 0
BBX 12 24 0 -5
BITMAP
0000
0000
0000
0000
1400
0800
1400
0200
1F00
2080
4040
4040
4040
4040
4040
4040
4040
2080
1F00
0000
0000
0000
0000
0000
ENDCHAR
STARTCHAR ntilde
ENCODING 241
SWIDTH 500 0
DWIDTH 12 0
BBX 12 24 0 -5
BITMAP
0000
0000
0000
0000
1880
2480
2300
0000
7F00
4080
4040
4040
4040
4040
4040
4040
4040
4040
4040
0000
0000
0000
0000
0000
ENDCHAR
STARTCHAR ograve
ENCODING 242
SWIDTH 500 0
DWIDTH 12 0
BBX 12 24 0 -5
BITMAP
0000
0000
0000
0000
1000
0800
0400
0000
1F00
2080
4040
4040
4040
4040
4040
4040
4040
2080
1F00
0000
0000
0000
0000
0000
ENDCHAR
STARTCHAR oacute
ENCODING 243
SWIDTH 500 0
DWIDTH 12 0
BBX 12 24 0 -5
BITMAP
0000
0000
0000
0000
0100
0200
0400
0000
1F00
2080
4040
4040
4040
4040
4040
4040
4040
2080
1F00
0000
0000
0000
0000
0000
ENDCHAR
STARTCHAR ocircumflex
ENCODING 244
SWIDTH 500 0
DWIDTH 12 0
BBX 12 24 0 -5
BITMAP
0000
0000
0000
0000
0E00
1100
2080
0000
1F00
2080
4040
4040
4040
4040
4040
4040
4040
2080
1F00
0000
0000
0000
0000
0000
ENDCHAR
STARTCHAR otilde
ENCODING 245
SWIDTH 500 0
DWIDTH 12 0
BBX 12 24 0 -5
BITMAP
0000
0000
0000
0000
1880
2480
2300
0000
1F00
2080
4040
4040
4040
4040
4040
4040
4040
2080
1F00
0000
0000
0000
0000
0000
ENDCHAR
STARTCHAR odieresis
ENCODING 246
SWIDTH 500 0
DWIDTH 12 0
BBX 12 24 0 -5
BITMAP
0000
0000
0000
0000
1100
1100
1100
0000
1F00
2080
4040
4040
4040
4040
4040
4040
4040
2080
1F00
0000
0000
0000
0000
0000
ENDCHAR
STARTCHAR divide
ENCODING 247
SWIDTH 500 0
DWIDTH 12 0
BBX 12 24 0 -5
BITMAP
0000
0000
0000
0000
0000
0000
0400
0400
0400
0000
0000
7FC0
0000
0000
0400
0400
0400
0000
0000
0000
0000
0000
0000
0000
ENDCHAR
STARTCHAR oslash
ENCODING 248
SWIDTH 500 0
DWIDTH 12 0
BBX 12 24 0 -5
BITMAP
0000
0000
0000
0000
0000
0000
0000
0000
1F20
20C0
40C0
4140
4240
4440
4840
5040
6040
6080
9F00
0000
0000
0000
0000
0000
ENDCHAR
STARTCHAR ugrave
ENCODING 249
SWIDTH 500 0
DWIDTH 12 0
BBX 12 24 0 -5
BITMAP
0000
0000
0000
0000
1000
0800
0400
0000
4040
4040
4040
4040
4040
4040
4040
4040
4040
2040
1FC0
0000
0000
0000
0000
0000
ENDCHAR
STARTCHAR uacute
ENCODING 250
SWIDTH 500 0
DWIDTH 12 0
BBX 12 24 0 -5
BITMAP
0000
0000
0000
0000
0100
0200
0400
0000
4040
4040
4040
4040
4040
4040
4040
4040
4040
2040
1FC0
0000
0000
0000
0000
0000
ENDCHAR
STARTCHAR ucircumflex
ENCODING 251
SWIDTH 500 0
DWIDTH 12 0
BBX 12 24 0 -5
BITMAP
0000
0000
0000
0000
0E00
1100
2080
0000
4040
4040
4040
4040
4040
4040
4040
4040
4040
2040
1FC0
0000
0000
0000
0000
0000
ENDCHAR
STARTCHAR udieresis
ENCODING 252
SWIDTH 500 0
DWIDTH 12 0
BBX 12 24 0 -5
BITMAP
0000
0000
0000
0000
1100
1100
1100
0000
4040
4040
4040
4040
4040
4040
4040
4040
4040
2040
1FC0
0000
0000
0000
0000
0000
ENDCHAR
STARTCHAR yacute
ENCODING 253
SWIDTH 500 0
DWIDTH 12 0
BBX 12 24 0 -5
BITMAP
0000
0000
0000
0000
0100
0200
0400
0000
4040
4040
4040
4040
4040
4040
4040
4040
4040
20C0
1F40
0040
0040
0080
3F00
0000
ENDCHAR
STARTCHAR thorn
ENCODING 254
SWIDTH 500 0
DWIDTH 12 0
BBX 12 24 0 -5
BITMAP
0000
0000
0000
0000
4000
4000
4000
4000
7F00
4080
4040
4040
4040
4040
4040
4040
4040
4080
7F00
4000
4000
4000
4000
0000
ENDCHAR
STARTCHAR ydieresis
ENCODING 255
SWIDTH 500 0
DWIDTH 12 0
BBX 12 24 0 -5
BITMAP
0000
0000
0000
0000
1100
1100
1100
0000
4040
4040
4040
4040
4040
4040
4040
4040
4040
20C0
1F40
0040
0040
0080
3F00
0000
ENDCHAR
STARTCHAR Amacron
ENCODING 256
SWIDTH 500 0
DWIDTH 12 0
BBX 12 24 0 -5
BITMAP
0000
3F80
0000
0000
1F00
2080
4040
4040
4040
4040
4040
4040
7FC0
4040
4040
4040
4040
4040
4040
0000
0000
0000
0000
0000
ENDCHAR
STARTCHAR amacron
ENCODING 257
SWIDTH 500 0
DWIDTH 12 0
BBX 12 24 0 -5
BITMAP
0000
0000
0000
0000
0000
3F80
0000
0000
3F00
0080
0040
0040
1FC0
2040
4040
4040
4040
2040
1FC0
0000
0000
0000
0000
0000
ENDCHAR
STARTCHAR Abreve
ENCODING 258
SWIDTH 500 0
DWIDTH 12 0
BBX 12 24 0 -5
BITMAP
2080
2080
1F00
0000
1F00
2080
4040
4040
4040
4040
4040
4040
7FC0
4040
4040
4040
4040
4040
4040
0000
0000
0000
0000
0000
ENDCHAR
STARTCHAR abreve
ENCODING 259
SWIDTH 500 0
DWIDTH 12 0
BBX 12 24 0 -5
BITMAP
0000
0000
0000
0000
2080
2080
1F00
0000
3F00
0080
0040
0040
1FC0
2040
4040
4040
4040
2040
1FC0
0000
0000
0000
0000
0000
ENDCHAR
STARTCHAR Aogonek
ENCODING 260
SWIDTH 500 0
DWIDTH 12 0
BBX 12 24 0 -5
BITMAP
0000
0000
0000
0000
1F00
2080
4040
4040
4040
4040
4040
4040
7FC0
4040
4040
4040
4040
4040
4040
00C0
0100
0100
00E0
0000
ENDCHAR
STARTCHAR aogonek
ENCODING 261
SWIDTH 500 0
DWIDTH 12 0
BBX 12 24 0 -5
BITMAP
0000
0000
0000
0000
0000
0000
0000
0000
3F00
0080
0040
0040
1FC0
2040
4040
4040
4040
2040
1FC0
00C0
0100
0100
00E0
0000
ENDCHAR
STARTCHAR Cacute
ENCODING 262
SWIDTH 500 0
DWIDTH 12 0
BBX 12 24 0 -5
BITMAP
0100
0200
0400
0000
1F00
2080
4040
4040
4000
4000
4000
4000
4000
4000
4000
4040
4040
2080
1F00
0000
0000
0000
0000
0000
ENDCHAR
STARTCHAR cacute
ENCODING 263
SWIDTH 500 0
DWIDTH 12 0
BBX 12 24 0 -5
BITMAP
0000
0000
0000
0000
0100
0200
0400
0000
1F00
2080
4040
4000
4000
4000
4000
4000
4040
2080
1F00
0000
0000
0000
0000
0000
ENDCHAR
STARTCHAR Ccircumflex
ENCODING 264
SWIDTH 500 0
DWIDTH 12 0
BBX 12 24 0 -5
BITMAP
0E00
1100
2080
0000
1F00
2080
4040
4040
4000
4000
4000
4000
4000
4000
4000
4040
4040
2080
1F00
0000
0000
0000
0000
0000
ENDCHAR
STARTCHAR ccircumflex
ENCODING 265
SWIDTH 500 0
DWIDTH 12 0
BBX 12 24 0 -5
BITMAP
0000
0000
0000
0000
0E00
1100
2080
0000
1F00
2080
4040
4000
4000
4000
4000
4000
4040
2080
1F00
0000
0000
0000
0000
0000
ENDCHAR
STARTCHAR Cdotaccent
ENCODING 266
SWIDTH 500 0
DWIDTH 12 0
BBX 12 24 0 -5
BITMAP
0400
0400
0400
0000
1F00
2080
4040
4040
4000
4000
4000
4000
4000
4000
4000
4040
4040
2080
1F00
0000
0000
0000
0000
0000
ENDCHAR
STARTCHAR cdotaccent
ENCODING 267
SWIDTH 500 0
DWIDTH 12 0
BBX 12 24 0 -5
BITMAP
0000
0000
0000
0000
0400
0400
0400
0000
1F00
2080
4040
4000
4000
4000
4000
4000
4040
2080
1F00
0000
0000
0000
0000
0000
ENDCHAR
STARTCHAR Ccaron
ENCODING 268
SWIDTH 500 0
DWIDTH 12 0
BBX 12 24 0 -5
BITMAP
2080
1100
0E00
0000
1F00
2080
4040
4040
4000
4000
4000
4000
4000
4000
4000
4040
4040
2080
1F00
0000
0000
0000
0000
0000
ENDCHAR
STARTCHAR ccaron
ENCODING 269
SWIDTH 500 0
DWIDTH 12 0
BBX 12 24 0 -5
BITMAP
0000
0000
0000
0000
2080
1100
0E00
0000
1F00
2080
4040
4000
4000
4000
4000
4000
4040
2080
1F00
0000
0000
0000
0000
0000
ENDCHAR
STARTCHAR Dcaron
ENCODING 270
SWIDTH 500 0
DWIDTH 12 0
BBX 12 24 0 -5
BITMAP
2080
1100
0E00
0000
7F00
4080
4040
4040
4040
4040
4040
4040
4040
4040
4040
4040
4040
4080
7F00
0000
0000
0000
0000
0000
ENDCHAR
STARTCHAR dcaron
ENCODING 271
SWIDTH 500 0
DWIDTH 12 0
BBX 12 24 0 -5
BITMAP
2080
1100
0E00
0000
0040
0040
0040
0040
1FC0
2040
4040
4040
4040
4040
4040
4040
4040
2040
1FC0
0000
0000
0000
0000
0000
ENDCHAR
STARTCHAR Dcroat
ENCODING 272
SWIDTH 500 0
DWIDTH 12 0
BBX 12 24 0 -5
BITMAP
0000
0000
0000
0000
7F00
4080
4040
4040
4040
4040
4040
FC40
4040
4040
4040
4040
4040
4080
7F00
0000
0000
0000
0000
0000
ENDCHAR
STARTCHAR dcroat
ENCODING 273
SWIDTH 500 0
DWIDTH 12 0
BBX 12 24 0 -5
BITMAP
0000
0000
0000
0000
0040
07E0
0040
0040
1FC0
2040
4040
4040
4040
4040
4040
4040
4040
2040
1FC0
0000
0000
0000
0000
0000
ENDCHAR
STARTCHAR Emacron
ENCODING 274
SWIDTH 500 0
DWIDTH 12 0
BBX 12 24 0 -5
BITMAP
0000
3F80
0000
0000
7FC0
4000
4000
4000
4000
4000
4000
7F00
4000
4000
4000
4000
4000
4000
7FC0
0000
0000
0000
0000
0000
ENDCHAR
STARTCHAR emacron
ENCODING 275
SWIDTH 500 0
DWIDTH 12 0
BBX 12 24 0 -5
BITMAP
0000
0000
0000
0000
0000
3F80
0000
0000
1F00
2080
4040
4040
4040
7FC0
4000
4000
4000
2040
1F80
0000
0000
0000
0000
0000
ENDCHAR
STARTCHAR Ebreve
ENCODING 276
SWIDTH 500 0
DWIDTH 12 0
BBX 12 24 0 -5
BITMAP
2080
2080
1F00
0000
7FC0
4000
4000
4000
4000
4000
4000
7F00
4000
4000
4000
4000
4000
4000
7FC0
0000
0000
0000
0000
0000
ENDCHAR
STARTCHAR ebreve
ENCODING 277
SWIDTH 500 0
DWIDTH 12 0
BBX 12 24 0 -5
BITMAP
0000
0000
0000
0000
2080
2080
1F00
0000
1F00
2080
4040
4040
4040
7FC0
4000
4000
4000
2040
1F80
0000
0000
0000
0000
0000
ENDCHAR
STARTCHAR Edotaccent
ENCODING 278
SWIDTH 500 0
DWIDTH 12 0
BBX 12 24 0 -5
BITMAP
0400
0400
0400
0000
7FC0
4000
4000
4000
4000
4000
4000
7F00
4000
4000
4000
4000
4000
4000
7FC0
0000
0000
0000
0000
0000
ENDCHAR
STARTCHAR edotaccent
ENCODING 279
SWIDTH 500 0
DWIDTH 12 0
BBX 12 24 0 -5
BITMAP
0000
0000
0000
0000
0400
0400
0400
0000
1F00
2080
4040
4040
4040
7FC0
4000
4000
4000
2040
1F80
0000
0000
0000
0000
0000
ENDCHAR
STARTCHAR Eogonek
ENCODING 280
SWIDTH 500 0
DWIDTH 12 0
BBX 12 24 0 -5
BITMAP
0000
0000
0000
0000
7FC0
4000
4000
4000
4000
4000
4000
7F00
4000
4000
4000
4000
4000
4000
7FC0
00C0
0100
0100
00E0
0000
ENDCHAR
STARTCHAR eogonek
ENCODING 281
SWIDTH 500 0
DWIDTH 12 0
BBX 12 24 0 -5
BITMAP
0000
0000
0000
0000
0000
0000
0000
0000
1F00
2080
4040
4040
4040
7FC0
4000
4000
4000
2040
1F80
0600
0800
0800
0700
0000
ENDCHAR
STARTCHAR Ecaron
ENCODING 282
SWIDTH 500 0
DWIDTH 12 0
BBX 12 24 0 -5
BITMAP
2080
1100
0E00
0000
7FC0
4000
4000
4000
4000
4000
4000
7F00
4000
4000
4000
4000
4000
4000
7FC0
0000
0000
0000
0000
0000
ENDCHAR
STARTCHAR ecaron
ENCODING 283
SWIDTH 500 0
DWIDTH 12 0
BBX 12 24 0 -5
BITMAP
0000
0000
0000
0000
2080
1100
0E00
0000
1F00
2080
4040
4040
4040
7FC0
4000
4000
4000
2040
1F80
0000
0000
0000
0000
0000
ENDCHAR
STARTCHAR Gcircumflex
ENCODING 284
SWIDTH 500 0
DWIDTH 12 0
BBX 12 24 0 -5
BITMAP
0E00
1100
2080
0000
1F00
2080
4040
4040
4000
4000
4000
47C0
4040
4040
4040
4040
4040
2080
1F00
0000
0000
0000
0000
0000
ENDCHAR
STARTCHAR gcircumflex
ENCODING 285
SWIDTH 500 0
DWIDTH 12 0
BBX 12 24 0 -5
BITMAP
0000
0000
0000
0000
0E00
1100
2080
0000
1FC0
2040
4040
4040
4040
4040
4040
4040
4040
20C0
1F40
0040
0040
0080
3F00
0000
ENDCHAR
STARTCHAR Gbreve
ENCODING 286
SWIDTH 500 0
DWIDTH 12 0
BBX 12 24 0 -5
BITMAP
2080
2080
1F00
0000
1F00
2080
4040
4040
4000
4000
4000
47C0
4040
4040
4040
4040
4040
2080
1F00
0000
0000
0000
0000
0000
ENDCHAR
STARTCHAR gbreve
ENCODING 287
SWIDTH 500 0
DWIDTH 12 0
BBX 12 24 0 -5
BITMAP
0000
0000
0000
0000
2080
2080
1F00
0000
1FC0
2040
4040
4040
4040
4040
4040
4040
4040
20C0
1F40
0040
0040
0080
3F00
0000
ENDCHAR
STARTCHAR Gdotaccent
ENCODING 288
SWIDTH 500 0
DWIDTH 12 0
BBX 12 24 0 -5
BITMAP
0400
0400
0400
0000
1F00
2080
4040
4040
4000
4000
4000
47C0
4040
4040
4040
4040
4040
2080
1F00
0000
0000
0000
0000
0000
ENDCHAR
STARTCHAR gdotaccent
ENCODING 289
SWIDTH 500 0
DWIDTH 12 0
BBX 12 24 0 -5
BITMAP
0000
0000
0000
0000
0200
0200
0200
0000
1FC0
2040
4040
4040
4040
4040
4040
4040
4040
20C0
1F40
0040
0040
0080
3F00
0000
ENDCHAR
STARTCHAR Gcommaaccent
ENCODING 290
SWIDTH 500 0
DWIDTH 12 0
BBX 12 24 0 -5
BITMAP
0000
0000
0000
0000
1F00
2080
4040
4040
4000
4000
4000
47C0
4040
4040
4040
4040
4040
2080
1F00
0000
0400
0400
0400
0800
ENDCHAR
STARTCHAR gcommaaccent
ENCODING 291
SWIDTH 500 0
DWIDTH 12 0
BBX 12 24 0 -5
BITMAP
0000
0000
0000
0100
0200
0200
0200
0000
1FC0
2040
4040
4040
4040
4040
4040
4040
4040
20C0
1F40
0040
0040
0080
3F00
0000
ENDCHAR
STARTCHAR Hcircumflex
ENCODING 292
SWIDTH 500 0
DWIDTH 12 0
BBX 12 24 0 -5
BITMAP
0E00
1100
2080
0000
4040
4040
4040
4040
4040
4040
4040
7FC0
4040
4040
4040
4040
4040
4040
4040
0000
0000
0000
0000
0000
ENDCHAR
STARTCHAR hcircumflex
ENCODING 293
SWIDTH 500 0
DWIDTH 12 0
BBX 12 24 0 -5
BITMAP
0E00
1100
2080
0000
4000
4000
4000
4000
7F00
4080
4040
4040
4040
4040
4040
4040
4040
4040
4040
0000
0000
0000
0000
0000
ENDCHAR
STARTCHAR Hbar
ENCODING 294
SWIDTH 500 0
DWIDTH 12 0
BBX 12 24 0 -5
BITMAP
0000
0000
0000
0000
4040
4040
4040
FFE0
4040
4040
4040
7FC0
4040
4040
4040
4040
4040
4040
4040
0000
0000
0000
0000
0000
ENDCHAR
STARTCHAR hbar
ENCODING 295
SWIDTH 500 0
DWIDTH 12 0
BBX 12 24 0 -5
BITMAP
0000
0000
0000
0000
4000
FC00
4000
4000
7F00
4080
4040
4040
4040
4040
4040
4040
4040
4040
4040
0000
0000
0000
0000
0000
ENDCHAR
STARTCHAR Itilde
ENCODING 296
SWIDTH 500 0
DWIDTH 12 0
BBX 12 24 0 -5
BITMAP
1880
2480
2300
0000
1F00
0400
0400
0400
0400
0400
0400
0400
0400
0400
0400
0400
0400
0400
1F00
0000
0000
0000
0000
0000
ENDCHAR
STARTCHAR itilde
ENCODING 297
SWIDTH 500 0
DWIDTH 12 0
BBX 12 24 0 -5
BITMAP
0000
0000
0000
0000
1880
2480
2300
0000
1C00
0400
0400
0400
0400
0400
0400
0400
0400
0400
1F00
0000
0000
0000
0000
0000
ENDCHAR
STARTCHAR Imacron
ENCODING 298
SWIDTH 500 0
DWIDTH 12 0
BBX 12 24 0 -5
BITMAP
0000
3F80
0000
0000
1F00
0400
0400
0400
0400
0400
0400
0400
0400
0400
0400
0400
0400
0400
1F00
0000
0000
0000
0000
0000
ENDCHAR
STARTCHAR imacron
ENCODING 299
SWIDTH 500 0
DWIDTH 12 0
BBX 12 24 0 -5
BITMAP
0000
0000
0000
0000
0000
3F80
0000
0000
1C00
0400
0400
0400
0400
0400
0400
0400
0400
0400
1F00
0000
0000
0000
0000
0000
ENDCHAR
STARTCHAR Ibreve
ENCODING 300
SWIDTH 500 0
DWIDTH 12 0
BBX 12 24 0 -5
BITMAP
2080
2080
1F00
0000
1F00
0400
0400
0400
0400
0400
0400
0400
0400
0400
0400
0400
0400
0400
1F00
0000
0000
0000
0000
0000
ENDCHAR
STARTCHAR ibreve
ENCODING 301
SWIDTH 500 0
DWIDTH 12 0
BBX 12 24 0 -5
BITMAP
0000
0000
0000
0000
2080
2080
1F00
0000
1C00
0400
0400
0400
0400
0400
0400
0400
0400
0400
1F00
0000
0000
0000
0000
0000
ENDCHAR
STARTCHAR Iogonek
ENCODING 302
SWIDTH 500 0
DWIDTH 12 0
BBX 12 24 0 -5
BITMAP
0000
0000
0000
0000
1F00
0400
0400
0400
0400
0400
0400
0400
0400
0400
0400
0400
0400
0400
1F00
0400
0800
0800
0700
0000
ENDCHAR
STARTCHAR iogonek
ENCODING 303
SWIDTH 500 0
DWIDTH 12 0
BBX 12 24 0 -5
BITMAP
0000
0000
0000
0000
0400
0400
0400
0000
1C00
0400
0400
0400
0400
0400
0400
0400
0400
0400
1F00
0400
0800
0800
0700
0000
ENDCHAR
STARTCHAR Idotaccent
ENCODING 304
SWIDTH 500 0
DWIDTH 12 0
BBX 12 24 0 -5
BITMAP
0400
0400
0400
0000
1F00
0400
0400
0400
0400
0400
0400
0400
0400
0400
0400
0400
0400
0400
1F00
0000
0000
0000
0000
0000
ENDCHAR
STARTCHAR dotlessi
ENCODING 305
SWIDTH 500 0
DWIDTH 12 0
BBX 12 24 0 -5
BITMAP
0000
0000
0000
0000
0000
0000
0000
0000
1C00
0400
0400
0400
0400
0400
0400
0400
0400
0400
1F00
0000
0000
0000
0000
0000
ENDCHAR
STARTCHAR IJ
ENCODING 306
SWIDTH 500 0
DWIDTH 12 0
BBX 12 24 0 -5
BITMAP
0000
0000
0000
0000
E0E0
4040
4040
4040
4040
4040
4040
4040
4040
4040
4840
4840
4840
4840
E780
0000
0000
0000
0000
0000
ENDCHAR
STARTCHAR ij
ENCODING 307
SWIDTH 500 0
DWIDTH 12 0
BBX 12 24 0 -5
BITMAP
0000
0000
0000
0000
2020
2020
2020
0000
6060
2020
2020
2020
2020
2020
2020
2020
2020
2020
7020
0420
0420
0420
03C0
0000
ENDCHAR
STARTCHAR Jcircumflex
ENCODING 308
SWIDTH 500 0
DWIDTH 12 0
BBX 12 24 0 -5
BITMAP
0180
0240
0420
0000
03E0
0080
0080
0080
0080
0080
0080
0080
0080
0080
4080
4080
4080
2100
1E00
0000
0000
0000
0000
0000
ENDCHAR
STARTCHAR jcircumflex
ENCODING 309
SWIDTH 500 0
DWIDTH 12 0
BBX 12 24 0 -5
BITMAP
0000
0000
0000
0000
0180
0240
0420
0000
0380
0080
0080
0080
0080
0080
0080
0080
0080
0080
0080
2080
2080
1100
0E00
0000
ENDCHAR
STARTCHAR Kcommaaccent
ENCODING 310
SWIDTH 500 0
DWIDTH 12 0
BBX 12 24 0 -5
BITMAP
0000
0000
0000
0000
4040
4080
4100
4200
4400
4800
5000
6000
5000
4800
4400
4200
4100
4080
4040
0000
0400
0400
0400
0800
ENDCHAR
STARTCHAR kcommaaccent
ENCODING 311
SWIDTH 500 0
DWIDTH 12 0
BBX 12 24 0 -5
BITMAP
0000
0000
0000
0000
2000
2000
2000
2000
2040
2080
2100
2200
2400
3800
2400
2200
2100
2080
2040
0000
0400
0400
0400
0800
ENDCHAR
STARTCHAR kgreenlandic
ENCODING 312
SWIDTH 500 0
DWIDTH 12 0
BBX 12 24 0 -5
BITMAP
0000
0000
0000
0000
0000
0000
0000
0000
2040
2080
2100
2200
2400
3800
2400
2200
2100
2080
2040
0000
0000
0000
0000
0000
ENDCHAR
STARTCHAR Lacute
ENCODING 313
SWIDTH 500 0
DWIDTH 12 0
BBX 12 24 0 -5
BITMAP
1000
2000
4000
0000
4000
4000
4000
4000
4000
4000
4000
4000
4000
4000
4000
4000
4000
4000
7FC0
0000
0000
0000
0000
0000
ENDCHAR
STARTCHAR lacute
ENCODING 314
SWIDTH 500 0
DWIDTH 12 0
BBX 12 24 0 -5
BITMAP
0100
0200
0400
0000
1C00
0400
0400
0400
0400
0400
0400
0400
0400
0400
0400
0400
0400
0400
1F00
0000
0000
0000
0000
0000
ENDCHAR
STARTCHAR Lcommaaccent
ENCODING 315
SWIDTH 500 0
DWIDTH 12 0
BBX 12 24 0 -5
BITMAP
0000
0000
0000
0000
4000
4000
4000
4000
4000
4000
4000
4000
4000
4000
4000
4000
4000
4000
7FC0
0000
0400
0400
0400
0800
ENDCHAR
STARTCHAR lcommaaccent
ENCODING 316
SWIDTH 500 0
DWIDTH 12 0
BBX 12 24 0 -5
BITMAP
0000
0000
0000
0000
1C00
0400
0400
0400
0400
0400
0400
0400
0400
0400
0400
0400
0400
0400
1F00
0000
0400
0400
0400
0800
ENDCHAR
STARTCHAR Lcaron
ENCODING 317
SWIDTH 500 0
DWIDTH 12 0
BBX 12 24 0 -5
BITMAP
2080
1100
0E00
0000
4000
4000
4000
4000
4000
4000
4000
4000
4000
4000
4000
4000
4000
4000
7FC0
0000
0000
0000
0000
0000
ENDCHAR
STARTCHAR lcaron
ENCODING 318
SWIDTH 500 0
DWIDTH 12 0
BBX 12 24 0 -5
BITMAP
2080
1100
0E00
0000
1C00
0400
0400
0400
0400
0400
0400
0400
0400
0400
0400
0400
0400
0400
1F00
0000
0000
0000
0000
0000
ENDCHAR
STARTCHAR Ldotaccent
ENCODING 319
SWIDTH 500 0
DWIDTH 12 0
BBX 12 24 0 -5
BITMAP
0000
0000
0000
0000
4000
4000
4000
4000
4000
4000
4100
4100
4100
4000
4000
4000
4000
4000
7FC0
0000
0000
0000
0000
0000
ENDCHAR
STARTCHAR ldotaccent
ENCODING 320
SWIDTH 500 0
DWIDTH 12 0
BBX 12 24 0 -5
BITMAP
0000
0000
0000
0000
1C00
0400
0400
0400
0400
0400
0410
0410
0410
0400
0400
0400
0400
0400
1F00
0000
0000
0000
0000
0000
ENDCHAR
STARTCHAR Lslash
ENCODING 321
SWIDTH 500 0
DWIDTH 12 0
BBX 12 24 0 -5
BITMAP
0000
0000
0000
0000
2000
2000
2000
2000
2000
2800
3000
2000
6000
A000
2000
2000
2000
2000
3FE0
0000
0000
0000
0000
0000
ENDCHAR
STARTCHAR lslash
ENCODING 322
SWIDTH 500 0
DWIDTH 12 0
BBX 12 24 0 -5
BITMAP
0000
0000
0000
0000
1C00
0400
0400
0400
0400
0500
0600
0400
0C00
1400
0400
0400
0400
0400
1F00
0000
0000
0000
0000
0000
ENDCHAR
STARTCHAR Nacute
ENCODING 323
SWIDTH 500 0
DWIDTH 12 0
BBX 12 24 0 -5
BITMAP
0100
0200
0400
0000
4040
4040
4040
4040
6040
5040
4840
4440
4240
4140
40C0
4040
4040
4040
4040
0000
0000
0000
0000
0000
ENDCHAR
STARTCHAR nacute
ENCODING 324
SWIDTH 500 0
DWIDTH 12 0
BBX 12 24 0 -5
BITMAP
0000
0000
0000
0000
0100
0200
0400
0000
7F00
4080
4040
4040
4040
4040
4040
4040
4040
4040
4040
0000
0000
0000
0000
0000
ENDCHAR
STARTCHAR Ncommaaccent
ENCODING 325
SWIDTH 500 0
DWIDTH 12 0
BBX 12 24 0 -5
BITMAP
0000
0000
0000
0000
4040
4040
4040
4040
6040
5040
4840
4440
4240
4140
40C0
4040
4040
4040
4040
0000
0400
0400
0400
0800
ENDCHAR
STARTCHAR ncommaaccent
ENCODING 326
SWIDTH 500 0
DWIDTH 12 0
BBX 12 24 0 -5
BITMAP
0000
0000
0000
0000
0000
0000
0000
0000
7F00
4080
4040
4040
4040
4040
4040
4040
4040
4040
4040
0000
0400
0400
0400
0800
ENDCHAR
STARTCHAR Ncaron
ENCODING 327
SWIDTH 500 0
DWIDTH 12 0
BBX 12 24 0 -5
BITMAP
2080
1100
0E00
0000
4040
4040
4040
4040
6040
5040
4840
4440
4240
4140
40C0
4040
4040
4040
4040
0000
0000
0000
0000
0000
ENDCHAR
STARTCHAR ncaron
ENCODING 328
SWIDTH 500 0
DWIDTH 12 0
BBX 12 24 0 -5
BITMAP
0000
0000
0000
0000
2080
1100
0E00
0000
7F00
4080
4040
4040
4040
4040
4040
4040
4040
4040
4040
0000
0000
0000
0000
0000
ENDCHAR
STARTCHAR quoterightn
ENCODING 329
SWIDTH 500 0
DWIDTH 12 0
BBX 12 24 0 -5
BITMAP
0000
0000
4000
4000
4000
4000
8000
0000
7F00
4080
4040
4040
4040
4040
4040
4040
4040
4040
4040
0000
0000
0000
0000
0000
ENDCHAR
STARTCHAR Eng
ENCODING 330
SWIDTH 500 0
DWIDTH 12 0
BBX 12 24 0 -5
BITMAP
0000
0000
0000
0000
4040
4040
4040
4040
6040
5040
4840
4440
4240
4140
40C0
4040
4040
4040
4040
0040
0040
0040
0080
0000
ENDCHAR
STARTCHAR eng
ENCODING 331
SWIDTH 500 0
DWIDTH 12 0
BBX 12 24 0 -5
BITMAP
0000
0000
0000
0000
0000
0000
0000
0000
7F00
4080
4040
4040
4040
4040
4040
4040
4040
4040
4040
0040
0040
0040
0080
0000
ENDCHAR
STARTCHAR Omacron
ENCODING 332
SWIDTH 500 0
DWIDTH 12 0
BBX 12 24 0 -5
BITMAP
0000
3F80
0000
0000
1F00
2080
4040
4040
4040
4040
4040
4040
4040
4040
4040
4040
4040
2080
1F00
0000
0000
0000
0000
0000
ENDCHAR
STARTCHAR omacron
ENCODING 333
SWIDTH 500 0
DWIDTH 12 0
BBX 12 24 0 -5
BITMAP
0000
0000
0000
0000
0000
3F80
0000
0000
1F00
2080
4040
4040
4040
4040
4040
4040
4040
2080
1F00
0000
0000
0000
0000
0000
ENDCHAR
STARTCHAR Obreve
ENCODING 334
SWIDTH 500 0
DWIDTH 12 0
BBX 12 24 0 -5
BITMAP
2080
2080
1F00
0000
1F00
2080
4040
4040
4040
4040
4040
4040
4040
4040
4040
4040
4040
2080
1F00
0000
0000
0000
0000
0000
ENDCHAR
STARTCHAR obreve
ENCODING 335
SWIDTH 500 0
DWIDTH 12 0
BBX 12 24 0 -5
BITMAP
0000
0000
0000
0000
2080
2080
1F00
0000
1F00
2080
4040
4040
4040
4040
4040
4040
4040
2080
1F00
0000
0000
0000
0000
0000
ENDCHAR
STARTCHAR Ohungarumlaut
ENCODING 336
SWIDTH 500 0
DWIDTH 12 0
BBX 12 24 0 -5
BITMAP
0440
0880
1100
0000
1F00
2080
4040
4040
4040
4040
4040
4040
4040
4040
4040
4040
4040
2080
1F00
0000
0000
0000
0000
0000
ENDCHAR
STARTCHAR ohungarumlaut
ENCODING 337
SWIDTH 500 0
DWIDTH 12 0
BBX 12 24 0 -5
BITMAP
0000
0000
0000
0000
0440
0880
1100
0000
1F00
2080
4040
4040
4040
4040
4040
4040
4040
2080
1F00
0000
0000
0000
0000
0000
ENDCHAR
STARTCHAR OE
ENCODING 338
SWIDTH 500 0
DWIDTH 12 0
BBX 12 24 0 -5
BITMAP
0000
0000
0000
0000
3FE0
4400
8400
8400
8400
8400
8400
87C0
8400
8400
8400
8400
8400
4400
3FE0
0000
0000
0000
0000
0000
ENDCHAR
STARTCHAR oe
ENCODING 339
SWIDTH 500 0
DWIDTH 12 0
BBX 12 24 0 -5
BITMAP
0000
0000
0000
0000
0000
0000
0000
0000
3F80
4440
8420
8420
8420
87E0
8400
8400
8400
4420
3FC0
0000
0000
0000
0000
0000
ENDCHAR
STARTCHAR Racute
ENCODING 340
SWIDTH 500 0
DWIDTH 12 0
BBX 12 24 0 -5
BITMAP
0100
0200
0400
0000
7F00
4080
4040
4040
4040
4040
4080
7F00
5000
4800
4400
4200
4100
4080
4040
0000
0000
0000
0000
0000
ENDCHAR
STARTCHAR racute
ENCODING 341
SWIDTH 500 0
DWIDTH 12 0
BBX 12 24 0 -5
BITMAP
0000
0000
0000
0000
0100
0200
0400
0000
47C0
4800
5000
6000
4000
4000
4000
4000
4000
4000
4000
0000
0000
0000
0000
0000
ENDCHAR
STARTCHAR Rcommaaccent
ENCODING 342
SWIDTH 500 0
DWIDTH 12 0
BBX 12 24 0 -5
BITMAP
0000
0000
0000
0000
7F00
4080
4040
4040
4040
4040
4080
7F00
5000
4800
4400
4200
4100
4080
4040
0000
0400
0400
0400
0800
ENDCHAR
STARTCHAR rcommaaccent
ENCODING 343
SWIDTH 500 0
DWIDTH 12 0
BBX 12 24 0 -5
BITMAP
0000
0000
0000
0000
0000
0000
0000
0000
47C0
4800
5000
6000
4000
4000
4000
4000
4000
4000
4000
0000
4000
4000
4000
8000
ENDCHAR
STARTCHAR Rcaron
ENCODING 344
SWIDTH 500 0
DWIDTH 12 0
BBX 12 24 0 -5
BITMAP
2080
1100
0E00
0000
7F00
4080
4040
4040
4040
4040
4080
7F00
5000
4800
4400
4200
4100
4080
4040
0000
0000
0000
0000
0000
ENDCHAR
STARTCHAR rcaron
ENCODING 345
SWIDTH 500 0
DWIDTH 12 0
BBX 12 24 0 -5
BITMAP
0000
0000
0000
0000
2080
1100
0E00
0000
47C0
4800
5000
6000
4000
4000
4000
4000
4000
4000
4000
0000
0000
0000
0000
0000
ENDCHAR
STARTCHAR Sacute
ENCODING 346
SWIDTH 500 0
DWIDTH 12 0
BBX 12 24 0 -5
BITMAP
0100
0200
0400
0000
1F00
2080
4040
4000
4000
4000
2000
1F00
0080
0040
0040
0040
4040
2080
1F00
0000
0000
0000
0000
0000
ENDCHAR
STARTCHAR sacute
ENCODING 347
SWIDTH 500 0
DWIDTH 12 0
BBX 12 24 0 -5
BITMAP
0000
0000
0000
0000
0100
0200
0400
0000
3F80
4040
4000
4000
4000
3F80
0040
0040
0040
4040
3F80
0000
0000
0000
0000
0000
ENDCHAR
STARTCHAR Scircumflex
ENCODING 348
SWIDTH 500 0
DWIDTH 12 0
BBX 12 24 0 -5
BITMAP
0E00
1100
2080
0000
1F00
2080
4040
4000
4000
4000
2000
1F00
0080
0040
0040
0040
4040
2080
1F00
0000
0000
0000
0000
0000
ENDCHAR
STARTCHAR scircumflex
ENCODING 349
SWIDTH 500 0
DWIDTH 12 0
BBX 12 24 0 -5
BITMAP
0000
0000
0000
0000
0E00
1100
2080
0000
3F80
4040
4000
4000
4000
3F80
0040
0040
0040
4040
3F80
0000
0000
0000
0000
0000
ENDCHAR
STARTCHAR Scedilla
ENCODING 350
SWIDTH 500 0
DWIDTH 12 0
BBX 12 24 0 -5
BITMAP
0000
0000
0000
0000
1F00
2080
4040
4000
4000
4000
2000
1F00
0080
0040
0040
0040
4040
2080
1F00
0400
0400
0400
0800
0000
ENDCHAR
STARTCHAR scedilla
ENCODING 351
SWIDTH 500 0
DWIDTH 12 0
BBX 12 24 0 -5
BITMAP
0000
0000
0000
0000
0000
0000
0000
0000
3F80
4040
4000
4000
4000
3F80
0040
0040
0040
4040
3F80
0400
0400
0400
0800
0000
ENDCHAR
STARTCHAR Scaron
ENCODING 352
SWIDTH 500 0
DWIDTH 12 0
BBX 12 24 0 -5
BITMAP
2080
1100
0E00
0000
1F00
2080
4040
4000
4000
4000
2000
1F00
0080
0040
0040
0040
4040
2080
1F00
0000
0000
0000
0000
0000
ENDCHAR
STARTCHAR scaron
ENCODING 353
SWIDTH 500 0
DWIDTH 12 0
BBX 12 24 0 -5
BITMAP
0000
0000
0000
0000
2080
1100
0E00
0000
3F80
4040
4000
4000
4000
3F80
0040
0040
0040
4040
3F80
0000
0000
0000
0000
0000
ENDCHAR
STARTCHAR Tcedilla
ENCODING 354
SWIDTH 500 0
DWIDTH 12 0
BBX 12 24 0 -5
BITMAP
0000
0000
0000
0000
7FC0
0400
0400
0400
0400
0400
0400
0400
0400
0400
0400
0400
0400
0400
0400
0200
0200
0200
0400
0000
ENDCHAR
STARTCHAR tcedilla
ENCODING 355
SWIDTH 500 0
DWIDTH 12 0
BBX 12 24 0 -5
BITMAP
0000
0000
0000
0000
0400
0400
0400
0400
3F80
0400
0400
0400
0400
0400
0400
0400
0400
0400
03C0
0100
0100
0100
0200
0000
ENDCHAR
STARTCHAR Tcaron
ENCODING 356
SWIDTH 500 0
DWIDTH 12 0
BBX 12 24 0 -5
BITMAP
2080
1100
0E00
0000
7FC0
0400
0400
0400
0400
0400
0400
0400
0400
0400
0400
0400
0400
0400
0400
0000
0000
0000
0000
0000
ENDCHAR
STARTCHAR tcaron
ENCODING 357
SWIDTH 500 0
DWIDTH 12 0
BBX 12 24 0 -5
BITMAP
2080
1100
0E00
0000
0400
0400
0400
0400
3F80
0400
0400
0400
0400
0400
0400
0400
0400
0400
03C0
0000
0000
0000
0000
0000
ENDCHAR
STARTCHAR Tbar
ENCODING 358
SWIDTH 500 0
DWIDTH 12 0
BBX 12 24 0 -5
BITMAP
0000
0000
0000
0000
7FC0
0400
0400
0400
0400
0400
3F80
0400
0400
0400
0400
0400
0400
0400
0400
0000
0000
0000
0000
0000
ENDCHAR
STARTCHAR tbar
ENCODING 359
SWIDTH 500 0
DWIDTH 12 0
BBX 12 24 0 -5
BITMAP
0000
0000
0000
0000
0400
0400
0400
0400
3F80
0400
0400
1F00
0400
0400
0400
0400
0400
0400
03C0
0000
0000
0000
0000
0000
ENDCHAR
STARTCHAR Utilde
ENCODING 360
SWIDTH 500 0
DWIDTH 12 0
BBX 12 24 0 -5
BITMAP
1880
2480
2300
0000
4040
4040
4040
4040
4040
4040
4040
4040
4040
4040
4040
4040
4040
2080
1F00
0000
0000
0000
0000
0000
ENDCHAR
STARTCHAR utilde
ENCODING 361
SWIDTH 500 0
DWIDTH 12 0
BBX 12 24 0 -5
BITMAP
0000
0000
0000
0000
1880
2480
2300
0000
4040
4040
4040
4040
4040
4040
4040
4040
4040
2040
1FC0
0000
0000
0000
0000
0000
ENDCHAR
STARTCHAR Umacron
ENCODING 362
SWIDTH 500 0
DWIDTH 12 0
BBX 12 24 0 -5
BITMAP
0000
3F80
0000
0000
4040
4040
4040
4040
4040
4040
4040
4040
4040
4040
4040
4040
4040
2080
1F00
0000
0000
0000
0000
0000
ENDCHAR
STARTCHAR umacron
ENCODING 363
SWIDTH 500 0
DWIDTH 12 0
BBX 12 24 0 -5
BITMAP
0000
0000
0000
0000
0000
3F80
0000
0000
4040
4040
4040
4040
4040
4040
4040
4040
4040
2040
1FC0
0000
0000
0000
0000
0000
ENDCHAR
STARTCHAR Ubreve
ENCODING 364
SWIDTH 500 0
DWIDTH 12 0
BBX 12 24 0 -5
BITMAP
2080
2080
1F00
0000
4040
4040
4040
4040
4040
4040
4040
4040
4040
4040
4040
4040
4040
2080
1F00
0000
0000
0000
0000
0000
ENDCHAR
STARTCHAR ubreve
ENCODING 365
SWIDTH 500 0
DWIDTH 12 0
BBX 12 24 0 -5
BITMAP
0000
0000
0000
0000
2080
2080
1F00
0000
4040
4040
4040
4040
4040
4040
4040
4040
4040
2040
1FC0
0000
0000
0000
0000
0000
ENDCHAR
STARTCHAR Uring
ENCODING 366
SWIDTH 500 0
DWIDTH 12 0
BBX 12 24 0 -5
BITMAP
0E00
1100
1100
0E00
4040
4040
4040
4040
4040
4040
4040
4040
4040
4040
4040
4040
4040
2080
1F00
0000
0000
0000
0000
0000
ENDCHAR
STARTCHAR uring
ENCODING 367
SWIDTH 500 0
DWIDTH 12 0
BBX 12 24 0 -5
BITMAP
0000
0000
0000
0000
0E00
1100
1100
0E00
4040
4040
4040
4040
4040
4040
4040
4040
4040
2040
1FC0
0000
0000
0000
0000
0000
ENDCHAR
STARTCHAR Uhungarumlaut
ENCODING 368
SWIDTH 500 0
DWIDTH 12 0
BBX 12 24 0 -5
BITMAP
0440
0880
1100
0000
4040
4040
4040
4040
4040
4040
4040
4040
4040
4040
4040
4040
4040
2080
1F00
0000
0000
0000
0000
0000
ENDCHAR
STARTCHAR uhungarumlaut
ENCODING 369
SWIDTH 500 0
DWIDTH 12 0
BBX 12 24 0 -5
BITMAP
0000
0000
0000
0000
0440
0880
1100
0000
4040
4040
4040
4040
4040
4040
4040
4040
4040
2040
1FC0
0000
0000
0000
0000
0000
ENDCHAR
STARTCHAR Uogonek
ENCODING 370
SWIDTH 500 0
DWIDTH 12 0
BBX 12 24 0 -5
BITMAP
0000
0000
0000
0000
4040
4040
4040
4040
4040
4040
4040
4040
4040
4040
4040
4040
4040
2080
1F00
0600
0800
0800
0700
0000
ENDCHAR
STARTCHAR uogonek
ENCODING 371
SWIDTH 500 0
DWIDTH 12 0
BBX 12 24 0 -5
BITMAP
0000
0000
0000
0000
0000
0000
0000
0000
4040
4040
4040
4040
4040
4040
4040
4040
4040
2040
1FC0
00C0
0100
0100
00E0
0000
ENDCHAR
STARTCHAR Wcircumflex
ENCODING 372
SWIDTH 500 0
DWIDTH 12 0
BBX 12 24 0 -5
BITMAP
0E00
1100
2080
0000
4020
4020
4020
4020
4020
4020
4020
4020
4020
4020
4620
4920
50A0
6060
4020
0000
0000
0000
0000
0000
ENDCHAR
STARTCHAR wcircumflex
ENCODING 373
SWIDTH 500 0
DWIDTH 12 0
BBX 12 24 0 -5
BITMAP
0000
0000
0000
0000
0E00
1100
2080
0000
4040
4040
4040
4040
4440
4440
4440
4440
4440
4440
3B80
0000
0000
0000
0000
0000
ENDCHAR
STARTCHAR Ydieresis
ENCODING 376
SWIDTH 500 0
DWIDTH 12 0
BBX 12 24 0 -5
BITMAP
1100
1100
1100
0000
4040
4040
2080
2080
1100
1100
0A00
0400
0400
0400
0400
0400
0400
0400
0400
0000
0000
0000
0000
0000
ENDCHAR
STARTCHAR Zacute
ENCODING 377
SWIDTH 500 0
DWIDTH 12 0
BBX 12 24 0 -5
BITMAP
0100
0200
0400
0000
7FC0
0040
0040
0040
0080
0100
0200
0400
0800
1000
2000
4000
4000
4000
7FC0
0000
0000
0000
0000
0000
ENDCHAR
STARTCHAR zacute
ENCODING 378
SWIDTH 500 0
DWIDTH 12 0
BBX 12 24 0 -5
BITMAP
0000
0000
0000
0000
0100
0200
0400
0000
7FC0
0040
0080
0100
0200
0400
0800
1000
2000
4000
7FC0
0000
0000
0000
0000
0000
ENDCHAR
STARTCHAR Zdotaccent
ENCODING 379
SWIDTH 500 0
DWIDTH 12 0
BBX 12 24 0 -5
BITMAP
0400
0400
0400
0000
7FC0
0040
0040
0040
0080
0100
0200
0400
0800
1000
2000
4000
4000
4000
7FC0
0000
0000
0000
0000
0000
ENDCHAR
STARTCHAR zdotaccent
ENCODING 380
SWIDTH 500 0
DWIDTH 12 0
BBX 12 24 0 -5
BITMAP
0000
0000
0000
0000
0400
0400
0400
0000
7FC0
0040
0080
0100
0200
0400
0800
1000
2000
4000
7FC0
0000
0000
0000
0000
0000
ENDCHAR
STARTCHAR Zcaron
ENCODING 381
SWIDTH 500 0
DWIDTH 12 0
BBX 12 24 0 -5
BITMAP
2080
1100
0E00
0000
7FC0
0040
0040
0040
0080
0100
0200
0400
0800
1000
2000
4000
4000
4000
7FC0
0000
0000
0000
0000
0000
ENDCHAR
STARTCHAR zcaron
ENCODING 382
SWIDTH 500 0
DWIDTH 12 0
BBX 12 24 0 -5
BITMAP
0000
0000
0000
0000
2080
1100
0E00
0000
7FC0
0040
0080
0100
0200
0400
0800
1000
2000
4000
7FC0
0000
0000
0000
0000
0000
ENDCHAR
STARTCHAR Schwa
ENCODING 399
SWIDTH 500 0
DWIDTH 12 0
BBX 12 24 0 -5
BITMAP
0000
0000
0000
0000
1F00
2080
4040
0040
0040
0040
0040
7FC0
4040
4040
4040
4040
4040
2080
1F00
0000
0000
0000
0000
0000
ENDCHAR
STARTCHAR florin
ENCODING 402
SWIDTH 500 0
DWIDTH 12 0
BBX 12 24 0 -5
BITMAP
0000
0000
0000
0000
0380
0440
0440
0400
0400
0400
3F80
0400
0400
0400
0400
0400
0400
0400
0400
0400
4400
4400
3800
0000
ENDCHAR
STARTCHAR Ohorn
ENCODING 416
SWIDTH 500 0
DWIDTH 12 0
BBX 11 16 1 0
BITMAP
0020
3E20
4120
80A0
80C0
8080
8080
8080
8080
8080
8080
8080
8080
8080
4100
3E00
ENDCHAR
STARTCHAR ohorn
ENCODING 417
SWIDTH 500 0
DWIDTH 12 0
BBX 11 12 1 0
BITMAP
0020
3E20
4120
80A0
80C0
8080
8080
8080
8080
8080
4100
3E00
ENDCHAR
STARTCHAR Uhorn
ENCODING 431
SWIDTH 500 0
DWIDTH 12 0
BBX 11 16 1 0
BITMAP
0020
80A0
80C0
8080
8080
8080
8080
8080
8080
8080
8080
8080
8080
8080
4100
3E00
ENDCHAR
STARTCHAR uhorn
ENCODING 432
SWIDTH 500 0
DWIDTH 12 0
BBX 11 12 1 0
BITMAP
0020
80A0
80C0
8080
8080
8080
8080
8080
8080
8080
4080
3F80
ENDCHAR
STARTCHAR Ezh
ENCODING 439
SWIDTH 500 0
DWIDTH 12 0
BBX 12 24 0 -5
BITMAP
0000
0000
0000
0000
7FC0
0040
0080
0100
0200
0400
0F00
0080
0040
0040
0040
0040
4040
2080
1F00
0000
0000
0000
0000
0000
ENDCHAR
STARTCHAR Scommaaccent
ENCODING 536
SWIDTH 500 0
DWIDTH 12 0
BBX 12 24 0 -5
BITMAP
0000
0000
0000
0000
1F00
2080
4040
4000
4000
4000
2000
1F00
0080
0040
0040
0040
4040
2080
1F00
0000
0400
0400
0400
0800
ENDCHAR
STARTCHAR scommaaccent
ENCODING 537
SWIDTH 500 0
DWIDTH 12 0
BBX 12 24 0 -5
BITMAP
0000
0000
0000
0000
0000
0000
0000
0000
3F80
4040
4000
4000
4000
3F80
0040
0040
0040
4040
3F80
0000
0400
0400
0400
0800
ENDCHAR
STARTCHAR Tcommaaccent
ENCODING 538
SWIDTH 500 0
DWIDTH 12 0
BBX 12 24 0 -5
BITMAP
0000
0000
0000
0000
7FC0
0400
0400
0400
0400
0400
0400
0400
0400
0400
0400
0400
0400
0400
0400
0000
0400
0400
0400
0800
ENDCHAR
STARTCHAR tcommaaccent
ENCODING 539
SWIDTH 500 0
DWIDTH 12 0
BBX 12 24 0 -5
BITMAP
0000
0000
0000
0000
0400
0400
0400
0400
3F80
0400
0400
0400
0400
0400
0400
0400
0400
0400
03C0
0000
0100
0100
0100
0200
ENDCHAR
STARTCHAR uni0232
ENCODING 562
SWIDTH 500 0
DWIDTH 12 0
BBX 12 24 0 -5
BITMAP
0000
3F80
0000
0000
4040
4040
2080
2080
1100
1100
0A00
0400
0400
0400
0400
0400
0400
0400
0400
0000
0000
0000
0000
0000
ENDCHAR
STARTCHAR uni0233
ENCODING 563
SWIDTH 500 0
DWIDTH 12 0
BBX 12 24 0 -5
BITMAP
0000
0000
0000
0000
0000
3F80
0000
0000
4040
4040
4040
4040
4040
4040
4040
4040
4040
20C0
1F40
0040
0040
0080
3F00
0000
ENDCHAR
STARTCHAR uni0237
ENCODING 567
SWIDTH 500 0
DWIDTH 12 0
BBX 12 24 0 -5
BITMAP
0000
0000
0000
0000
0000
0000
0000
0000
0380
0080
0080
0080
0080
0080
0080
0080
0080
0080
0080
2080
2080
1100
0E00
0000
ENDCHAR
STARTCHAR schwa
ENCODING 601
SWIDTH 500 0
DWIDTH 12 0
BBX 12 24 0 -5
BITMAP
0000
0000
0000
0000
0000
0000
0000
0000
3F00
4080
0040
0040
0040
7FC0
4040
4040
4040
2080
1F00
0000
0000
0000
0000
0000
ENDCHAR
STARTCHAR ezh
ENCODING 658
SWIDTH 500 0
DWIDTH 12 0
BBX 12 24 0 -5
BITMAP
0000
0000
0000
0000
0000
0000
0000
0000
7FC0
0040
0080
0100
0200
0400
0F00
0080
0040
0040
0040
0040
4040
2080
1F00
0000
ENDCHAR
STARTCHAR commaturnedmod
ENCODING 699
SWIDTH 500 0
DWIDTH 12 0
BBX 12 24 0 -5
BITMAP
0200
0400
0400
0400
0000
0000
0000
0000
0000
0000
0000
0000
0000
0000
0000
0000
0000
0000
0000
0000
0000
0000
0000
0000
ENDCHAR
STARTCHAR circumflex
ENCODING 710
SWIDTH 500 0
DWIDTH 12 0
BBX 12 24 0 -5
BITMAP
0E00
1100
2080
0000
0000
0000
0000
0000
0000
0000
0000
0000
0000
0000
0000
0000
0000
0000
0000
0000
0000
0000
0000
0000
ENDCHAR
STARTCHAR caron
ENCODING 711
SWIDTH 500 0
DWIDTH 12 0
BBX 12 24 0 -5
BITMAP
2080
1100
0E00
0000
0000
0000
0000
0000
0000
0000
0000
0000
0000
0000
0000
0000
0000
0000
0000
0000
0000
0000
0000
0000
ENDCHAR
STARTCHAR breve
ENCODING 728
SWIDTH 500 0
DWIDTH 12 0
BBX 12 24 0 -5
BITMAP
2080
2080
1F00
0000
0000
0000
0000
0000
0000
0000
0000
0000
0000
0000
0000
0000
0000
0000
0000
0000
0000
0000
0000
0000
ENDCHAR
STARTCHAR dotaccent
ENCODING 729
SWIDTH 500 0
DWIDTH 12 0
BBX 12 24 0 -5
BITMAP
0400
0400
0400
0000
0000
0000
0000
0000
0000
0000
0000
0000
0000
0000
0000
0000
0000
0000
0000
0000
0000
0000
0000
0000
ENDCHAR
STARTCHAR ogonek
ENCODING 731
SWIDTH 500 0
DWIDTH 12 0
BBX 12 24 0 -5
BITMAP
0000
0000
0000
0000
0000
0000
0000
0000
0000
0000
0000
0000
0000
0000
0000
0000
0000
0000
0000
00C0
0100
0100
00E0
0000
ENDCHAR
STARTCHAR tilde
ENCODING 732
SWIDTH 500 0
DWIDTH 12 0
BBX 12 24 0 -5
BITMAP
1880
2480
2300
0000
0000
0000
0000
0000
0000
0000
0000
0000
0000
0000
0000
0000
0000
0000
0000
0000
0000
0000
0000
0000
ENDCHAR
STARTCHAR hungarumlaut
ENCODING 733
SWIDTH 500 0
DWIDTH 12 0
BBX 12 24 0 -5
BITMAP
0440
0880
1100
0000
0000
0000
0000
0000
0000
0000
0000
0000
0000
0000
0000
0000
0000
0000
0000
0000
0000
0000
0000
0000
ENDCHAR
STARTCHAR gravecmb
ENCODING 768
SWIDTH 500 0
DWIDTH 12 0
BBX 12 24 0 -5
BITMAP
1000
0800
0400
0000
0000
0000
0000
0000
0000
0000
0000
0000
0000
0000
0000
0000
0000
0000
0000
0000
0000
0000
0000
0000
ENDCHAR
STARTCHAR acutecmb
ENCODING 769
SWIDTH 500 0
DWIDTH 12 0
BBX 12 24 0 -5
BITMAP
0100
0200
0400
0000
0000
0000
0000
0000
0000
0000
0000
0000
0000
0000
0000
0000
0000
0000
0000
0000
0000
0000
0000
0000
ENDCHAR
STARTCHAR Gamma
ENCODING 915
SWIDTH 500 0
DWIDTH 12 0
BBX 12 24 0 -5
BITMAP
0000
0000
0000
0000
7FC0
4040
4040
4040
4000
4000
4000
4000
4000
4000
4000
4000
4000
4000
4000
0000
0000
0000
0000
0000
ENDCHAR
STARTCHAR Deltagreek
ENCODING 916
SWIDTH 500 0
DWIDTH 12 0
BBX 12 24 0 -5
BITMAP
0000
0000
0000
0000
0400
0400
0400
0A00
0A00
0A00
1100
1100
1100
2080
2080
2080
4040
4040
7FC0
0000
0000
0000
0000
0000
ENDCHAR
STARTCHAR Theta
ENCODING 920
SWIDTH 500 0
DWIDTH 12 0
BBX 12 24 0 -5
BITMAP
0000
0000
0000
0000
0F00
1080
2040
2040
2040
2040
2040
3FC0
2040
2040
2040
2040
2040
1080
0F00
0000
0000
0000
0000
0000
ENDCHAR
STARTCHAR Sigma
ENCODING 931
SWIDTH 500 0
DWIDTH 12 0
BBX 12 24 0 -5
BITMAP
0000
0000
0000
0000
7FC0
2000
1000
0800
0400
0200
0100
0080
0100
0200
0400
0800
1000
2000
7FC0
0000
0000
0000
0000
0000
ENDCHAR
STARTCHAR Phi
ENCODING 934
SWIDTH 500 0
DWIDTH 12 0
BBX 12 24 0 -5
BITMAP
0000
0000
0000
0000
3F80
0400
1F00
2480
4440
4440
4440
4440
4440
4440
4440
2480
1F00
0400
3F80
0000
0000
0000
0000
0000
ENDCHAR
STARTCHAR Omegagreek
ENCODING 937
SWIDTH 500 0
DWIDTH 12 0
BBX 12 24 0 -5
BITMAP
0000
0000
0000
0000
1F00
2080
4040
4040
4040
4040
4040
2080
1100
1100
1100
1100
1100
1100
71C0
0000
0000
0000
0000
0000
ENDCHAR
STARTCHAR alpha
ENCODING 945
SWIDTH 500 0
DWIDTH 12 0
BBX 12 24 0 -5
BITMAP
0000
0000
0000
0000
0000
0000
0000
0000
1E60
21C0
4080
4080
4080
4080
4080
4080
4080
21C0
1E60
0000
0000
0000
0000
0000
ENDCHAR
STARTCHAR beta
ENCODING 946
SWIDTH 500 0
DWIDTH 12 0
BBX 12 24 0 -5
BITMAP
0000
0000
0000
0000
0000
3E00
4100
4080
4080
4080
4100
7F00
4080
4040
4040
4040
4040
4080
7F00
4000
4000
4000
4000
0000
ENDCHAR
STARTCHAR delta
ENCODING 948
SWIDTH 500 0
DWIDTH 12 0
BBX 12 24 0 -5
BITMAP
0000
0000
0000
0000
1F80
0800
0400
0200
1F00
2080
4040
4040
4040
4040
4040
4040
4040
2080
1F00
0000
0000
0000
0000
0000
ENDCHAR
STARTCHAR mugreek
ENCODING 956
SWIDTH 500 0
DWIDTH 12 0
BBX 12 24 0 -5
BITMAP
0000
0000
0000
0000
0000
0000
0000
0000
4040
4040
4040
4040
4040
4040
4040
4040
40C0
4140
7E40
4000
4000
4000
4000
0000
ENDCHAR
STARTCHAR pi
ENCODING 960
SWIDTH 500 0
DWIDTH 12 0
BBX 12 24 0 -5
BITMAP
0000
0000
0000
0000
0000
0000
0000
0000
7FE0
2040
2040
2040
2040
2040
2040
2040
2040
2040
2040
0000
0000
0000
0000
0000
ENDCHAR
STARTCHAR sigma
ENCODING 963
SWIDTH 500 0
DWIDTH 12 0
BBX 12 24 0 -5
BITMAP
0000
0000
0000
0000
0000
0000
0000
0000
1FE0
2100
4080
4040
4040
4040
4040
4040
4040
2080
1F00
0000
0000
0000
0000
0000
ENDCHAR
STARTCHAR tau
ENCODING 964
SWIDTH 500 0
DWIDTH 12 0
BBX 12 24 0 -5
BITMAP
0000
0000
0000
0000
0000
0000
0000
0000
0040
0080
3900
4600
0400
0400
0400
0400
0400
0400
0400
0000
0000
0000
0000
0000
ENDCHAR
STARTCHAR uni0400
ENCODING 1024
SWIDTH 500 0
DWIDTH 12 0
BBX 12 24 0 -5
BITMAP
1000
0800
0400
0000
7FC0
4000
4000
4000
4000
4000
4000
7F00
4000
4000
4000
4000
4000
4000
7FC0
0000
0000
0000
0000
0000
ENDCHAR
STARTCHAR Iocyrillic
ENCODING 1025
SWIDTH 500 0
DWIDTH 12 0
BBX 12 24 0 -5
BITMAP
1100
1100
1100
0000
7FC0
4000
4000
4000
4000
4000
4000
7F00
4000
4000
4000
4000
4000
4000
7FC0
0000
0000
0000
0000
0000
ENDCHAR
STARTCHAR Djecyrillic
ENCODING 1026
SWIDTH 500 0
DWIDTH 12 0
BBX 12 24 0 -5
BITMAP
0000
0000
0000
0000
F800
2000
2000
2000
2000
3F80
2040
2040
2040
2040
2040
2040
2040
2040
2040
0040
0080
0100
0000
0000
ENDCHAR
STARTCHAR Gjecyrillic
ENCODING 1027
SWIDTH 500 0
DWIDTH 12 0
BBX 12 24 0 -5
BITMAP
0100
0200
0400
0000
7FC0
4000
4000
4000
4000
4000
4000
4000
4000
4000
4000
4000
4000
4000
4000
0000
0000
0000
0000
0000
ENDCHAR
STARTCHAR Ecyrillic
ENCODING 1028
SWIDTH 500 0
DWIDTH 12 0
BBX 12 24 0 -5
BITMAP
0000
0000
0000
0000
1F00
2080
4040
4000
4000
4000
4000
7E00
4000
4000
4000
4000
4040
2080
1F00
0000
0000
0000
0000
0000
ENDCHAR
STARTCHAR Dzecyrillic
ENCODING 1029
SWIDTH 500 0
DWIDTH 12 0
BBX 12 24 0 -5
BITMAP
0000
0000
0000
0000
1F00
2080
4040
4000
4000
4000
2000
1F00
0080
0040
0040
0040
4040
2080
1F00
0000
0000
0000
0000
0000
ENDCHAR
STARTCHAR Icyrillic
ENCODING 1030
SWIDTH 500 0
DWIDTH 12 0
BBX 12 24 0 -5
BITMAP
0000
0000
0000
0000
1F00
0400
0400
0400
0400
0400
0400
0400
0400
0400
0400
0400
0400
0400
1F00
0000
0000
0000
0000
0000
ENDCHAR
STARTCHAR Yicyrillic
ENCODING 1031
SWIDTH 500 0
DWIDTH 12 0
BBX 12 24 0 -5
BITMAP
1100
1100
1100
0000
1F00
0400
0400
0400
0400
0400
0400
0400
0400
0400
0400
0400
0400
0400
1F00
0000
0000
0000
0000
0000
ENDCHAR
STARTCHAR Jecyrillic
ENCODING 1032
SWIDTH 500 0
DWIDTH 12 0
BBX 12 24 0 -5
BITMAP
0000
0000
0000
0000
03E0
0080
0080
0080
0080
0080
0080
0080
0080
0080
4080
4080
4080
2100
1E00
0000
0000
0000
0000
0000
ENDCHAR
STARTCHAR Ljecyrillic
ENCODING 1033
SWIDTH 500 0
DWIDTH 12 0
BBX 12 24 0 -5
BITMAP
0000
0000
0000
0000
3C00
4400
8400
8400
8400
8400
8780
8440
8420
8420
8420
8420
8420
8440
8780
0000
0000
0000
0000
0000
ENDCHAR
STARTCHAR Njecyrillic
ENCODING 1034
SWIDTH 500 0
DWIDTH 12 0
BBX 12 24 0 -5
BITMAP
0000
0000
0000
0000
8400
8400
8400
8400
8400
8400
8780
FC40
8420
8420
8420
8420
8420
8440
8780
0000
0000
0000
0000
0000
ENDCHAR
STARTCHAR Tshecyrillic
ENCODING 1035
SWIDTH 500 0
DWIDTH 12 0
BBX 12 24 0 -5
BITMAP
0000
0000
0000
0000
F800
2000
2000
2000
2000
3F80
2040
2040
2040
2040
2040
2040
2040
2040
2040
0000
0000
0000
0000
0000
ENDCHAR
STARTCHAR Kjecyrillic
ENCODING 1036
SWIDTH 500 0
DWIDTH 12 0
BBX 12 24 0 -5
BITMAP
0100
0200
0400
0000
4040
4080
4100
4200
4400
4800
5000
6000
5000
4800
4400
4200
4100
4080
4040
0000
0000
0000
0000
0000
ENDCHAR
STARTCHAR uni040D
ENCODING 1037
SWIDTH 500 0
DWIDTH 12 0
BBX 12 24 0 -5
BITMAP
1000
0800
0400
0000
4040
4040
4040
4040
40C0
4140
4240
4440
4840
5040
6040
4040
4040
4040
4040
0000
0000
0000
0000
0000
ENDCHAR
STARTCHAR Ushortcyrillic
ENCODING 1038
SWIDTH 500 0
DWIDTH 12 0
BBX 12 24 0 -5
BITMAP
2080
2080
1F00
0000
4040
4040
4040
4040
4040
4040
4040
2040
1FC0
0040
0040
0040
0040
0080
3F00
0000
0000
0000
0000
0000
ENDCHAR
STARTCHAR Dzhecyrillic
ENCODING 1039
SWIDTH 500 0
DWIDTH 12 0
BBX 12 24 0 -5
BITMAP
0000
0000
0000
0000
4040
4040
4040
4040
4040
4040
4040
4040
4040
4040
4040
4040
4040
4040
7FC0
0400
0400
0400
0000
0000
ENDCHAR
STARTCHAR Acyrillic
ENCODING 1040
SWIDTH 500 0
DWIDTH 12 0
BBX 12 24 0 -5
BITMAP
0000
0000
0000
0000
1F00
2080
4040
4040
4040
4040
4040
4040
7FC0
4040
4040
4040
4040
4040
4040
0000
0000
0000
0000
0000
ENDCHAR
STARTCHAR Becyrillic
ENCODING 1041
SWIDTH 500 0
DWIDTH 12 0
BBX 12 24 0 -5
BITMAP
0000
0000
0000
0000
7F80
4000
4000
4000
4000
4000
7F00
4080
4040
4040
4040
4040
4040
4080
7F00
0000
0000
0000
0000
0000
ENDCHAR
STARTCHAR Vecyrillic
ENCODING 1042
SWIDTH 500 0
DWIDTH 12 0
BBX 12 24 0 -5
BITMAP
0000
0000
0000
0000
7F00
4080
4040
4040
4040
4080
7F00
4080
4040
4040
4040
4040
4040
4080
7F00
0000
0000
0000
0000
0000
ENDCHAR
STARTCHAR Gecyrillic
ENCODING 1043
SWIDTH 500 0
DWIDTH 12 0
BBX 12 24 0 -5
BITMAP
0000
0000
0000
0000
7FC0
4000
4000
4000
4000
4000
4000
4000
4000
4000
4000
4000
4000
4000
4000
0000
0000
0000
0000
0000
ENDCHAR
STARTCHAR Decyrillic
ENCODING 1044
SWIDTH 500 0
DWIDTH 12 0
BBX 12 24 0 -5
BITMAP
0000
0000
0000
0000
07C0
0840
1040
1040
1040
1040
1040
1040
1040
1040
1040
1040
1040
2040
7FE0
4020
4020
4020
0000
0000
ENDCHAR
STARTCHAR Iecyrillic
ENCODING 1045
SWIDTH 500 0
DWIDTH 12 0
BBX 12 24 0 -5
BITMAP
0000
0000
0000
0000
7FC0
4000
4000
4000
4000
4000
4000
7F00
4000
4000
4000
4000
4000
4000
7FC0
0000
0000
0000
0000
0000
ENDCHAR
STARTCHAR Zhecyrillic
ENCODING 1046
SWIDTH 500 0
DWIDTH 12 0
BBX 12 24 0 -5
BITMAP
0000
0000
0000
0000
4440
4440
4440
4440
4440
2480
1500
0E00
1500
2480
4440
4440
4440
4440
4440
0000
0000
0000
0000
0000
ENDCHAR
STARTCHAR Zecyrillic
ENCODING 1047
SWIDTH 500 0
DWIDTH 12 0
BBX 12 24 0 -5
BITMAP
0000
0000
0000
0000
1F00
2080
4040
0040
0040
0040
0080
0F00
0080
0040
0040
0040
4040
2080
1F00
0000
0000
0000
0000
0000
ENDCHAR
STARTCHAR Iicyrillic
ENCODING 1048
SWIDTH 500 0
DWIDTH 12 0
BBX 12 24 0 -5
BITMAP
0000
0000
0000
0000
4040
4040
4040
4040
40C0
4140
4240
4440
4840
5040
6040
4040
4040
4040
4040
0000
0000
0000
0000
0000
ENDCHAR
STARTCHAR afii10027
ENCODING 1049
SWIDTH 500 0
DWIDTH 12 0
BBX 12 24 0 -5
BITMAP
2080
2080
1F00
0000
4040
4040
4040
4040
40C0
4140
4240
4440
4840
5040
6040
4040
4040
4040
4040
0000
0000
0000
0000
0000
ENDCHAR
STARTCHAR Kacyrillic
ENCODING 1050
SWIDTH 500 0
DWIDTH 12 0
BBX 12 24 0 -5
BITMAP
0000
0000
0000
0000
4040
4080
4100
4200
4400
4800
5000
6000
5000
4800
4400
4200
4100
4080
4040
0000
0000
0000
0000
0000
ENDCHAR
STARTCHAR Elcyrillic
ENCODING 1051
SWIDTH 500 0
DWIDTH 12 0
BBX 12 24 0 -5
BITMAP
0000
0000
0000
0000
0FC0
1040
2040
2040
2040
2040
2040
2040
2040
2040
2040
2040
2040
4040
8040
0000
0000
0000
0000
0000
ENDCHAR
STARTCHAR Emcyrillic
ENCODING 1052
SWIDTH 500 0
DWIDTH 12 0
BBX 12 24 0 -5
BITMAP
0000
0000
0000
0000
4020
6060
50A0
4920
4620
4020
4020
4020
4020
4020
4020
4020
4020
4020
4020
0000
0000
0000
0000
0000
ENDCHAR
STARTCHAR Encyrillic
ENCODING 1053
SWIDTH 500 0
DWIDTH 12 0
BBX 12 24 0 -5
BITMAP
0000
0000
0000
0000
4040
4040
4040
4040
4040
4040
4040
7FC0
4040
4040
4040
4040
4040
4040
4040
0000
0000
0000
0000
0000
ENDCHAR
STARTCHAR Ocyrillic
ENCODING 1054
SWIDTH 500 0
DWIDTH 12 0
BBX 12 24 0 -5
BITMAP
0000
0000
0000
0000
1F00
2080
4040
4040
4040
4040
4040
4040
4040
4040
4040
4040
4040
2080
1F00
0000
0000
0000
0000
0000
ENDCHAR
STARTCHAR Pecyrillic
ENCODING 1055
SWIDTH 500 0
DWIDTH 12 0
BBX 12 24 0 -5
BITMAP
0000
0000
0000
0000
7FC0
4040
4040
4040
4040
4040
4040
4040
4040
4040
4040
4040
4040
4040
4040
0000
0000
0000
0000
0000
ENDCHAR
STARTCHAR Ercyrillic
ENCODING 1056
SWIDTH 500 0
DWIDTH 12 0
BBX 12 24 0 -5
BITMAP
0000
0000
0000
0000
7F00
4080
4040
4040
4040
4040
4080
7F00
4000
4000
4000
4000
4000
4000
4000
0000
0000
0000
0000
0000
ENDCHAR
STARTCHAR Escyrillic
ENCODING 1057
SWIDTH 500 0
DWIDTH 12 0
BBX 12 24 0 -5
BITMAP
0000
0000
0000
0000
1F00
2080
4040
4040
4000
4000
4000
4000
4000
4000
4000
4040
4040
2080
1F00
0000
0000
0000
0000
0000
ENDCHAR
STARTCHAR Tecyrillic
ENCODING 1058
SWIDTH 500 0
DWIDTH 12 0
BBX 12 24 0 -5
BITMAP
0000
0000
0000
0000
7FC0
0400
0400
0400
0400
0400
0400
0400
0400
0400
0400
0400
0400
0400
0400
0000
0000
0000
0000
0000
ENDCHAR
STARTCHAR Ucyrillic
ENCODING 1059
SWIDTH 500 0
DWIDTH 12 0
BBX 12 24 0 -5
BITMAP
0000
0000
0000
0000
4040
4040
4040
4040
4040
4040
4040
2040
1FC0
0040
0040
0040
0040
0080
3F00
0000
0000
0000
0000
0000
ENDCHAR
STARTCHAR Efcyrillic
ENCODING 1060
SWIDTH 500 0
DWIDTH 12 0
BBX 12 24 0 -5
BITMAP
0000
0000
0000
0400
1F00
2480
4440
4440
4440
4440
4440
4440
4440
4440
4440
4440
4440
2480
1F00
0400
0000
0000
0000
0000
ENDCHAR
STARTCHAR Khacyrillic
ENCODING 1061
SWIDTH 500 0
DWIDTH 12 0
BBX 12 24 0 -5
BITMAP
0000
0000
0000
0000
4040
4040
2080
2080
1100
1100
0A00
0400
0A00
1100
1100
2080
2080
4040
4040
0000
0000
0000
0000
0000
ENDCHAR
STARTCHAR Tsecyrillic
ENCODING 1062
SWIDTH 500 0
DWIDTH 12 0
BBX 12 24 0 -5
BITMAP
0000
0000
0000
0000
4040
4040
4040
4040
4040
4040
4040
4040
4040
4040
4040
4040
4040
2040
1FE0
0020
0020
0020
0000
0000
ENDCHAR
STARTCHAR Checyrillic
ENCODING 1063
SWIDTH 500 0
DWIDTH 12 0
BBX 12 24 0 -5
BITMAP
0000
0000
0000
0000
4040
4040
4040
4040
4040
4040
2040
1FC0
0040
0040
0040
0040
0040
0040
0040
0000
0000
0000
0000
0000
ENDCHAR
STARTCHAR Shacyrillic
ENCODING 1064
SWIDTH 500 0
DWIDTH 12 0
BBX 12 24 0 -5
BITMAP
0000
0000
0000
0000
4440
4440
4440
4440
4440
4440
4440
4440
4440
4440
4440
4440
4440
2440
1FC0
0000
0000
0000
0000
0000
ENDCHAR
STARTCHAR Shchacyrillic
ENCODING 1065
SWIDTH 500 0
DWIDTH 12 0
BBX 12 24 0 -5
BITMAP
0000
0000
0000
0000
4440
4440
4440
4440
4440
4440
4440
4440
4440
4440
4440
4440
4440
2440
1FE0
0020
0020
0020
0000
0000
ENDCHAR
STARTCHAR afii10044
ENCODING 1066
SWIDTH 500 0
DWIDTH 12 0
BBX 12 24 0 -5
BITMAP
0000
0000
0000
0000
C000
C000
4000
4000
4000
7F00
4080
4040
4040
4040
4040
4040
4040
4080
7F00
0000
0000
0000
0000
0000
ENDCHAR
STARTCHAR Yericyrillic
ENCODING 1067
SWIDTH 500 0
DWIDTH 12 0
BBX 12 24 0 -5
BITMAP
0000
0000
0000
0000
4020
4020
4020
4020
4020
7C20
4220
4120
4120
4120
4120
4120
4120
4220
7C20
0000
0000
0000
0000
0000
ENDCHAR
STARTCHAR afii10046
ENCODING 1068
SWIDTH 500 0
DWIDTH 12 0
BBX 12 24 0 -5
BITMAP
0000
0000
0000
0000
4000
4000
4000
4000
4000
7F00
4080
4040
4040
4040
4040
4040
4040
4080
7F00
0000
0000
0000
0000
0000
ENDCHAR
STARTCHAR afii10047
ENCODING 1069
SWIDTH 500 0
DWIDTH 12 0
BBX 12 24 0 -5
BITMAP
0000
0000
0000
0000
1F00
2080
4040
0040
0040
0040
0040
0FC0
0040
0040
0040
0040
4040
2080
1F00
0000
0000
0000
0000
0000
ENDCHAR
STARTCHAR IUcyrillic
ENCODING 1070
SWIDTH 500 0
DWIDTH 12 0
BBX 12 24 0 -5
BITMAP
0000
0000
0000
0000
43C0
4420
4420
4420
4420
4420
4420
7C20
4420
4420
4420
4420
4420
4420
43C0
0000
0000
0000
0000
0000
ENDCHAR
STARTCHAR IAcyrillic
ENCODING 1071
SWIDTH 500 0
DWIDTH 12 0
BBX 12 24 0 -5
BITMAP
0000
0000
0000
0000
1FC0
2040
4040
4040
4040
4040
2040
1FC0
0140
0240
0440
0840
1040
2040
4040
0000
0000
0000
0000
0000
ENDCHAR
STARTCHAR acyrillic
ENCODING 1072
SWIDTH 500 0
DWIDTH 12 0
BBX 12 24 0 -5
BITMAP
0000
0000
0000
0000
0000
0000
0000
0000
3F00
0080
0040
0040
1FC0
2040
4040
4040
4040
2040
1FC0
0000
0000
0000
0000
0000
ENDCHAR
STARTCHAR becyrillic
ENCODING 1073
SWIDTH 500 0
DWIDTH 12 0
BBX 12 24 0 -5
BITMAP
0000
0000
0000
0000
1F80
2000
4000
4000
4000
7F00
4080
4040
4040
4040
4040
4040
4040
4080
7F00
0000
0000
0000
0000
0000
ENDCHAR
STARTCHAR vecyrillic
ENCODING 1074
SWIDTH 500 0
DWIDTH 12 0
BBX 12 24 0 -5
BITMAP
0000
0000
0000
0000
3E00
4100
4080
4080
4080
4100
7F00
4080
4040
4040
4040
4040
4040
4080
7F00
0000
0000
0000
0000
0000
ENDCHAR
STARTCHAR gecyrillic
ENCODING 1075
SWIDTH 500 0
DWIDTH 12 0
BBX 12 24 0 -5
BITMAP
0000
0000
0000
0000
0000
0000
0000
0000
3F80
0040
0040
0040
0040
3F80
4000
4000
4000
4000
3F80
0000
0000
0000
0000
0000
ENDCHAR
STARTCHAR decyrillic
ENCODING 1076
SWIDTH 500 0
DWIDTH 12 0
BBX 12 24 0 -5
BITMAP
0000
0000
0000
0000
0000
0000
0000
0000
1FC0
2040
4040
4040
4040
4040
4040
4040
4040
20C0
1F40
0040
0040
0080
3F00
0000
ENDCHAR
STARTCHAR iecyrillic
ENCODING 1077
SWIDTH 500 0
DWIDTH 12 0
BBX 12 24 0 -5
BITMAP
0000
0000
0000
0000
0000
0000
0000
0000
1F00
2080
4040
4040
4040
7FC0
4000
4000
4000
2040
1F80
0000
0000
0000
0000
0000
ENDCHAR
STARTCHAR zhecyrillic
ENCODING 1078
SWIDTH 500 0
DWIDTH 12 0
BBX 12 24 0 -5
BITMAP
0000
0000
0000
0000
0000
0000
0000
0000
4440
4440
4440
2480
1500
0E00
1500
2480
4440
4440
4440
0000
0000
0000
0000
0000
ENDCHAR
STARTCHAR zecyrillic
ENCODING 1079
SWIDTH 500 0
DWIDTH 12 0
BBX 12 24 0 -5
BITMAP
0000
0000
0000
0000
0000
0000
0000
0000
3F80
4040
0040
0040
0040
0F80
0040
0040
0040
4040
3F80
0000
0000
0000
0000
0000
ENDCHAR
STARTCHAR iicyrillic
ENCODING 1080
SWIDTH 500 0
DWIDTH 12 0
BBX 12 24 0 -5
BITMAP
0000
0000
0000
0000
0000
0000
0000
0000
4040
4040
4040
4040
4040
4040
4040
4040
4040
2040
1FC0
0000
0000
0000
0000
0000
ENDCHAR
STARTCHAR afii10075
ENCODING 1081
SWIDTH 500 0
DWIDTH 12 0
BBX 12 24 0 -5
BITMAP
0000
0000
0000
0000
2080
2080
1F00
0000
4040
4040
4040
4040
4040
4040
4040
4040
4040
2040
1FC0
0000
0000
0000
0000
0000
ENDCHAR
STARTCHAR kacyrillic
ENCODING 1082
SWIDTH 500 0
DWIDTH 12 0
BBX 12 24 0 -5
BITMAP
0000
0000
0000
0000
0000
0000
0000
0000
2040
2080
2100
2200
2400
3800
2400
2200
2100
2080
2040
0000
0000
0000
0000
0000
ENDCHAR
STARTCHAR elcyrillic
ENCODING 1083
SWIDTH 500 0
DWIDTH 12 0
BBX 12 24 0 -5
BITMAP
0000
0000
0000
0000
0000
0000
0000
0000
0FC0
1040
2040
2040
2040
2040
2040
2040
2040
2040
4040
0000
0000
0000
0000
0000
ENDCHAR
STARTCHAR emcyrillic
ENCODING 1084
SWIDTH 500 0
DWIDTH 12 0
BBX 12 24 0 -5
BITMAP
0000
0000
0000
0000
0000
0000
0000
0000
4040
60C0
5140
4A40
4440
4040
4040
4040
4040
4040
4040
0000
0000
0000
0000
0000
ENDCHAR
STARTCHAR encyrillic
ENCODING 1085
SWIDTH 500 0
DWIDTH 12 0
BBX 12 24 0 -5
BITMAP
0000
0000
0000
0000
0000
0000
0000
0000
4040
4040
4040
4040
4040
7FC0
4040
4040
4040
4040
4040
0000
0000
0000
0000
0000
ENDCHAR
STARTCHAR ocyrillic
ENCODING 1086
SWIDTH 500 0
DWIDTH 12 0
BBX 12 24 0 -5
BITMAP
0000
0000
0000
0000
0000
0000
0000
0000
1F00
2080
4040
4040
4040
4040
4040
4040
4040
2080
1F00
0000
0000
0000
0000
0000
ENDCHAR
STARTCHAR pecyrillic
ENCODING 1087
SWIDTH 500 0
DWIDTH 12 0
BBX 12 24 0 -5
BITMAP
0000
0000
0000
0000
0000
0000
0000
0000
7FC0
4040
4040
4040
4040
4040
4040
4040
4040
4040
4040
0000
0000
0000
0000
0000
ENDCHAR
STARTCHAR ercyrillic
ENCODING 1088
SWIDTH 500 0
DWIDTH 12 0
BBX 12 24 0 -5
BITMAP
0000
0000
0000
0000
0000
0000
0000
0000
7F00
4080
4040
4040
4040
4040
4040
4040
4040
4080
7F00
4000
4000
4000
4000
0000
ENDCHAR
STARTCHAR escyrillic
ENCODING 1089
SWIDTH 500 0
DWIDTH 12 0
BBX 12 24 0 -5
BITMAP
0000
0000
0000
0000
0000
0000
0000
0000
1F00
2080
4040
4000
4000
4000
4000
4000
4040
2080
1F00
0000
0000
0000
0000
0000
ENDCHAR
STARTCHAR tecyrillic
ENCODING 1090
SWIDTH 500 0
DWIDTH 12 0
BBX 12 24 0 -5
BITMAP
0000
0000
0000
0000
0000
0000
0000
0000
7FC0
0400
0400
0400
0400
0400
0400
0400
0400
0400
0400
0000
0000
0000
0000
0000
ENDCHAR
STARTCHAR ucyrillic
ENCODING 1091
SWIDTH 500 0
DWIDTH 12 0
BBX 12 24 0 -5
BITMAP
0000
0000
0000
0000
0000
0000
0000
0000
4040
4040
4040
4040
4040
4040
4040
4040
4040
20C0
1F40
0040
0040
0080
3F00
0000
ENDCHAR
STARTCHAR efcyrillic
ENCODING 1092
SWIDTH 500 0
DWIDTH 12 0
BBX 12 24 0 -5
BITMAP
0000
0000
0000
0000
0000
0000
0400
0400
1F00
2480
4440
4440
4440
4440
4440
4440
4440
2480
1F00
0400
0400
0000
0000
0000
ENDCHAR
STARTCHAR khacyrillic
ENCODING 1093
SWIDTH 500 0
DWIDTH 12 0
BBX 12 24 0 -5
BITMAP
0000
0000
0000
0000
0000
0000
0000
0000
4040
4040
2080
1100
0A00
0400
0A00
1100
2080
4040
4040
0000
0000
0000
0000
0000
ENDCHAR
STARTCHAR tsecyrillic
ENCODING 1094
SWIDTH 500 0
DWIDTH 12 0
BBX 12 24 0 -5
BITMAP
0000
0000
0000
0000
0000
0000
0000
0000
4040
4040
4040
4040
4040
4040
4040
4040
4040
2040
1FE0
0020
0020
0020
0000
0000
ENDCHAR
STARTCHAR checyrillic
ENCODING 1095
SWIDTH 500 0
DWIDTH 12 0
BBX 12 24 0 -5
BITMAP
0000
0000
0000
0000
0000
0000
0000
0000
4040
4040
4040
4040
2040
1FC0
0040
0040
0040
0040
0040
0000
0000
0000
0000
0000
ENDCHAR
STARTCHAR shacyrillic
ENCODING 1096
SWIDTH 500 0
DWIDTH 12 0
BBX 12 24 0 -5
BITMAP
0000
0000
0000
0000
0000
0000
0000
0000
4440
4440
4440
4440
4440
4440
4440
4440
4440
2440
1FC0
0000
0000
0000
0000
0000
ENDCHAR
STARTCHAR shchacyrillic
ENCODING 1097
SWIDTH 500 0
DWIDTH 12 0
BBX 12 24 0 -5
BITMAP
0000
0000
0000
0000
0000
0000
0000
0000
4440
4440
4440
4440
4440
4440
4440
4440
4440
2440
1FE0
0020
0020
0020
0000
0000
ENDCHAR
STARTCHAR afii10092
ENCODING 1098
SWIDTH 500 0
DWIDTH 12 0
BBX 12 24 0 -5
BITMAP
0000
0000
0000
0000
0000
0000
0000
0000
6000
6000
2000
3F00
2080
2040
2040
2040
2040
2080
3F00
0000
0000
0000
0000
0000
ENDCHAR
STARTCHAR yericyrillic
ENCODING 1099
SWIDTH 500 0
DWIDTH 12 0
BBX 12 24 0 -5
BITMAP
0000
0000
0000
0000
0000
0000
0000
0000
4040
4040
4040
7840
4440
4240
4240
4240
4240
4440
7840
0000
0000
0000
0000
0000
ENDCHAR
STARTCHAR afii10094
ENCODING 1100
SWIDTH 500 0
DWIDTH 12 0
BBX 12 24 0 -5
BITMAP
0000
0000
0000
0000
0000
0000
0000
0000
2000
2000
2000
3F00
2080
2040
2040
2040
2040
2080
3F00
0000
0000
0000
0000
0000
ENDCHAR
STARTCHAR afii10095
ENCODING 1101
SWIDTH 500 0
DWIDTH 12 0
BBX 12 24 0 -5
BITMAP
0000
0000
0000
0000
0000
0000
0000
0000
1F00
2080
4040
0040
0040
0FC0
0040
0040
4040
2080
1F00
0000
0000
0000
0000
0000
ENDCHAR
STARTCHAR iucyrillic
ENCODING 1102
SWIDTH 500 0
DWIDTH 12 0
BBX 12 24 0 -5
BITMAP
0000
0000
0000
0000
0000
0000
0000
0000
43C0
4420
4420
4420
4420
7C20
4420
4420
4420
4420
43C0
0000
0000
0000
0000
0000
ENDCHAR
STARTCHAR iacyrillic
ENCODING 1103
SWIDTH 500 0
DWIDTH 12 0
BBX 12 24 0 -5
BITMAP
0000
0000
0000
0000
0000
0000
0000
0000
3FC0
4040
4040
4040
4040
3FC0
0240
0440
0840
1040
2040
0000
0000
0000
0000
0000
ENDCHAR
STARTCHAR uni0450
ENCODING 1104
SWIDTH 500 0
DWIDTH 12 0
BBX 12 24 0 -5
BITMAP
0000
0000
0000
0000
1000
0800
0400
0000
1F00
2080
4040
4040
4040
7FC0
4000
4000
4000
2040
1F80
0000
0000
0000
0000
0000
ENDCHAR
STARTCHAR iocyrillic
ENCODING 1105
SWIDTH 500 0
DWIDTH 12 0
BBX 12 24 0 -5
BITMAP
0000
0000
0000
0000
1100
1100
1100
0000
1F00
2080
4040
4040
4040
7FC0
4000
4000
4000
2040
1F80
0000
0000
0000
0000
0000
ENDCHAR
STARTCHAR djecyrillic
ENCODING 1106
SWIDTH 500 0
DWIDTH 12 0
BBX 12 24 0 -5
BITMAP
0000
0000
0000
0000
4000
FC00
4000
4000
7F00
4080
4040
4040
4040
4040
4040
4040
4040
4040
4040
0040
0080
0100
0000
0000
ENDCHAR
STARTCHAR gjecyrillic
ENCODING 1107
SWIDTH 500 0
DWIDTH 12 0
BBX 12 24 0 -5
BITMAP
0000
0000
0000
0000
0100
0200
0400
0000
3F80
0040
0040
0040
0040
3F80
4000
4000
4000
4000
3F80
0000
0000
0000
0000
0000
ENDCHAR
STARTCHAR ecyrillic
ENCODING 1108
SWIDTH 500 0
DWIDTH 12 0
BBX 12 24 0 -5
BITMAP
0000
0000
0000
0000
0000
0000
0000
0000
1F00
2080
4040
4000
4000
7E00
4000
4000
4040
2080
1F00
0000
0000
0000
0000
0000
ENDCHAR
STARTCHAR dzecyrillic
ENCODING 1109
SWIDTH 500 0
DWIDTH 12 0
BBX 12 24 0 -5
BITMAP
0000
0000
0000
0000
0000
0000
0000
0000
3F80
4040
4000
4000
4000
3F80
0040
0040
0040
4040
3F80
0000
0000
0000
0000
0000
ENDCHAR
STARTCHAR icyrillic
ENCODING 1110
SWIDTH 500 0
DWIDTH 12 0
BBX 12 24 0 -5
BITMAP
0000
0000
0000
0000
0400
0400
0400
0000
1C00
0400
0400
0400
0400
0400
0400
0400
0400
0400
1F00
0000
0000
0000
0000
0000
ENDCHAR
STARTCHAR yicyrillic
ENCODING 1111
SWIDTH 500 0
DWIDTH 12 0
BBX 12 24 0 -5
BITMAP
0000
0000
0000
0000
1100
1100
1100
0000
1C00
0400
0400
0400
0400
0400
0400
0400
0400
0400
1F00
0000
0000
0000
0000
0000
ENDCHAR
STARTCHAR jecyrillic
ENCODING 1112
SWIDTH 500 0
DWIDTH 12 0
BBX 12 24 0 -5
BITMAP
0000
0000
0000
0000
0080
0080
0080
0000
0380
0080
0080
0080
0080
0080
0080
0080
0080
0080
0080
2080
2080
1100
0E00
0000
ENDCHAR
STARTCHAR ljecyrillic
ENCODING 1113
SWIDTH 500 0
DWIDTH 12 0
BBX 12 24 0 -5
BITMAP
0000
0000
0000
0000
0000
0000
0000
0000
3C00
4400
8400
8780
8440
8420
8420
8420
8420
8440
8780
0000
0000
0000
0000
0000
ENDCHAR
STARTCHAR njecyrillic
ENCODING 1114
SWIDTH 500 0
DWIDTH 12 0
BBX 12 24 0 -5
BITMAP
0000
0000
0000
0000
0000
0000
0000
0000
8400
8400
8400
8400
8780
FC40
8420
8420
8420
8440
8780
0000
0000
0000
0000
0000
ENDCHAR
STARTCHAR tshecyrillic
ENCODING 1115
SWIDTH 500 0
DWIDTH 12 0
BBX 12 24 0 -5
BITMAP
0000
0000
0000
0000
4000
FC00
4000
4000
7F00
4080
4040
4040
4040
4040
4040
4040
4040
4040
4040
0000
0000
0000
0000
0000
ENDCHAR
STARTCHAR kjecyrillic
ENCODING 1116
SWIDTH 500 0
DWIDTH 12 0
BBX 12 24 0 -5
BITMAP
0000
0000
0000
0000
0100
0200
0400
0000
2040
2080
2100
2200
2400
3800
2400
2200
2100
2080
2040
0000
0000
0000
0000
0000
ENDCHAR
STARTCHAR uni045D
ENCODING 1117
SWIDTH 500 0
DWIDTH 12 0
BBX 12 24 0 -5
BITMAP
0000
0000
0000
0000
1000
0800
0400
0000
4040
4040
4040
4040
4040
4040
4040
4040
4040
2040
1FC0
0000
0000
0000
0000
0000
ENDCHAR
STARTCHAR ushortcyrillic
ENCODING 1118
SWIDTH 500 0
DWIDTH 12 0
BBX 12 24 0 -5
BITMAP
0000
0000
0000
0000
2080
2080
1F00
0000
4040
4040
4040
4040
4040
4040
4040
4040
4040
20C0
1F40
0040
0040
0080
3F00
0000
ENDCHAR
STARTCHAR dzhecyrillic
ENCODING 1119
SWIDTH 500 0
DWIDTH 12 0
BBX 12 24 0 -5
BITMAP
0000
0000
0000
0000
0000
0000
0000
0000
4040
4040
4040
4040
4040
4040
4040
4040
4040
4040
7FC0
0400
0400
0400
0000
0000
ENDCHAR
STARTCHAR afii10050
ENCODING 1168
SWIDTH 500 0
DWIDTH 12 0
BBX 12 24 0 -5
BITMAP
0000
0040
0040
0040
7FC0
4000
4000
4000
4000
4000
4000
4000
4000
4000
4000
4000
4000
4000
4000
0000
0000
0000
0000
0000
ENDCHAR
STARTCHAR afii10098
ENCODING 1169
SWIDTH 500 0
DWIDTH 12 0
BBX 12 24 0 -5
BITMAP
0000
0000
0000
0000
0000
2000
2000
2000
3F80
0040
0040
0040
0040
3F80
4000
4000
4000
4000
3F80
0000
0000
0000
0000
0000
ENDCHAR
STARTCHAR uni0492
ENCODING 1170
SWIDTH 500 0
DWIDTH 12 0
BBX 12 24 0 -5
BITMAP
0000
0000
0000
0000
7FC0
4000
4000
4000
4000
4000
4000
FC00
4000
4000
4000
4000
4000
4000
4000
0000
0000
0000
0000
0000
ENDCHAR
STARTCHAR uni0493
ENCODING 1171
SWIDTH 500 0
DWIDTH 12 0
BBX 12 24 0 -5
BITMAP
0000
0000
0000
0000
0000
0000
0000
0000
7FC0
4000
4000
4000
4000
FC00
4000
4000
4000
4000
4000
0000
0000
0000
0000
0000
ENDCHAR
STARTCHAR uni0494
ENCODING 1172
SWIDTH 500 0
DWIDTH 12 0
BBX 12 24 0 -5
BITMAP
0000
0000
0000
0000
7FC0
4000
4000
4000
4000
4000
4000
7F00
4080
4040
4040
4040
4040
4040
4040
0040
0080
0100
0000
0000
ENDCHAR
STARTCHAR uni0495
ENCODING 1173
SWIDTH 500 0
DWIDTH 12 0
BBX 12 24 0 -5
BITMAP
0000
0000
0000
0000
0000
0000
0000
0000
7FC0
4000
4000
4000
4000
7E00
4100
4080
4080
4080
4080
0080
0100
0200
0000
0000
ENDCHAR
STARTCHAR uni0496
ENCODING 1174
SWIDTH 500 0
DWIDTH 12 0
BBX 12 24 0 -5
BITMAP
0000
0000
0000
0000
4440
4440
4440
4440
4440
2480
1500
0E00
1500
2480
4440
4440
4440
4440
4460
0020
0020
0020
0000
0000
ENDCHAR
STARTCHAR uni0497
ENCODING 1175
SWIDTH 500 0
DWIDTH 12 0
BBX 12 24 0 -5
BITMAP
0000
0000
0000
0000
0000
0000
0000
0000
4440
4440
4440
2480
1500
0E00
1500
2480
4440
4440
4460
0020
0020
0020
0000
0000
ENDCHAR
STARTCHAR uni0498
ENCODING 1176
SWIDTH 500 0
DWIDTH 12 0
BBX 12 24 0 -5
BITMAP
0000
0000
0000
0000
1F00
2080
4040
0040
0040
0040
0080
0F00
0080
0040
0040
0040
4040
2080
1F00
0400
0400
0400
0400
0000
ENDCHAR
STARTCHAR uni0499
ENCODING 1177
SWIDTH 500 0
DWIDTH 12 0
BBX 12 24 0 -5
BITMAP
0000
0000
0000
0000
0000
0000
0000
0000
3F80
4040
0040
0040
0040
0F80
0040
0040
0040
4040
3F80
0400
0400
0400
0400
0000
ENDCHAR
STARTCHAR uni049A
ENCODING 1178
SWIDTH 500 0
DWIDTH 12 0
BBX 12 24 0 -5
BITMAP
0000
0000
0000
0000
4040
4080
4100
4200
4400
4800
5000
6000
5000
4800
4400
4200
4100
4080
4060
0020
0020
0020
0000
0000
ENDCHAR
STARTCHAR uni049B
ENCODING 1179
SWIDTH 500 0
DWIDTH 12 0
BBX 12 24 0 -5
BITMAP
0000
0000
0000
0000
0000
0000
0000
0000
2040
2080
2100
2200
2400
3800
2400
2200
2100
2080
2060
0020
0020
0020
0000
0000
ENDCHAR
STARTCHAR uni049C
ENCODING 1180
SWIDTH 500 0
DWIDTH 12 0
BBX 12 24 0 -5
BITMAP
0000
0000
0000
0000
4040
4040
4080
4100
5200
5400
5800
7000
5800
5400
5200
4100
4080
4040
4040
0000
0000
0000
0000
0000
ENDCHAR
STARTCHAR uni049D
ENCODING 1181
SWIDTH 500 0
DWIDTH 12 0
BBX 12 24 0 -5
BITMAP
0000
0000
0000
0000
0000
0000
0000
0000
4040
4080
5100
5200
5400
7800
5400
5200
5100
4080
4040
0000
0000
0000
0000
0000
ENDCHAR
STARTCHAR uni04A0
ENCODING 1184
SWIDTH 500 0
DWIDTH 12 0
BBX 12 24 0 -5
BITMAP
0000
0000
0000
0000
C040
C080
4100
4200
4400
4800
5000
6000
5000
4800
4400
4200
4100
4080
4040
0000
0000
0000
0000
0000
ENDCHAR
STARTCHAR uni04A1
ENCODING 1185
SWIDTH 500 0
DWIDTH 12 0
BBX 12 24 0 -5
BITMAP
0000
0000
0000
0000
0000
0000
0000
0000
6040
6080
2100
2200
2400
3800
2400
2200
2100
2080
2040
0000
0000
0000
0000
0000
ENDCHAR
STARTCHAR uni04A2
ENCODING 1186
SWIDTH 500 0
DWIDTH 12 0
BBX 12 24 0 -5
BITMAP
0000
0000
0000
0000
4040
4040
4040
4040
4040
4040
4040
7FC0
4040
4040
4040
4040
4040
4040
4060
0020
0020
0020
0000
0000
ENDCHAR
STARTCHAR uni04A3
ENCODING 1187
SWIDTH 500 0
DWIDTH 12 0
BBX 12 24 0 -5
BITMAP
0000
0000
0000
0000
0000
0000
0000
0000
4040
4040
4040
4040
4040
7FC0
4040
4040
4040
4040
4060
0020
0020
0020
0000
0000
ENDCHAR
STARTCHAR Enghecyrillic
ENCODING 1188
SWIDTH 500 0
DWIDTH 12 0
BBX 12 24 0 -5
BITMAP
0000
0000
0000
0000
41E0
4100
4100
4100
4100
4100
4100
7F00
4100
4100
4100
4100
4100
4100
4100
0000
0000
0000
0000
0000
ENDCHAR
STARTCHAR enghecyrillic
ENCODING 1189
SWIDTH 500 0
DWIDTH 12 0
BBX 12 24 0 -5
BITMAP
0000
0000
0000
0000
0000
0000
0000
0000
41E0
4100
4100
4100
4100
7F00
4100
4100
4100
4100
4100
0000
0000
0000
0000
0000
ENDCHAR
STARTCHAR uni04AA
ENCODING 1194
SWIDTH 500 0
DWIDTH 12 0
BBX 12 24 0 -5
BITMAP
0000
0000
0000
0000
1F00
2080
4040
4040
4000
4000
4000
4000
4000
4000
4000
4040
4040
2080
1F00
0400
0400
0400
0400
0000
ENDCHAR
STARTCHAR uni04AB
ENCODING 1195
SWIDTH 500 0
DWIDTH 12 0
BBX 12 24 0 -5
BITMAP
0000
0000
0000
0000
0000
0000
0000
0000
1F00
2080
4040
4000
4000
4000
4000
4000
4040
2080
1F00
0400
0400
0400
0400
0000
ENDCHAR
STARTCHAR uni04AE
ENCODING 1198
SWIDTH 500 0
DWIDTH 12 0
BBX 12 24 0 -5
BITMAP
0000
0000
0000
0000
4040
4040
2080
2080
1100
1100
0A00
0400
0400
0400
0400
0400
0400
0400
0400
0000
0000
0000
0000
0000
ENDCHAR
STARTCHAR uni04AF
ENCODING 1199
SWIDTH 500 0
DWIDTH 12 0
BBX 12 24 0 -5
BITMAP
0000
0000
0000
0000
0000
0000
0000
0000
4040
4040
4040
2080
2080
1100
1100
0A00
0A00
0400
0400
0400
0400
0400
0400
0000
ENDCHAR
STARTCHAR uni04B0
ENCODING 1200
SWIDTH 500 0
DWIDTH 12 0
BBX 12 24 0 -5
BITMAP
0000
0000
0000
0000
4040
4040
2080
2080
1100
1100
0A00
0400
3F80
0400
0400
0400
0400
0400
0400
0000
0000
0000
0000
0000
ENDCHAR
STARTCHAR uni04B1
ENCODING 1201
SWIDTH 500 0
DWIDTH 12 0
BBX 12 24 0 -5
BITMAP
0000
0000
0000
0000
0000
0000
0000
0000
4040
4040
4040
2080
2080
1100
1100
0A00
0A00
0400
3F80
0400
0400
0400
0400
0000
ENDCHAR
STARTCHAR uni04B2
ENCODING 1202
SWIDTH 500 0
DWIDTH 12 0
BBX 12 24 0 -5
BITMAP
0000
0000
0000
0000
4040
4040
2080
2080
1100
1100
0A00
0400
0A00
1100
1100
2080
2080
4040
4060
0020
0020
0020
0000
0000
ENDCHAR
STARTCHAR uni04B3
ENCODING 1203
SWIDTH 500 0
DWIDTH 12 0
BBX 12 24 0 -5
BITMAP
0000
0000
0000
0000
0000
0000
0000
0000
4040
4040
2080
1100
0A00
0400
0A00
1100
2080
4040
4060
0020
0020
0020
0000
0000
ENDCHAR
STARTCHAR uni04B6
ENCODING 1206
SWIDTH 500 0
DWIDTH 12 0
BBX 12 24 0 -5
BITMAP
0000
0000
0000
0000
4040
4040
4040
4040
4040
4040
2040
1FC0
0040
0040
0040
0040
0040
0040
0060
0020
0020
0020
0000
0000
ENDCHAR
STARTCHAR uni04B7
ENCODING 1207
SWIDTH 500 0
DWIDTH 12 0
BBX 12 24 0 -5
BITMAP
0000
0000
0000
0000
0000
0000
0000
0000
4040
4040
4040
4040
2040
1FC0
0040
0040
0040
0040
0060
0020
0020
0020
0000
0000
ENDCHAR
STARTCHAR uni04B8
ENCODING 1208
SWIDTH 500 0
DWIDTH 12 0
BBX 12 24 0 -5
BITMAP
0000
0000
0000
0000
4040
4040
4040
4040
4440
4440
2440
1FC0
0440
0440
0440
0040
0040
0040
0040
0000
0000
0000
0000
0000
ENDCHAR
STARTCHAR uni04B9
ENCODING 1209
SWIDTH 500 0
DWIDTH 12 0
BBX 12 24 0 -5
BITMAP
0000
0000
0000
0000
0000
0000
0000
0000
4040
4040
4440
4440
2440
1FC0
0440
0440
0440
0040
0040
0000
0000
0000
0000
0000
ENDCHAR
STARTCHAR Shhacyrillic
ENCODING 1210
SWIDTH 500 0
DWIDTH 12 0
BBX 12 24 0 -5
BITMAP
0000
0000
0000
0000
4000
4000
4000
4000
4000
4000
7F00
4080
4040
4040
4040
4040
4040
4040
4040
0000
0000
0000
0000
0000
ENDCHAR
STARTCHAR shhacyrillic
ENCODING 1211
SWIDTH 500 0
DWIDTH 12 0
BBX 12 24 0 -5
BITMAP
0000
0000
0000
0000
0000
0000
0000
0000
4000
4000
4000
4000
7F00
4080
4040
4040
4040
4040
4040
0000
0000
0000
0000
0000
ENDCHAR
STARTCHAR Abrevecyrillic
ENCODING 1232
SWIDTH 500 0
DWIDTH 12 0
BBX 12 24 0 -5
BITMAP
2080
2080
1F00
0000
1F00
2080
4040
4040
4040
4040
4040
4040
7FC0
4040
4040
4040
4040
4040
4040
0000
0000
0000
0000
0000
ENDCHAR
STARTCHAR abrevecyrillic
ENCODING 1233
SWIDTH 500 0
DWIDTH 12 0
BBX 12 24 0 -5
BITMAP
0000
0000
0000
0000
2080
2080
1F00
0000
3F00
0080
0040
0040
1FC0
2040
4040
4040
4040
2040
1FC0
0000
0000
0000
0000
0000
ENDCHAR
STARTCHAR uni04D2
ENCODING 1234
SWIDTH 500 0
DWIDTH 12 0
BBX 12 24 0 -5
BITMAP
1100
1100
1100
0000
1F00
2080
4040
4040
4040
4040
4040
4040
7FC0
4040
4040
4040
4040
4040
4040
0000
0000
0000
0000
0000
ENDCHAR
STARTCHAR uni04D3
ENCODING 1235
SWIDTH 500 0
DWIDTH 12 0
BBX 12 24 0 -5
BITMAP
0000
0000
0000
0000
1100
1100
1100
0000
3F00
0080
0040
0040
1FC0
2040
4040
4040
4040
2040
1FC0
0000
0000
0000
0000
0000
ENDCHAR
STARTCHAR Aiecyrillic
ENCODING 1236
SWIDTH 500 0
DWIDTH 12 0
BBX 12 24 0 -5
BITMAP
0000
0000
0000
0000
3FE0
4400
8400
8400
8400
8400
8400
FFC0
8400
8400
8400
8400
8400
8400
87E0
0000
0000
0000
0000
0000
ENDCHAR
STARTCHAR aiecyrillic
ENCODING 1237
SWIDTH 500 0
DWIDTH 12 0
BBX 12 24 0 -5
BITMAP
0000
0000
0000
0000
0000
0000
0000
0000
7BC0
0420
0420
0420
7C20
87E0
8400
8400
8400
8420
7BC0
0000
0000
0000
0000
0000
ENDCHAR
STARTCHAR uni04D6
ENCODING 1238
SWIDTH 500 0
DWIDTH 12 0
BBX 12 24 0 -5
BITMAP
2080
2080
1F00
0000
7FC0
4000
4000
4000
4000
4000
4000
7F00
4000
4000
4000
4000
4000
4000
7FC0
0000
0000
0000
0000
0000
ENDCHAR
STARTCHAR uni04D7
ENCODING 1239
SWIDTH 500 0
DWIDTH 12 0
BBX 12 24 0 -5
BITMAP
0000
0000
0000
0000
2080
2080
1F00
0000
1F00
2080
4040
4040
4040
7FC0
4000
4000
4000
2040
1F80
0000
0000
0000
0000
0000
ENDCHAR
STARTCHAR Schwacyrillic
ENCODING 1240
SWIDTH 500 0
DWIDTH 12 0
BBX 12 24 0 -5
BITMAP
0000
0000
0000
0000
1F00
2080
4040
0040
0040
0040
0040
7FC0
4040
4040
4040
4040
4040
2080
1F00
0000
0000
0000
0000
0000
ENDCHAR
STARTCHAR schwacyrillic
ENCODING 1241
SWIDTH 500 0
DWIDTH 12 0
BBX 12 24 0 -5
BITMAP
0000
0000
0000
0000
0000
0000
0000
0000
3F00
4080
0040
0040
0040
7FC0
4040
4040
4040
2080
1F00
0000
0000
0000
0000
0000
ENDCHAR
STARTCHAR uni04DA
ENCODING 1242
SWIDTH 500 0
DWIDTH 12 0
BBX 12 24 0 -5
BITMAP
1100
1100
1100
0000
1F00
2080
4040
0040
0040
0040
0040
7FC0
4040
4040
4040
4040
4040
2080
1F00
0000
0000
0000
0000
0000
ENDCHAR
STARTCHAR uni04DB
ENCODING 1243
SWIDTH 500 0
DWIDTH 12 0
BBX 12 24 0 -5
BITMAP
0000
0000
0000
0000
1100
1100
1100
0000
3F00
4080
0040
0040
0040
7FC0
4040
4040
4040
2080
1F00
0000
0000
0000
0000
0000
ENDCHAR
STARTCHAR uni04DC
ENCODING 1244
SWIDTH 500 0
DWIDTH 12 0
BBX 12 24 0 -5
BITMAP
1100
1100
1100
0000
4440
4440
4440
4440
4440
2480
1500
0E00
1500
2480
4440
4440
4440
4440
4440
0000
0000
0000
0000
0000
ENDCHAR
STARTCHAR uni04DD
ENCODING 1245
SWIDTH 500 0
DWIDTH 12 0
BBX 12 24 0 -5
BITMAP
0000
0000
0000
0000
1100
1100
1100
0000
4440
4440
4440
2480
1500
0E00
1500
2480
4440
4440
4440
0000
0000
0000
0000
0000
ENDCHAR
STARTCHAR uni04DE
ENCODING 1246
SWIDTH 500 0
DWIDTH 12 0
BBX 12 24 0 -5
BITMAP
1100
1100
1100
0000
1F00
2080
4040
0040
0040
0040
0080
0F00
0080
0040
0040
0040
4040
2080
1F00
0000
0000
0000
0000
0000
ENDCHAR
STARTCHAR uni04DF
ENCODING 1247
SWIDTH 500 0
DWIDTH 12 0
BBX 12 24 0 -5
BITMAP
0000
0000
0000
0000
1100
1100
1100
0000
3F80
4040
0040
0040
0040
0F80
0040
0040
0040
4040
3F80
0000
0000
0000
0000
0000
ENDCHAR
STARTCHAR uni04E2
ENCODING 1250
SWIDTH 500 0
DWIDTH 12 0
BBX 12 24 0 -5
BITMAP
0000
3F80
0000
0000
4040
4040
4040
4040
40C0
4140
4240
4440
4840
5040
6040
4040
4040
4040
4040
0000
0000
0000
0000
0000
ENDCHAR
STARTCHAR uni04E3
ENCODING 1251
SWIDTH 500 0
DWIDTH 12 0
BBX 12 24 0 -5
BITMAP
0000
0000
0000
0000
0000
3F80
0000
0000
4040
4040
4040
4040
4040
4040
4040
4040
4040
2040
1FC0
0000
0000
0000
0000
0000
ENDCHAR
STARTCHAR uni04E4
ENCODING 1252
SWIDTH 500 0
DWIDTH 12 0
BBX 12 24 0 -5
BITMAP
1100
1100
1100
0000
4040
4040
4040
4040
40C0
4140
4240
4440
4840
5040
6040
4040
4040
4040
4040
0000
0000
0000
0000
0000
ENDCHAR
STARTCHAR uni04E5
ENCODING 1253
SWIDTH 500 0
DWIDTH 12 0
BBX 12 24 0 -5
BITMAP
0000
0000
0000
0000
1100
1100
1100
0000
4040
4040
4040
4040
4040
4040
4040
4040
4040
2040
1FC0
0000
0000
0000
0000
0000
ENDCHAR
STARTCHAR uni04E6
ENCODING 1254
SWIDTH 500 0
DWIDTH 12 0
BBX 12 24 0 -5
BITMAP
1100
1100
1100
0000
1F00
2080
4040
4040
4040
4040
4040
4040
4040
4040
4040
4040
4040
2080
1F00
0000
0000
0000
0000
0000
ENDCHAR
STARTCHAR uni04E7
ENCODING 1255
SWIDTH 500 0
DWIDTH 12 0
BBX 12 24 0 -5
BITMAP
0000
0000
0000
0000
1100
1100
1100
0000
1F00
2080
4040
4040
4040
4040
4040
4040
4040
2080
1F00
0000
0000
0000
0000
0000
ENDCHAR
STARTCHAR uni04E8
ENCODING 1256
SWIDTH 500 0
DWIDTH 12 0
BBX 12 24 0 -5
BITMAP
0000
0000
0000
0000
1F00
2080
4040
4040
4040
4040
4040
7FC0
4040
4040
4040
4040
4040
2080
1F00
0000
0000
0000
0000
0000
ENDCHAR
STARTCHAR uni04E9
ENCODING 1257
SWIDTH 500 0
DWIDTH 12 0
BBX 12 24 0 -5
BITMAP
0000
0000
0000
0000
0000
0000
0000
0000
1F00
2080
4040
4040
4040
7FC0
4040
4040
4040
2080
1F00
0000
0000
0000
0000
0000
ENDCHAR
STARTCHAR uni04EA
ENCODING 1258
SWIDTH 500 0
DWIDTH 12 0
BBX 12 24 0 -5
BITMAP
1100
1100
1100
0000
1F00
2080
4040
4040
4040
4040
4040
7FC0
4040
4040
4040
4040
4040
2080
1F00
0000
0000
0000
0000
0000
ENDCHAR
STARTCHAR uni04EB
ENCODING 1259
SWIDTH 500 0
DWIDTH 12 0
BBX 12 24 0 -5
BITMAP
0000
0000
0000
0000
1100
1100
1100
0000
1F00
2080
4040
4040
4040
7FC0
4040
4040
4040
2080
1F00
0000
0000
0000
0000
0000
ENDCHAR
STARTCHAR uni04EC
ENCODING 1260
SWIDTH 500 0
DWIDTH 12 0
BBX 12 24 0 -5
BITMAP
1100
1100
1100
0000
1F00
2080
4040
0040
0040
0040
0040
0FC0
0040
0040
0040
0040
4040
2080
1F00
0000
0000
0000
0000
0000
ENDCHAR
STARTCHAR uni04ED
ENCODING 1261
SWIDTH 500 0
DWIDTH 12 0
BBX 12 24 0 -5
BITMAP
0000
0000
0000
0000
1100
1100
1100
0000
1F00
2080
4040
0040
0040
0FC0
0040
0040
4040
2080
1F00
0000
0000
0000
0000
0000
ENDCHAR
STARTCHAR uni04EE
ENCODING 1262
SWIDTH 500 0
DWIDTH 12 0
BBX 12 24 0 -5
BITMAP
0000
3F80
0000
0000
4040
4040
4040
4040
4040
4040
4040
2040
1FC0
0040
0040
0040
0040
0080
3F00
0000
0000
0000
0000
0000
ENDCHAR
STARTCHAR uni04EF
ENCODING 1263
SWIDTH 500 0
DWIDTH 12 0
BBX 12 24 0 -5
BITMAP
0000
0000
0000
0000
0000
3F80
0000
0000
4040
4040
4040
4040
4040
4040
4040
4040
4040
20C0
1F40
0040
0040
0080
3F00
0000
ENDCHAR
STARTCHAR uni04F0
ENCODING 1264
SWIDTH 500 0
DWIDTH 12 0
BBX 12 24 0 -5
BITMAP
1100
1100
1100
0000
4040
4040
4040
4040
4040
4040
4040
2040
1FC0
0040
0040
0040
0040
0080
3F00
0000
0000
0000
0000
0000
ENDCHAR
STARTCHAR uni04F1
ENCODING 1265
SWIDTH 500 0
DWIDTH 12 0
BBX 12 24 0 -5
BITMAP
0000
0000
0000
0000
1100
1100
1100
0000
4040
4040
4040
4040
4040
4040
4040
4040
4040
20C0
1F40
0040
0040
0080
3F00
0000
ENDCHAR
STARTCHAR uni04F2
ENCODING 1266
SWIDTH 500 0
DWIDTH 12 0
BBX 12 24 0 -5
BITMAP
0440
0880
1100
0000
4040
4040
4040
4040
4040
4040
4040
2040
1FC0
0040
0040
0040
0040
0080
3F00
0000
0000
0000
0000
0000
ENDCHAR
STARTCHAR uni04F3
ENCODING 1267
SWIDTH 500 0
DWIDTH 12 0
BBX 12 24 0 -5
BITMAP
0000
0000
0000
0000
0440
0880
1100
0000
4040
4040
4040
4040
4040
4040
4040
4040
4040
20C0
1F40
0040
0040
0080
3F00
0000
ENDCHAR
STARTCHAR uni04F4
ENCODING 1268
SWIDTH 500 0
DWIDTH 12 0
BBX 12 24 0 -5
BITMAP
1100
1100
1100
0000
4040
4040
4040
4040
4040
4040
2040
1FC0
0040
0040
0040
0040
0040
0040
0040
0000
0000
0000
0000
0000
ENDCHAR
STARTCHAR uni04F5
ENCODING 1269
SWIDTH 500 0
DWIDTH 12 0
BBX 12 24 0 -5
BITMAP
0000
0000
0000
0000
1100
1100
1100
0000
4040
4040
4040
4040
2040
1FC0
0040
0040
0040
0040
0040
0000
0000
0000
0000
0000
ENDCHAR
STARTCHAR uni04F8
ENCODING 1272
SWIDTH 500 0
DWIDTH 12 0
BBX 12 24 0 -5
BITMAP
1100
1100
1100
0000
4020
4020
4020
4020
4020
7C20
4220
4120
4120
4120
4120
4120
4120
4220
7C20
0000
0000
0000
0000
0000
ENDCHAR
STARTCHAR uni04F9
ENCODING 1273
SWIDTH 500 0
DWIDTH 12 0
BBX 12 24 0 -5
BITMAP
0000
0000
0000
0000
1100
1100
1100
0000
4040
4040
4040
7840
4440
4240
4240
4240
4240
4440
7840
0000
0000
0000
0000
0000
ENDCHAR
STARTCHAR Klinebelow
ENCODING 7732
SWIDTH 500 0
DWIDTH 12 0
BBX 12 24 0 -5
BITMAP
0000
0000
0000
0000
4040
4080
4100
4200
4400
4800
5000
6000
5000
4800
4400
4200
4100
4080
4040
0000
0000
3F80
0000
0000
ENDCHAR
STARTCHAR klinebelow
ENCODING 7733
SWIDTH 500 0
DWIDTH 12 0
BBX 12 24 0 -5
BITMAP
0000
0000
0000
0000
2000
2000
2000
2000
2040
2080
2100
2200
2400
3800
2400
2200
2100
2080
2040
0000
0000
1F80
0000
0000
ENDCHAR
STARTCHAR Edotbelow
ENCODING 7864
SWIDTH 500 0
DWIDTH 12 0
BBX 12 24 0 -5
BITMAP
0000
0000
0000
0000
7FC0
4000
4000
4000
4000
4000
4000
7F00
4000
4000
4000
4000
4000
4000
7FC0
0000
0400
0400
0400
0000
ENDCHAR
STARTCHAR edotbelow
ENCODING 7865
SWIDTH 500 0
DWIDTH 12 0
BBX 12 24 0 -5
BITMAP
0000
0000
0000
0000
0000
0000
0000
0000
1F00
2080
4040
4040
4040
7FC0
4000
4000
4000
2040
1F80
0000
0400
0400
0400
0000
ENDCHAR
STARTCHAR Etilde
ENCODING 7868
SWIDTH 500 0
DWIDTH 12 0
BBX 12 24 0 -5
BITMAP
1880
2480
2300
0000
7FC0
4000
4000
4000
4000
4000
4000
7F00
4000
4000
4000
4000
4000
4000
7FC0
0000
0000
0000
0000
0000
ENDCHAR
STARTCHAR etilde
ENCODING 7869
SWIDTH 500 0
DWIDTH 12 0
BBX 12 24 0 -5
BITMAP
0000
0000
0000
0000
1880
2480
2300
0000
1F00
2080
4040
4040
4040
7FC0
4000
4000
4000
2040
1F80
0000
0000
0000
0000
0000
ENDCHAR
STARTCHAR Odotbelow
ENCODING 7884
SWIDTH 500 0
DWIDTH 12 0
BBX 12 24 0 -5
BITMAP
0000
0000
0000
0000
1F00
2080
4040
4040
4040
4040
4040
4040
4040
4040
4040
4040
4040
2080
1F00
0000
0400
0400
0400
0000
ENDCHAR
STARTCHAR odotbelow
ENCODING 7885
SWIDTH 500 0
DWIDTH 12 0
BBX 12 24 0 -5
BITMAP
0000
0000
0000
0000
0000
0000
0000
0000
1F00
2080
4040
4040
4040
4040
4040
4040
4040
2080
1F00
0000
0400
0400
0400
0000
ENDCHAR
STARTCHAR uni1EA0
ENCODING 7840
SWIDTH 500 0
DWIDTH 12 0
BBX 9 19 1 -4
BITMAP
3E00
4100
8080
8080
8080
8080
8080
8080
FF80
8080
8080
8080
8080
8080
8080
0000
0800
0800
0800
ENDCHAR
STARTCHAR uni1EA1
ENCODING 7841
SWIDTH 500 0
DWIDTH 12 0
BBX 9 15 1 -4
BITMAP
7E00
0100
0080
0080
3F80
4080
8080
8080
8080
4080
3F80
0000
0400
0400
0400
ENDCHAR
STARTCHAR uni1EA2
ENCODING 7842
SWIDTH 500 0
DWIDTH 12 0
BBX 9 19 1 0
BITMAP
1C00
0400
0800
0000
3E00
4100
8080
8080
8080
8080
8080
8080
FF80
8080
8080
8080
8080
8080
8080
ENDCHAR
STARTCHAR uni1EA3
ENCODING 7843
SWIDTH 500 0
DWIDTH 12 0
BBX 9 15 1 0
BITMAP
1C00
0400
0800
0000
7E00
0100
0080
0080
3F80
4080
8080
8080
8080
4080
3F80
ENDCHAR
STARTCHAR uni1EA4
ENCODING 7844
SWIDTH 500 0
DWIDTH 12 0
BBX 9 19 1 0
BITMAP
0080
1D00
2200
4100
3E00
4100
8080
8080
8080
8080
8080
8080
FF80
8080
8080
8080
8080
8080
8080
ENDCHAR
STARTCHAR uni1EA5
ENCODING 7845
SWIDTH 500 0
DWIDTH 12 0
BBX 9 16 1 0
BITMAP
0080
1D00
2200
4100
0000
7E00
0100
0080
0080
3F80
4080
8080
8080
8080
4080
3F80
ENDCHAR
STARTCHAR uni1EA6
ENCODING 7846
SWIDTH 500 0
DWIDTH 12 0
BBX 9 19 1 0
BITMAP
8000
5C00
2200
4100
3E00
4100
8080
8080
8080
8080
8080
8080
FF80
8080
8080
8080
8080
8080
8080
ENDCHAR
STARTCHAR uni1EA7
ENCODING 7847
SWIDTH 500 0
DWIDTH 12 0
BBX 9 16 1 0
BITMAP
8000
5C00
2200
4100
0000
7E00
0100
0080
0080
3F80
4080
8080
8080
8080
4080
3F80
ENDCHAR
STARTCHAR uni1EA8
ENCODING 7848
SWIDTH 500 0
DWIDTH 12 0
BBX 9 19 1 0
BITMAP
0380
0080
1D00
2200
4100
3E00
4100
8080
8080
8080
8080
8080
FF80
8080
8080
8080
8080
8080
8080
ENDCHAR
STARTCHAR uni1EA9
ENCODING 7849
SWIDTH 500 0
DWIDTH 12 0
BBX 9 17 1 0
BITMAP
0380
0080
1D00
2200
4100
0000
7E00
0100
0080
0080
3F80
4080
8080
8080
8080
4080
3F80
ENDCHAR
STARTCHAR uni1EAA
ENCODING 7850
SWIDTH 500 0
DWIDTH 12 0
BBX 11 19 1 0
BITMAP
0320
1CC0
2200
4100
3E00
4100
8080
8080
8080
8080
8080
8080
FF80
8080
8080
8080
8080
8080
8080
ENDCHAR
STARTCHAR uni1EAB
ENCODING 7851
SWIDTH 500 0
DWIDTH 12 0
BBX 9 19 1 0
BITMAP
3100
4900
4600
0000
1C00
2200
4100
0000
7E00
0100
0080
0080
3F80
4080
8080
8080
8080
4080
3F80
ENDCHAR
STARTCHAR uni1EAC
ENCODING 7852
SWIDTH 500 0
DWIDTH 12 0
BBX 9 23 1 -4
BITMAP
1C00
2200
4100
0000
3E00
4100
8080
8080
8080
8080
8080
8080
FF80
8080
8080
8080
8080
8080
8080
0000
0800
0800
0800
ENDCHAR
STARTCHAR uni1EAD
ENCODING 7853
SWIDTH 500 0
DWIDTH 12 0
BBX 9 19 1 -4
BITMAP
1C00
2200
4100
0000
7E00
0100
0080
0080
3F80
4080
8080
8080
8080
4080
3F80
0000
0400
0400
0400
ENDCHAR
STARTCHAR uni1EAE
ENCODING 7854
SWIDTH 500 0
DWIDTH 12 0
BBX 9 19 1 0
BITMAP
0400
4900
3E00
0000
3E00
4100
8080
8080
8080
8080
8080
8080
FF80
8080
8080
8080
8080
8080
8080
ENDCHAR
STARTCHAR uni1EAF
ENCODING 7855
SWIDTH 500 0
DWIDTH 12 0
BBX 9 16 1 0
BITMAP
0400
4900
4100
3E00
0000
7E00
0100
0080
0080
3F80
4080
8080
8080
8080
4080
3F80
ENDCHAR
STARTCHAR uni1EB0
ENCODING 7856
SWIDTH 500 0
DWIDTH 12 0
BBX 9 19 1 0
BITMAP
1000
4900
3E00
0000
3E00
4100
8080
8080
8080
8080
8080
8080
FF80
8080
8080
8080
8080
8080
8080
ENDCHAR
STARTCHAR uni1EB1
ENCODING 7857
SWIDTH 500 0
DWIDTH 12 0
BBX 9 16 1 0
BITMAP
1000
4900
4100
3E00
0000
7E00
0100
0080
0080
3F80
4080
8080
8080
8080
4080
3F80
ENDCHAR
STARTCHAR uni1EB2
ENCODING 7858
SWIDTH 500 0
DWIDTH 12 0
BBX 9 19 1 0
BITMAP
1800
4900
3E00
0000
3E00
4100
8080
8080
8080
8080
8080
8080
FF80
8080
8080
8080
8080
8080
8080
ENDCHAR
STARTCHAR uni1EB3
ENCODING 7859
SWIDTH 500 0
DWIDTH 12 0
BBX 9 17 1 0
BITMAP
1C00
0400
4900
4100
3E00
0000
7E00
0100
0080
0080
3F80
4080
8080
8080
8080
4080
3F80
ENDCHAR
STARTCHAR uni1EB4
ENCODING 7860
SWIDTH 500 0
DWIDTH 12 0
BBX 9 19 1 0
BITMAP
1A00
2400
4100
3E00
0000
3E00
4100
8080
8080
8080
8080
8080
FF80
8080
8080
8080
8080
8080
8080
ENDCHAR
STARTCHAR uni1EB5
ENCODING 7861
SWIDTH 500 0
DWIDTH 12 0
BBX 9 19 1 0
BITMAP
3100
4900
4600
0000
4100
4100
3E00
0000
7E00
0100
0080
0080
3F80
4080
8080
8080
8080
4080
3F80
ENDCHAR
STARTCHAR uni1EB6
ENCODING 7862
SWIDTH 500 0
DWIDTH 12 0
BBX 9 23 1 -4
BITMAP
4100
4100
3E00
0000
3E00
4100
8080
8080
8080
8080
8080
8080
FF80
8080
8080
8080
8080
8080
8080
0000
0800
0800
0800
ENDCHAR
STARTCHAR uni1EB7
ENCODING 7863
SWIDTH 500 0
DWIDTH 12 0
BBX 9 19 1 -4
BITMAP
4100
4100
3E00
0000
7E00
0100
0080
0080
3F80
4080
8080
8080
8080
4080
3F80
0000
0800
0800
0800
ENDCHAR
STARTCHAR uni1EBA
ENCODING 7866
SWIDTH 500 0
DWIDTH 12 0
BBX 9 19 1 0
BITMAP
1C00
0400
0800
0000
FF80
8000
8000
8000
8000
8000
8000
FE00
8000
8000
8000
8000
8000
8000
FF80
ENDCHAR
STARTCHAR uni1EBB
ENCODING 7867
SWIDTH 500 0
DWIDTH 12 0
BBX 9 15 1 0
BITMAP
1C00
0400
0800
0000
3E00
4100
8080
8080
8080
FF80
8000
8000
8000
4080
3F00
ENDCHAR
STARTCHAR uni1EBE
ENCODING 7870
SWIDTH 500 0
DWIDTH 12 0
BBX 9 19 1 0
BITMAP
0080
1D00
2200
4100
0000
FF80
8000
8000
8000
8000
8000
FE00
8000
8000
8000
8000
8000
8000
FF80
ENDCHAR
STARTCHAR uni1EBF
ENCODING 7871
SWIDTH 500 0
DWIDTH 12 0
BBX 9 16 1 0
BITMAP
0080
1D00
2200
4100
0000
3E00
4100
8080
8080
8080
FF80
8000
8000
8000
4080
3F00
ENDCHAR
STARTCHAR uni1EC0
ENCODING 7872
SWIDTH 500 0
DWIDTH 12 0
BBX 9 19 1 0
BITMAP
8000
5C00
2200
4100
0000
FF80
8000
8000
8000
8000
8000
FE00
8000
8000
8000
8000
8000
8000
FF80
ENDCHAR
STARTCHAR uni1EC1
ENCODING 7873
SWIDTH 500 0
DWIDTH 12 0
BBX 9 16 1 0
BITMAP
8000
5C00
2200
4100
0000
3E00
4100
8080
8080
8080
FF80
8000
8000
8000
4080
3F00
ENDCHAR
STARTCHAR uni1EC2
ENCODING 7874
SWIDTH 500 0
DWIDTH 12 0
BBX 9 19 1 0
BITMAP
0380
0080
1D00
2200
4100
0000
FF80
8000
8000
8000
8000
FE00
8000
8000
8000
8000
8000
8000
FF80
ENDCHAR
STARTCHAR uni1EC3
ENCODING 7875
SWIDTH 500 0
DWIDTH 12 0
BBX 9 17 1 0
BITMAP
0380
0080
1D00
2200
4100
0000
3E00
4100
8080
8080
8080
FF80
8000
8000
8000
4080
3F00
ENDCHAR
STARTCHAR uni1EC4
ENCODING 7876
SWIDTH 500 0
DWIDTH 12 0
BBX 10 19 1 0
BITMAP
0340
1C80
2200
4100
0000
FF80
8000
8000
8000
8000
8000
FE00
8000
8000
8000
8000
8000
8000
FF80
ENDCHAR
STARTCHAR uni1EC5
ENCODING 7877
SWIDTH 500 0
DWIDTH 12 0
BBX 9 19 1 0
BITMAP
3100
4900
4600
0000
1C00
2200
4100
0000
3E00
4100
8080
8080
8080
FF80
8000
8000
8000
4080
3F00
ENDCHAR
STARTCHAR uni1EC6
ENCODING 7878
SWIDTH 500 0
DWIDTH 12 0
BBX 9 23 1 -4
BITMAP
1C00
2200
4100
0000
FF80
8000
8000
8000
8000
8000
8000
FE00
8000
8000
8000
8000
8000
8000
FF80
0000
0800
0800
0800
ENDCHAR
STARTCHAR uni1EC7
ENCODING 7879
SWIDTH 500 0
DWIDTH 12 0
BBX 9 19 1 -4
BITMAP
1C00
2200
4100
0000
3E00
4100
8080
8080
8080
FF80
8000
8000
8000
4080
3F00
0000
0800
0800
0800
ENDCHAR
STARTCHAR uni1EC8
ENCODING 7880
SWIDTH 500 0
DWIDTH 12 0
BBX 5 19 3 0
BITMAP
70
10
20
00
F8
20
20
20
20
20
20
20
20
20
20
20
20
20
F8
ENDCHAR
STARTCHAR uni1EC9
ENCODING 7881
SWIDTH 500 0
DWIDTH 12 0
BBX 5 15 3 0
BITMAP
70
10
20
00
E0
20
20
20
20
20
20
20
20
20
F8
ENDCHAR
STARTCHAR uni1ECA
ENCODING 7882
SWIDTH 500 0
DWIDTH 12 0
BBX 5 19 3 -4
BITMAP
F8
20
20
20
20
20
20
20
20
20
20
20
20
20
F8
00
20
20
20
ENDCHAR
STARTCHAR uni1ECB
ENCODING 7883
SWIDTH 500 0
DWIDTH 12 0
BBX 5 19 3 -4
BITMAP
20
20
20
00
E0
20
20
20
20
20
20
20
20
20
F8
00
20
20
20
ENDCHAR
STARTCHAR uni1ECE
ENCODING 7886
SWIDTH 500 0
DWIDTH 12 0
BBX 9 19 1 0
BITMAP
1C00
0400
0800
0000
3E00
4100
8080
8080
8080
8080
8080
8080
8080
8080
8080
8080
8080
4100
3E00
ENDCHAR
STARTCHAR uni1ECF
ENCODING 7887
SWIDTH 500 0
DWIDTH 12 0
BBX 9 15 1 0
BITMAP
1C00
0400
0800
0000
3E00
4100
8080
8080
8080
8080
8080
8080
8080
4100
3E00
ENDCHAR
STARTCHAR uni1ED0
ENCODING 7888
SWIDTH 500 0
DWIDTH 12 0
BBX 9 19 1 0
BITMAP
0080
1D00
2200
4100
3E00
4100
8080
8080
8080
8080
8080
8080
8080
8080
8080
8080
8080
4100
3E00
ENDCHAR
STARTCHAR uni1ED1
ENCODING 7889
SWIDTH 500 0
DWIDTH 12 0
BBX 9 16 1 0
BITMAP
0080
1D00
2200
4100
0000
3E00
4100
8080
8080
8080
8080
8080
8080
8080
4100
3E00
ENDCHAR
STARTCHAR uni1ED2
ENCODING 7890
SWIDTH 500 0
DWIDTH 12 0
BBX 9 19 1 0
BITMAP
8000
5C00
2200
4100
3E00
4100
8080
8080
8080
8080
8080
8080
8080
8080
8080
8080
8080
4100
3E00
ENDCHAR
STARTCHAR uni1ED3
ENCODING 7891
SWIDTH 500 0
DWIDTH 12 0
BBX 9 16 1 0
BITMAP
8000
5C00
2200
4100
0000
3E00
4100
8080
8080
8080
8080
8080
8080
8080
4100
3E00
ENDCHAR
STARTCHAR uni1ED4
ENCODING 7892
SWIDTH 500 0
DWIDTH 12 0
BBX 9 19 1 0
BITMAP
0180
1C80
2200
4100
3E00
4100
8080
8080
8080
8080
8080
8080
8080
8080
8080
8080
8080
4100
3E00
ENDCHAR
STARTCHAR uni1ED5
ENCODING 7893
SWIDTH 500 0
DWIDTH 12 0
BBX 9 17 1 0
BITMAP
0380
0080
1D00
2200
4100
0000
3E00
4100
8080
8080
8080
8080
8080
8080
8080
4100
3E00
ENDCHAR
STARTCHAR uni1ED6
ENCODING 7894
SWIDTH 500 0
DWIDTH 12 0
BBX 10 19 1 0
BITMAP
0340
1C80
2200
4100
3E00
4100
8080
8080
8080
8080
8080
8080
8080
8080
8080
8080
8080
4100
3E00
ENDCHAR
STARTCHAR uni1ED7
ENCODING 7895
SWIDTH 500 0
DWIDTH 12 0
BBX 9 19 1 0
BITMAP
3100
4900
4600
0000
1C00
2200
4100
0000
3E00
4100
8080
8080
8080
8080
8080
8080
8080
4100
3E00
ENDCHAR
STARTCHAR uni1ED8
ENCODING 7896
SWIDTH 500 0
DWIDTH 12 0
BBX 9 23 1 -4
BITMAP
1C00
2200
4100
0000
3E00
4100
8080
8080
8080
8080
8080
8080
8080
8080
8080
8080
8080
4100
3E00
0000
0800
0800
0800
ENDCHAR
STARTCHAR uni1ED9
ENCODING 7897
SWIDTH 500 0
DWIDTH 12 0
BBX 9 19 1 -4
BITMAP
1C00
2200
4100
0000
3E00
4100
8080
8080
8080
8080
8080
8080
8080
4100
3E00
0000
0800
0800
0800
ENDCHAR
STARTCHAR uni1EDA
ENCODING 7898
SWIDTH 500 0
DWIDTH 12 0
BBX 11 18 1 0
BITMAP
0400
0800
0020
3E20
4120
80A0
80C0
8080
8080
8080
8080
8080
8080
8080
8080
8080
4100
3E00
ENDCHAR
STARTCHAR uni1EDB
ENCODING 7899
SWIDTH 500 0
DWIDTH 12 0
BBX 11 14 1 0
BITMAP
0400
0800
0020
3E20
4120
80C0
8080
8080
8080
8080
8080
8080
4100
3E00
ENDCHAR
STARTCHAR uni1EDC
ENCODING 7900
SWIDTH 500 0
DWIDTH 12 0
BBX 11 18 1 0
BITMAP
1000
0800
0020
3E20
4120
80A0
80C0
8080
8080
8080
8080
8080
8080
8080
8080
8080
4100
3E00
ENDCHAR
STARTCHAR uni1EDD
ENCODING 7901
SWIDTH 500 0
DWIDTH 12 0
BBX 11 14 1 0
BITMAP
1000
0800
0020
3E20
4120
80A0
80C0
8080
8080
8080
8080
8080
4100
3E00
ENDCHAR
STARTCHAR uni1EDE
ENCODING 7902
SWIDTH 500 0
DWIDTH 12 0
BBX 11 19 1 0
BITMAP
1C00
0400
0800
0020
3E20
4120
80A0
80C0
8080
8080
8080
8080
8080
8080
8080
8080
8080
4100
3E00
ENDCHAR
STARTCHAR uni1EDF
ENCODING 7903
SWIDTH 500 0
DWIDTH 12 0
BBX 11 15 1 0
BITMAP
1C00
0400
0800
0020
3E20
4120
80A0
80C0
8080
8080
8080
8080
8080
4100
3E00
ENDCHAR
STARTCHAR uni1EE0
ENCODING 7904
SWIDTH 500 0
DWIDTH 12 0
BBX 11 19 1 0
BITMAP
3100
4900
4600
0020
3E20
4120
80A0
80C0
8080
8080
8080
8080
8080
8080
8080
8080
8080
4100
3E00
ENDCHAR
STARTCHAR uni1EE1
ENCODING 7905
SWIDTH 500 0
DWIDTH 12 0
BBX 11 15 1 0
BITMAP
3100
4900
4600
0020
3E20
4120
80A0
80C0
8080
8080
8080
8080
8080
4100
3E00
ENDCHAR
STARTCHAR uni1EE2
ENCODING 7906
SWIDTH 500 0
DWIDTH 12 0
BBX 11 20 1 -4
BITMAP
0020
3E20
4120
80A0
80C0
8080
8080
8080
8080
8080
8080
8080
8080
8080
4100
3E00
0000
0800
0800
0800
ENDCHAR
STARTCHAR uni1EE3
ENCODING 7907
SWIDTH 500 0
DWIDTH 12 0
BBX 11 16 1 -4
BITMAP
0020
3E20
4120
80A0
80C0
8080
8080
8080
8080
8080
4100
3E00
0000
0800
0800
0800
ENDCHAR
STARTCHAR uni1EE4
ENCODING 7908
SWIDTH 500 0
DWIDTH 12 0
BBX 9 19 1 -4
BITMAP
8080
8080
8080
8080
8080
8080
8080
8080
8080
8080
8080
8080
8080
4100
3E00
0000
0800
0800
0800
ENDCHAR
STARTCHAR uni1EE5
ENCODING 7909
SWIDTH 500 0
DWIDTH 12 0
BBX 9 15 1 -4
BITMAP
8080
8080
8080
8080
8080
8080
8080
8080
8080
4080
3F80
0000
0800
0800
0800
ENDCHAR
STARTCHAR uni1EE6
ENCODING 7910
SWIDTH 500 0
DWIDTH 12 0
BBX 9 19 1 0
BITMAP
1C00
0400
0800
0000
8080
8080
8080
8080
8080
8080
8080
8080
8080
8080
8080
8080
8080
4100
3E00
ENDCHAR
STARTCHAR uni1EE7
ENCODING 7911
SWIDTH 500 0
DWIDTH 12 0
BBX 9 15 1 0
BITMAP
1C00
0400
0800
0000
8080
8080
8080
8080
8080
8080
8080
8080
8080
4080
3F80
ENDCHAR
STARTCHAR uni1EE8
ENCODING 7912
SWIDTH 500 0
DWIDTH 12 0
BBX 11 18 1 0
BITMAP
0400
0800
0020
80A0
80C0
8080
8080
8080
8080
8080
8080
8080
8080
8080
8080
8080
4100
3E00
ENDCHAR
STARTCHAR uni1EE9
ENCODING 7913
SWIDTH 500 0
DWIDTH 12 0
BBX 11 14 1 0
BITMAP
0400
0800
0020
80A0
80C0
8080
8080
8080
8080
8080
8080
8080
4080
3F80
ENDCHAR
STARTCHAR uni1EEA
ENCODING 7914
SWIDTH 500 0
DWIDTH 12 0
BBX 11 18 1 0
BITMAP
1000
0800
0020
80A0
80C0
8080
8080
8080
8080
8080
8080
8080
8080
8080
8080
8080
4100
3E00
ENDCHAR
STARTCHAR uni1EEB
ENCODING 7915
SWIDTH 500 0
DWIDTH 12 0
BBX 11 14 1 0
BITMAP
1000
0800
0020
80A0
80C0
8080
8080
8080
8080
8080
8080
8080
4080
3F80
ENDCHAR
STARTCHAR uni1EEC
ENCODING 7916
SWIDTH 500 0
DWIDTH 12 0
BBX 11 19 1 0
BITMAP
1C00
0400
0800
0020
80A0
80C0
8080
8080
8080
8080
8080
8080
8080
8080
8080
8080
8080
4100
3E00
ENDCHAR
STARTCHAR uni1EED
ENCODING 7917
SWIDTH 500 0
DWIDTH 12 0
BBX 11 15 1 0
BITMAP
1C00
0400
0800
0020
80A0
80C0
8080
8080
8080
8080
8080
8080
8080
4080
3F80
ENDCHAR
STARTCHAR uni1EEE
ENCODING 7918
SWIDTH 500 0
DWIDTH 12 0
BBX 11 19 1 0
BITMAP
3100
4900
4600
0020
80A0
80C0
8080
8080
8080
8080
8080
8080
8080
8080
8080
8080
8080
4100
3E00
ENDCHAR
STARTCHAR uni1EEF
ENCODING 7919
SWIDTH 500 0
DWIDTH 12 0
BBX 11 15 1 0
BITMAP
3100
4900
4600
0020
80A0
80C0
8080
8080
8080
8080
8080
8080
8080
4080
3F80
ENDCHAR
STARTCHAR uni1EF0
ENCODING 7920
SWIDTH 500 0
DWIDTH 12 0
BBX 11 20 1 -4
BITMAP
0020
80A0
80C0
8080
8080
8080
8080
8080
8080
8080
8080
8080
8080
8080
4100
3E00
0000
0800
0800
0800
ENDCHAR
STARTCHAR uni1EF1
ENCODING 7921
SWIDTH 500 0
DWIDTH 12 0
BBX 11 16 1 -4
BITMAP
0020
80A0
80C0
8080
8080
8080
8080
8080
8080
8080
4080
3F80
0000
0800
0800
0800
ENDCHAR
STARTCHAR Ygrave
ENCODING 7922
SWIDTH 500 0
DWIDTH 12 0
BBX 9 18 1 0
BITMAP
1000
0800
0000
8080
8080
4100
4100
2200
2200
1400
0800
0800
0800
0800
0800
0800
0800
0800
ENDCHAR
STARTCHAR ygrave
ENCODING 7923
SWIDTH 500 0
DWIDTH 12 0
BBX 9 18 1 -4
BITMAP
1000
0800
0000
8080
8080
8080
8080
8080
8080
8080
8080
8080
4180
3E80
0080
0080
0100
7E00
ENDCHAR
STARTCHAR uni1EF4
ENCODING 7924
SWIDTH 500 0
DWIDTH 12 0
BBX 9 19 1 -4
BITMAP
8080
8080
4100
4100
2200
2200
1400
0800
0800
0800
0800
0800
0800
0800
0800
0000
0800
0800
0800
ENDCHAR
STARTCHAR uni1EF5
ENCODING 7925
SWIDTH 500 0
DWIDTH 12 0
BBX 9 16 1 -5
BITMAP
8080
8080
8080
8080
8080
8080
8080
8080
8080
4180
3E80
0080
0880
0900
7E00
0800
ENDCHAR
STARTCHAR uni1EF6
ENCODING 7926
SWIDTH 500 0
DWIDTH 12 0
BBX 9 19 1 0
BITMAP
1C00
0400
0800
0000
8080
8080
4100
4100
2200
2200
1400
0800
0800
0800
0800
0800
0800
0800
0800
ENDCHAR
STARTCHAR uni1EF7
ENCODING 7927
SWIDTH 500 0
DWIDTH 12 0
BBX 9 19 1 -4
BITMAP
1C00
0400
0800
0000
8080
8080
8080
8080
8080
8080
8080
8080
8080
4180
3E80
0080
0080
0100
7E00
ENDCHAR
STARTCHAR Ytilde
ENCODING 7928
SWIDTH 500 0
DWIDTH 12 0
BBX 12 24 0 -5
BITMAP
1880
2480
2300
0000
4040
4040
2080
2080
1100
1100
0A00
0400
0400
0400
0400
0400
0400
0400
0400
0000
0000
0000
0000
0000
ENDCHAR
STARTCHAR ytilde
ENCODING 7929
SWIDTH 500 0
DWIDTH 12 0
BBX 12 24 0 -5
BITMAP
0000
0000
0000
0000
1880
2480
2300
0000
4040
4040
4040
4040
4040
4040
4040
4040
4040
20C0
1F40
0040
0040
0080
3F00
0000
ENDCHAR
STARTCHAR uni2000
ENCODING 8192
SWIDTH 500 0
DWIDTH 12 0
BBX 12 24 0 -5
BITMAP
0000
0000
0000
0000
0000
0000
0000
0000
0000
0000
0000
0000
0000
0000
0000
0000
0000
0000
0000
0000
0000
0000
0000
0000
ENDCHAR
STARTCHAR uni2001
ENCODING 8193
SWIDTH 500 0
DWIDTH 12 0
BBX 12 24 0 -5
BITMAP
0000
0000
0000
0000
0000
0000
0000
0000
0000
0000
0000
0000
0000
0000
0000
0000
0000
0000
0000
0000
0000
0000
0000
0000
ENDCHAR
STARTCHAR enspace
ENCODING 8194
SWIDTH 500 0
DWIDTH 12 0
BBX 12 24 0 -5
BITMAP
0000
0000
0000
0000
0000
0000
0000
0000
0000
0000
0000
0000
0000
0000
0000
0000
0000
0000
0000
0000
0000
0000
0000
0000
ENDCHAR
STARTCHAR uni2003
ENCODING 8195
SWIDTH 500 0
DWIDTH 12 0
BBX 12 24 0 -5
BITMAP
0000
0000
0000
0000
0000
0000
0000
0000
0000
0000
0000
0000
0000
0000
0000
0000
0000
0000
0000
0000
0000
0000
0000
0000
ENDCHAR
STARTCHAR uni2004
ENCODING 8196
SWIDTH 500 0
DWIDTH 12 0
BBX 12 24 0 -5
BITMAP
0000
0000
0000
0000
0000
0000
0000
0000
0000
0000
0000
0000
0000
0000
0000
0000
0000
0000
0000
0000
0000
0000
0000
0000
ENDCHAR
STARTCHAR uni2005
ENCODING 8197
SWIDTH 500 0
DWIDTH 12 0
BBX 12 24 0 -5
BITMAP
0000
0000
0000
0000
0000
0000
0000
0000
0000
0000
0000
0000
0000
0000
0000
0000
0000
0000
0000
0000
0000
0000
0000
0000
ENDCHAR
STARTCHAR uni2006
ENCODING 8198
SWIDTH 500 0
DWIDTH 12 0
BBX 12 24 0 -5
BITMAP
0000
0000
0000
0000
0000
0000
0000
0000
0000
0000
0000
0000
0000
0000
0000
0000
0000
0000
0000
0000
0000
0000
0000
0000
ENDCHAR
STARTCHAR uni2007
ENCODING 8199
SWIDTH 500 0
DWIDTH 12 0
BBX 12 24 0 -5
BITMAP
0000
0000
0000
0000
0000
0000
0000
0000
0000
0000
0000
0000
0000
0000
0000
0000
0000
0000
0000
0000
0000
0000
0000
0000
ENDCHAR
STARTCHAR uni2008
ENCODING 8200
SWIDTH 500 0
DWIDTH 12 0
BBX 12 24 0 -5
BITMAP
0000
0000
0000
0000
0000
0000
0000
0000
0000
0000
0000
0000
0000
0000
0000
0000
0000
0000
0000
0000
0000
0000
0000
0000
ENDCHAR
STARTCHAR uni2009
ENCODING 8201
SWIDTH 500 0
DWIDTH 12 0
BBX 12 24 0 -5
BITMAP
0000
0000
0000
0000
0000
0000
0000
0000
0000
0000
0000
0000
0000
0000
0000
0000
0000
0000
0000
0000
0000
0000
0000
0000
ENDCHAR
STARTCHAR uni200A
ENCODING 8202
SWIDTH 500 0
DWIDTH 12 0
BBX 12 24 0 -5
BITMAP
0000
0000
0000
0000
0000
0000
0000
0000
0000
0000
0000
0000
0000
0000
0000
0000
0000
0000
0000
0000
0000
0000
0000
0000
ENDCHAR
STARTCHAR hyphentwo
ENCODING 8208
SWIDTH 500 0
DWIDTH 12 0
BBX 12 24 0 -5
BITMAP
0000
0000
0000
0000
0000
0000
0000
0000
0000
0000
0000
3F80
0000
0000
0000
0000
0000
0000
0000
0000
0000
0000
0000
0000
ENDCHAR
STARTCHAR uni2011
ENCODING 8209
SWIDTH 500 0
DWIDTH 12 0
BBX 12 24 0 -5
BITMAP
0000
0000
0000
0000
0000
0000
0000
0000
0000
0000
0000
3F80
0000
0000
0000
0000
0000
0000
0000
0000
0000
0000
0000
0000
ENDCHAR
STARTCHAR figuredash
ENCODING 8210
SWIDTH 500 0
DWIDTH 12 0
BBX 12 24 0 -5
BITMAP
0000
0000
0000
0000
0000
0000
0000
0000
0000
0000
0000
7FC0
0000
0000
0000
0000
0000
0000
0000
0000
0000
0000
0000
0000
ENDCHAR
STARTCHAR endash
ENCODING 8211
SWIDTH 500 0
DWIDTH 12 0
BBX 12 24 0 -5
BITMAP
0000
0000
0000
0000
0000
0000
0000
0000
0000
0000
0000
7FC0
0000
0000
0000
0000
0000
0000
0000
0000
0000
0000
0000
0000
ENDCHAR
STARTCHAR emdash
ENCODING 8212
SWIDTH 500 0
DWIDTH 12 0
BBX 12 24 0 -5
BITMAP
0000
0000
0000
0000
0000
0000
0000
0000
0000
0000
0000
7FE0
0000
0000
0000
0000
0000
0000
0000
0000
0000
0000
0000
0000
ENDCHAR
STARTCHAR horizontalbar
ENCODING 8213
SWIDTH 500 0
DWIDTH 12 0
BBX 12 24 0 -5
BITMAP
0000
0000
0000
0000
0000
0000
0000
0000
0000
0000
0000
7FE0
0000
0000
0000
0000
0000
0000
0000
0000
0000
0000
0000
0000
ENDCHAR
STARTCHAR dblverticalbar
ENCODING 8214
SWIDTH 500 0
DWIDTH 12 0
BBX 12 24 0 -5
BITMAP
0000
0000
0000
0000
0900
0900
0900
0900
0900
0900
0900
0900
0900
0900
0900
0900
0900
0900
0900
0000
0000
0000
0000
0000
ENDCHAR
STARTCHAR underscoredbl
ENCODING 8215
SWIDTH 500 0
DWIDTH 12 0
BBX 12 24 0 -5
BITMAP
0000
0000
0000
0000
0000
0000
0000
0000
0000
0000
0000
0000
0000
0000
0000
0000
0000
0000
0000
0000
7FC0
0000
0000
7FC0
ENDCHAR
STARTCHAR quoteleft
ENCODING 8216
SWIDTH 500 0
DWIDTH 12 0
BBX 12 24 0 -5
BITMAP
0000
0000
0200
0400
0400
0400
0400
0000
0000
0000
0000
0000
0000
0000
0000
0000
0000
0000
0000
0000
0000
0000
0000
0000
ENDCHAR
STARTCHAR quoteright
ENCODING 8217
SWIDTH 500 0
DWIDTH 12 0
BBX 12 24 0 -5
BITMAP
0000
0000
0400
0400
0400
0400
0800
0000
0000
0000
0000
0000
0000
0000
0000
0000
0000
0000
0000
0000
0000
0000
0000
0000
ENDCHAR
STARTCHAR quotesinglbase
ENCODING 8218
SWIDTH 500 0
DWIDTH 12 0
BBX 12 24 0 -5
BITMAP
0000
0000
0000
0000
0000
0000
0000
0000
0000
0000
0000
0000
0000
0000
0000
0400
0400
0400
0400
0800
0000
0000
0000
0000
ENDCHAR
STARTCHAR quotedblleft
ENCODING 8220
SWIDTH 500 0
DWIDTH 12 0
BBX 12 24 0 -5
BITMAP
0000
0000
0880
1100
1100
1100
1100
0000
0000
0000
0000
0000
0000
0000
0000
0000
0000
0000
0000
0000
0000
0000
0000
0000
ENDCHAR
STARTCHAR quotedblright
ENCODING 8221
SWIDTH 500 0
DWIDTH 12 0
BBX 12 24 0 -5
BITMAP
0000
0000
1100
1100
1100
1100
2200
0000
0000
0000
0000
0000
0000
0000
0000
0000
0000
0000
0000
0000
0000
0000
0000
0000
ENDCHAR
STARTCHAR quotedblbase
ENCODING 8222
SWIDTH 500 0
DWIDTH 12 0
BBX 12 24 0 -5
BITMAP
0000
0000
0000
0000
0000
0000
0000
0000
0000
0000
0000
0000
0000
0000
0000
1100
1100
1100
1100
2200
0000
0000
0000
0000
ENDCHAR
STARTCHAR dagger
ENCODING 8224
SWIDTH 500 0
DWIDTH 12 0
BBX 12 24 0 -5
BITMAP
0000
0000
0000
0000
0400
0400
0400
7FC0
0400
0400
0400
0400
0400
0400
0400
0400
0400
0400
0400
0000
0000
0000
0000
0000
ENDCHAR
STARTCHAR daggerdbl
ENCODING 8225
SWIDTH 500 0
DWIDTH 12 0
BBX 12 24 0 -5
BITMAP
0000
0000
0000
0000
0400
0400
0400
7FC0
0400
0400
0400
0400
0400
0400
0400
7FC0
0400
0400
0400
0000
0000
0000
0000
0000
ENDCHAR
STARTCHAR bullet
ENCODING 8226
SWIDTH 500 0
DWIDTH 12 0
BBX 12 24 0 -5
BITMAP
0000
0000
0000
0000
0000
0000
0000
0000
0000
0F00
1F80
1F80
1F80
1F80
0F00
0000
0000
0000
0000
0000
0000
0000
0000
0000
ENDCHAR
STARTCHAR ellipsis
ENCODING 8230
SWIDTH 500 0
DWIDTH 12 0
BBX 12 24 0 -5
BITMAP
0000
0000
0000
0000
0000
0000
0000
0000
0000
0000
0000
0000
0000
0000
0000
0000
4440
4440
4440
0000
0000
0000
0000
0000
ENDCHAR
STARTCHAR perthousand
ENCODING 8240
SWIDTH 500 0
DWIDTH 12 0
BBX 12 24 0 -5
BITMAP
0000
0000
0000
0000
0000
3100
4900
4A00
3200
0400
0400
0800
0800
1000
1000
26C0
2920
4920
46C0
0000
0000
0000
0000
0000
ENDCHAR
STARTCHAR minute
ENCODING 8242
SWIDTH 500 0
DWIDTH 12 0
BBX 12 24 0 -5
BITMAP
0000
0000
0400
0400
0400
0400
0400
0400
0000
0000
0000
0000
0000
0000
0000
0000
0000
0000
0000
0000
0000
0000
0000
0000
ENDCHAR
STARTCHAR second
ENCODING 8243
SWIDTH 500 0
DWIDTH 12 0
BBX 12 24 0 -5
BITMAP
0000
0000
1100
1100
1100
1100
1100
1100
0000
0000
0000
0000
0000
0000
0000
0000
0000
0000
0000
0000
0000
0000
0000
0000
ENDCHAR
STARTCHAR guilsinglleft
ENCODING 8249
SWIDTH 500 0
DWIDTH 12 0
BBX 12 24 0 -5
BITMAP
0000
0000
0000
0000
0000
0000
0000
0000
0080
0100
0200
0400
0800
1000
0800
0400
0200
0100
0080
0000
0000
0000
0000
0000
ENDCHAR
STARTCHAR guilsinglright
ENCODING 8250
SWIDTH 500 0
DWIDTH 12 0
BBX 12 24 0 -5
BITMAP
0000
0000
0000
0000
0000
0000
0000
0000
1000
0800
0400
0200
0100
0080
0100
0200
0400
0800
1000
0000
0000
0000
0000
0000
ENDCHAR
STARTCHAR exclamdbl
ENCODING 8252
SWIDTH 500 0
DWIDTH 12 0
BBX 12 24 0 -5
BITMAP
0000
0000
0000
0000
1100
1100
1100
1100
1100
1100
1100
1100
1100
1100
0000
0000
1100
1100
1100
0000
0000
0000
0000
0000
ENDCHAR
STARTCHAR overline
ENCODING 8254
SWIDTH 500 0
DWIDTH 12 0
BBX 12 24 0 -5
BITMAP
0000
7FC0
0000
0000
0000
0000
0000
0000
0000
0000
0000
0000
0000
0000
0000
0000
0000
0000
0000
0000
0000
0000
0000
0000
ENDCHAR
STARTCHAR nsuperior
ENCODING 8319
SWIDTH 500 0
DWIDTH 12 0
BBX 12 24 0 -5
BITMAP
0000
0000
1E00
1100
1100
1100
1100
1100
1100
0000
0000
0000
0000
0000
0000
0000
0000
0000
0000
0000
0000
0000
0000
0000
ENDCHAR
STARTCHAR peseta
ENCODING 8359
SWIDTH 500 0
DWIDTH 12 0
BBX 12 24 0 -5
BITMAP
0000
0000
0000
0000
7C00
4200
4100
4100
4100
4100
4200
7C80
4080
43E0
4080
4080
4080
4080
4060
0000
0000
0000
0000
0000
ENDCHAR
STARTCHAR Euro
ENCODING 8364
SWIDTH 500 0
DWIDTH 12 0
BBX 12 24 0 -5
BITMAP
0000
0000
0000
0000
0000
0F00
1080
2040
4000
4000
FE00
4000
4000
FE00
4000
4000
2040
1080
0F00
0000
0000
0000
0000
0000
ENDCHAR
STARTCHAR uni20AE
ENCODING 8366
SWIDTH 500 0
DWIDTH 12 0
BBX 12 24 0 -5
BITMAP
0000
0000
0000
0000
7FC0
0400
0400
0400
0580
0600
0C00
3580
0600
0C00
3400
0400
0400
0400
0400
0000
0000
0000
0000
0000
ENDCHAR
STARTCHAR numero
ENCODING 8470
SWIDTH 500 0
DWIDTH 12 0
BBX 12 24 0 -5
BITMAP
0000
0000
0000
0000
8200
8260
C290
C290
A260
A200
9200
9200
8A00
8AF0
8600
8600
82F0
8200
8200
0000
0000
0000
0000
0000
ENDCHAR
STARTCHAR trademark
ENCODING 8482
SWIDTH 500 0
DWIDTH 12 0
BBX 12 24 0 -5
BITMAP
0000
0000
0000
0000
FA20
2360
22A0
2220
2220
2220
0000
0000
0000
0000
0000
0000
0000
0000
0000
0000
0000
0000
0000
0000
ENDCHAR
STARTCHAR Omega
ENCODING 8486
SWIDTH 500 0
DWIDTH 12 0
BBX 12 24 0 -5
BITMAP
0000
0000
0000
0000
1F00
2080
4040
4040
4040
4040
4040
2080
1100
1100
1100
1100
1100
1100
71C0
0000
0000
0000
0000
0000
ENDCHAR
STARTCHAR arrowleft
ENCODING 8592
SWIDTH 500 0
DWIDTH 12 0
BBX 12 24 0 -5
BITMAP
0000
0000
0000
0000
0000
0000
0000
0800
1800
3800
7800
FFE0
7800
3800
1800
0800
0000
0000
0000
0000
0000
0000
0000
0000
ENDCHAR
STARTCHAR arrowup
ENCODING 8593
SWIDTH 500 0
DWIDTH 12 0
BBX 12 24 0 -5
BITMAP
0000
0000
0000
0000
0400
0E00
1F00
3F80
7FC0
0400
0400
0400
0400
0400
0400
0400
0400
0400
0400
0000
0000
0000
0000
0000
ENDCHAR
STARTCHAR arrowright
ENCODING 8594
SWIDTH 500 0
DWIDTH 12 0
BBX 12 24 0 -5
BITMAP
0000
0000
0000
0000
0000
0000
0000
0200
0300
0380
03C0
FFE0
03C0
0380
0300
0200
0000
0000
0000
0000
0000
0000
0000
0000
ENDCHAR
STARTCHAR arrowdown
ENCODING 8595
SWIDTH 500 0
DWIDTH 12 0
BBX 12 24 0 -5
BITMAP
0000
0000
0000
0000
0400
0400
0400
0400
0400
0400
0400
0400
0400
0400
7FC0
3F80
1F00
0E00
0400
0000
0000
0000
0000
0000
ENDCHAR
STARTCHAR arrowboth
ENCODING 8596
SWIDTH 500 0
DWIDTH 12 0
BBX 12 24 0 -5
BITMAP
0000
0000
0000
0000
0000
0000
0000
0900
1980
39C0
79E0
FFF0
79E0
39C0
1980
0900
0000
0000
0000
0000
0000
0000
0000
0000
ENDCHAR
STARTCHAR arrowupdn
ENCODING 8597
SWIDTH 500 0
DWIDTH 12 0
BBX 12 24 0 -5
BITMAP
0000
0000
0000
0000
0400
0E00
1F00
3F80
7FC0
0400
0400
0400
0400
0400
7FC0
3F80
1F00
0E00
0400
0000
0000
0000
0000
0000
ENDCHAR
STARTCHAR arrowupdnbse
ENCODING 8616
SWIDTH 500 0
DWIDTH 12 0
BBX 12 24 0 -5
BITMAP
0000
0000
0000
0000
0400
0E00
1F00
3F80
7FC0
0400
0400
0400
0400
0400
7FC0
3F80
1F00
0E00
0400
7FC0
0000
0000
0000
0000
ENDCHAR
STARTCHAR carriagereturn
ENCODING 8629
SWIDTH 500 0
DWIDTH 12 0
BBX 12 24 0 -5
BITMAP
0000
0000
0000
0000
0020
0020
0020
0020
0020
0020
0820
1820
3820
7820
FFE0
7800
3800
1800
0800
0000
0000
0000
0000
0000
ENDCHAR
STARTCHAR arrowdblleft
ENCODING 8656
SWIDTH 500 0
DWIDTH 12 0
BBX 12 24 0 -5
BITMAP
0000
0000
0000
0000
0000
0000
0000
0800
1800
3800
7FE0
F800
F800
7FE0
3800
1800
0800
0000
0000
0000
0000
0000
0000
0000
ENDCHAR
STARTCHAR arrowdblup
ENCODING 8657
SWIDTH 500 0
DWIDTH 12 0
BBX 12 24 0 -5
BITMAP
0000
0000
0000
0000
0600
0F00
1F80
3FC0
7FE0
0900
0900
0900
0900
0900
0900
0900
0900
0900
0900
0000
0000
0000
0000
0000
ENDCHAR
STARTCHAR arrowdblright
ENCODING 8658
SWIDTH 500 0
DWIDTH 12 0
BBX 12 24 0 -5
BITMAP
0000
0000
0000
0000
0000
0000
0000
0200
0300
0380
FFC0
03E0
03E0
FFC0
0380
0300
0200
0000
0000
0000
0000
0000
0000
0000
ENDCHAR
STARTCHAR arrowdbldown
ENCODING 8659
SWIDTH 500 0
DWIDTH 12 0
BBX 12 24 0 -5
BITMAP
0000
0000
0000
0000
0900
0900
0900
0900
0900
0900
0900
0900
0900
0900
7FE0
3FC0
1F80
0F00
0600
0000
0000
0000
0000
0000
ENDCHAR
STARTCHAR arrowdblboth
ENCODING 8660
SWIDTH 500 0
DWIDTH 12 0
BBX 12 24 0 -5
BITMAP
0000
0000
0000
0000
0000
0000
0000
0900
1980
39C0
7FE0
F9F0
F9F0
7FE0
39C0
1980
0900
0000
0000
0000
0000
0000
0000
0000
ENDCHAR
STARTCHAR uni21D5
ENCODING 8661
SWIDTH 500 0
DWIDTH 12 0
BBX 12 24 0 -5
BITMAP
0000
0000
0000
0000
0600
0F00
1F80
3FC0
7FE0
0900
0900
0900
0900
0900
7FE0
3FC0
1F80
0F00
0600
0000
0000
0000
0000
0000
ENDCHAR
STARTCHAR emptyset
ENCODING 8709
SWIDTH 500 0
DWIDTH 12 0
BBX 12 24 0 -5
BITMAP
0000
0000
0000
0000
0000
0000
0020
1F40
2080
4140
4240
4440
4840
5040
2080
5F00
8000
0000
0000
0000
0000
0000
0000
0000
ENDCHAR
STARTCHAR Delta
ENCODING 8710
SWIDTH 500 0
DWIDTH 12 0
BBX 12 24 0 -5
BITMAP
0000
0000
0000
0000
0400
0400
0400
0A00
0A00
0A00
1100
1100
1100
2080
2080
2080
4040
4040
7FC0
0000
0000
0000
0000
0000
ENDCHAR
STARTCHAR element
ENCODING 8712
SWIDTH 500 0
DWIDTH 12 0
BBX 12 24 0 -5
BITMAP
0000
0000
0000
0000
0000
0000
0000
0000
1FC0
2000
4000
4000
4000
7E00
4000
4000
4000
2000
1FC0
0000
0000
0000
0000
0000
ENDCHAR
STARTCHAR minus
ENCODING 8722
SWIDTH 500 0
DWIDTH 12 0
BBX 12 24 0 -5
BITMAP
0000
0000
0000
0000
0000
0000
0000
0000
0000
0000
0000
7FC0
0000
0000
0000
0000
0000
0000
0000
0000
0000
0000
0000
0000
ENDCHAR
STARTCHAR bulletoperator
ENCODING 8729
SWIDTH 500 0
DWIDTH 12 0
BBX 12 24 0 -5
BITMAP
0000
0000
0000
0000
0000
0000
0000
0000
0000
0000
0600
0F00
0F00
0600
0000
0000
0000
0000
0000
0000
0000
0000
0000
0000
ENDCHAR
STARTCHAR radical
ENCODING 8730
SWIDTH 500 0
DWIDTH 12 0
BBX 12 24 0 -5
BITMAP
0000
0000
00E0
0080
0080
0080
0080
0080
0080
0080
4080
4080
4080
2080
1080
0880
0480
0280
0180
0000
0000
0000
0000
0000
ENDCHAR
STARTCHAR infinity
ENCODING 8734
SWIDTH 500 0
DWIDTH 12 0
BBX 12 24 0 -5
BITMAP
0000
0000
0000
0000
0000
0000
0000
3B80
4440
4440
4440
4440
4440
4440
4440
3B80
0000
0000
0000
0000
0000
0000
0000
0000
ENDCHAR
STARTCHAR orthogonal
ENCODING 8735
SWIDTH 500 0
DWIDTH 12 0
BBX 12 24 0 -5
BITMAP
0000
0000
0000
0000
0000
0000
0000
4000
4000
4000
4000
4000
4000
4000
4000
7FC0
0000
0000
0000
0000
0000
0000
0000
0000
ENDCHAR
STARTCHAR logicaland
ENCODING 8743
SWIDTH 500 0
DWIDTH 12 0
BBX 12 24 0 -5
BITMAP
0000
0000
0000
0000
0000
0000
0000
0000
0400
0400
0A00
0A00
1100
1100
2080
2080
2080
4040
4040
0000
0000
0000
0000
0000
ENDCHAR
STARTCHAR logicalor
ENCODING 8744
SWIDTH 500 0
DWIDTH 12 0
BBX 12 24 0 -5
BITMAP
0000
0000
0000
0000
0000
0000
0000
0000
4040
4040
2080
2080
2080
1100
1100
0A00
0A00
0400
0400
0000
0000
0000
0000
0000
ENDCHAR
STARTCHAR intersection
ENCODING 8745
SWIDTH 500 0
DWIDTH 12 0
BBX 12 24 0 -5
BITMAP
0000
0000
0000
0000
0000
0000
1F00
2080
4040
4040
4040
4040
4040
4040
4040
4040
4040
4040
4040
0000
0000
0000
0000
0000
ENDCHAR
STARTCHAR union
ENCODING 8746
SWIDTH 500 0
DWIDTH 12 0
BBX 12 24 0 -5
BITMAP
0000
0000
0000
0000
0000
0000
4040
4040
4040
4040
4040
4040
4040
4040
4040
4040
4040
2080
1F00
0000
0000
0000
0000
0000
ENDCHAR
STARTCHAR approxequal
ENCODING 8776
SWIDTH 500 0
DWIDTH 12 0
BBX 12 24 0 -5
BITMAP
0000
0000
0000
0000
0000
0000
0000
0000
3840
4440
4380
0000
3840
4440
4380
0000
0000
0000
0000
0000
0000
0000
0000
0000
ENDCHAR
STARTCHAR notequal
ENCODING 8800
SWIDTH 500 0
DWIDTH 12 0
BBX 12 24 0 -5
BITMAP
0000
0000
0000
0000
0000
0000
0000
0040
7FC0
0100
0200
0400
0800
1000
7FC0
4000
0000
0000
0000
0000
0000
0000
0000
0000
ENDCHAR
STARTCHAR equivalence
ENCODING 8801
SWIDTH 500 0
DWIDTH 12 0
BBX 12 24 0 -5
BITMAP
0000
0000
0000
0000
0000
0000
7FC0
0000
0000
0000
0000
7FC0
0000
0000
0000
0000
7FC0
0000
0000
0000
0000
0000
0000
0000
ENDCHAR
STARTCHAR lessequal
ENCODING 8804
SWIDTH 500 0
DWIDTH 12 0
BBX 12 24 0 -5
BITMAP
0000
0000
0000
0000
0080
0100
0200
0400
0800
1000
2000
1000
0800
0400
0200
0100
0080
0000
7FC0
0000
0000
0000
0000
0000
ENDCHAR
STARTCHAR greaterequal
ENCODING 8805
SWIDTH 500 0
DWIDTH 12 0
BBX 12 24 0 -5
BITMAP
0000
0000
0000
0000
2000
1000
0800
0400
0200
0100
0080
0100
0200
0400
0800
1000
2000
0000
7FC0
0000
0000
0000
0000
0000
ENDCHAR
STARTCHAR house
ENCODING 8962
SWIDTH 500 0
DWIDTH 12 0
BBX 12 24 0 -5
BITMAP
0000
0000
0000
0000
0000
0000
0400
0400
0A00
1100
1100
2080
2080
4040
4040
4040
4040
7FC0
0000
0000
0000
0000
0000
0000
ENDCHAR
STARTCHAR revlogicalnot
ENCODING 8976
SWIDTH 500 0
DWIDTH 12 0
BBX 12 24 0 -5
BITMAP
0000
0000
0000
0000
0000
0000
0000
0000
0000
7FC0
4000
4000
4000
4000
4000
0000
0000
0000
0000
0000
0000
0000
0000
0000
ENDCHAR
STARTCHAR integraltp
ENCODING 8992
SWIDTH 500 0
DWIDTH 12 0
BBX 12 24 0 -5
BITMAP
0000
0000
0000
0000
0380
0440
0440
0400
0400
0400
0400
0400
0400
0400
0400
0400
0400
0400
0400
0400
0400
0400
0400
0400
ENDCHAR
STARTCHAR integralbt
ENCODING 8993
SWIDTH 500 0
DWIDTH 12 0
BBX 12 24 0 -5
BITMAP
0400
0400
0400
0400
0400
0400
0400
0400
0400
0400
0400
0400
0400
0400
0400
0400
4400
4400
3800
0000
0000
0000
0000
0000
ENDCHAR
STARTCHAR uni23BA
ENCODING 9146
SWIDTH 500 0
DWIDTH 12 0
BBX 12 24 0 -5
BITMAP
FFF0
0000
0000
0000
0000
0000
0000
0000
0000
0000
0000
0000
0000
0000
0000
0000
0000
0000
0000
0000
0000
0000
0000
0000
ENDCHAR
STARTCHAR uni23BB
ENCODING 9147
SWIDTH 500 0
DWIDTH 12 0
BBX 12 24 0 -5
BITMAP
0000
0000
0000
0000
0000
0000
FFF0
0000
0000
0000
0000
0000
0000
0000
0000
0000
0000
0000
0000
0000
0000
0000
0000
0000
ENDCHAR
STARTCHAR uni23BC
ENCODING 9148
SWIDTH 500 0
DWIDTH 12 0
BBX 12 24 0 -5
BITMAP
0000
0000
0000
0000
0000
0000
0000
0000
0000
0000
0000
0000
0000
0000
0000
0000
0000
FFF0
0000
0000
0000
0000
0000
0000
ENDCHAR
STARTCHAR uni23BD
ENCODING 9149
SWIDTH 500 0
DWIDTH 12 0
BBX 12 24 0 -5
BITMAP
0000
0000
0000
0000
0000
0000
0000
0000
0000
0000
0000
0000
0000
0000
0000
0000
0000
0000
0000
0000
0000
0000
0000
FFF0
ENDCHAR
STARTCHAR uni2409
ENCODING 9225
SWIDTH 500 0
DWIDTH 12 0
BBX 12 24 0 -5
BITMAP
0000
0000
0000
4400
4400
4400
7C00
4400
4400
4400
0000
0000
07C0
0100
0100
0100
0100
0100
0100
0000
0000
0000
0000
0000
ENDCHAR
STARTCHAR uni240A
ENCODING 9226
SWIDTH 500 0
DWIDTH 12 0
BBX 12 24 0 -5
BITMAP
0000
0000
0000
4000
4000
4000
4000
4000
4000
7C00
0000
0000
07C0
0400
0400
0700
0400
0400
0400
0000
0000
0000
0000
0000
ENDCHAR
STARTCHAR uni240B
ENCODING 9227
SWIDTH 500 0
DWIDTH 12 0
BBX 12 24 0 -5
BITMAP
0000
0000
0000
4400
4400
4400
2800
2800
1000
1000
0000
0000
07C0
0100
0100
0100
0100
0100
0100
0000
0000
0000
0000
0000
ENDCHAR
STARTCHAR uni240C
ENCODING 9228
SWIDTH 500 0
DWIDTH 12 0
BBX 12 24 0 -5
BITMAP
0000
0000
0000
7C00
4000
4000
7000
4000
4000
4000
0000
0000
07C0
0400
0400
0700
0400
0400
0400
0000
0000
0000
0000
0000
ENDCHAR
STARTCHAR uni240D
ENCODING 9229
SWIDTH 500 0
DWIDTH 12 0
BBX 12 24 0 -5
BITMAP
0000
0000
0000
3800
4400
4000
4000
4000
4400
3800
0000
0000
0780
0440
0440
0780
0500
0480
0440
0000
0000
0000
0000
0000
ENDCHAR
STARTCHAR uni2424
ENCODING 9252
SWIDTH 500 0
DWIDTH 12 0
BBX 12 24 0 -5
BITMAP
0000
0000
0000
4400
4400
6400
5400
4C00
4400
4400
0000
0000
0400
0400
0400
0400
0400
0400
07C0
0000
0000
0000
0000
0000
ENDCHAR
STARTCHAR SF100000
ENCODING 9472
SWIDTH 500 0
DWIDTH 12 0
BBX 12 24 0 -5
BITMAP
0000
0000
0000
0000
0000
0000
0000
0000
0000
0000
0000
FFF0
0000
0000
0000
0000
0000
0000
0000
0000
0000
0000
0000
0000
ENDCHAR
STARTCHAR SF110000
ENCODING 9474
SWIDTH 500 0
DWIDTH 12 0
BBX 12 24 0 -5
BITMAP
0400
0400
0400
0400
0400
0400
0400
0400
0400
0400
0400
0400
0400
0400
0400
0400
0400
0400
0400
0400
0400
0400
0400
0400
ENDCHAR
STARTCHAR SF010000
ENCODING 9484
SWIDTH 500 0
DWIDTH 12 0
BBX 12 24 0 -5
BITMAP
0000
0000
0000
0000
0000
0000
0000
0000
0000
0000
0000
07F0
0400
0400
0400
0400
0400
0400
0400
0400
0400
0400
0400
0400
ENDCHAR
STARTCHAR SF030000
ENCODING 9488
SWIDTH 500 0
DWIDTH 12 0
BBX 12 24 0 -5
BITMAP
0000
0000
0000
0000
0000
0000
0000
0000
0000
0000
0000
FC00
0400
0400
0400
0400
0400
0400
0400
0400
0400
0400
0400
0400
ENDCHAR
STARTCHAR SF020000
ENCODING 9492
SWIDTH 500 0
DWIDTH 12 0
BBX 12 24 0 -5
BITMAP
0400
0400
0400
0400
0400
0400
0400
0400
0400
0400
0400
07F0
0000
0000
0000
0000
0000
0000
0000
0000
0000
0000
0000
0000
ENDCHAR
STARTCHAR SF040000
ENCODING 9496
SWIDTH 500 0
DWIDTH 12 0
BBX 12 24 0 -5
BITMAP
0400
0400
0400
0400
0400
0400
0400
0400
0400
0400
0400
FC00
0000
0000
0000
0000
0000
0000
0000
0000
0000
0000
0000
0000
ENDCHAR
STARTCHAR SF080000
ENCODING 9500
SWIDTH 500 0
DWIDTH 12 0
BBX 12 24 0 -5
BITMAP
0400
0400
0400
0400
0400
0400
0400
0400
0400
0400
0400
07F0
0400
0400
0400
0400
0400
0400
0400
0400
0400
0400
0400
0400
ENDCHAR
STARTCHAR SF090000
ENCODING 9508
SWIDTH 500 0
DWIDTH 12 0
BBX 12 24 0 -5
BITMAP
0400
0400
0400
0400
0400
0400
0400
0400
0400
0400
0400
FC00
0400
0400
0400
0400
0400
0400
0400
0400
0400
0400
0400
0400
ENDCHAR
STARTCHAR SF060000
ENCODING 9516
SWIDTH 500 0
DWIDTH 12 0
BBX 12 24 0 -5
BITMAP
0000
0000
0000
0000
0000
0000
0000
0000
0000
0000
0000
FFF0
0400
0400
0400
0400
0400
0400
0400
0400
0400
0400
0400
0400
ENDCHAR
STARTCHAR SF070000
ENCODING 9524
SWIDTH 500 0
DWIDTH 12 0
BBX 12 24 0 -5
BITMAP
0400
0400
0400
0400
0400
0400
0400
0400
0400
0400
0400
FFF0
0000
0000
0000
0000
0000
0000
0000
0000
0000
0000
0000
0000
ENDCHAR
STARTCHAR SF050000
ENCODING 9532
SWIDTH 500 0
DWIDTH 12 0
BBX 12 24 0 -5
BITMAP
0400
0400
0400
0400
0400
0400
0400
0400
0400
0400
0400
FFF0
0400
0400
0400
0400
0400
0400
0400
0400
0400
0400
0400
0400
ENDCHAR
STARTCHAR SF430000
ENCODING 9552
SWIDTH 500 0
DWIDTH 12 0
BBX 12 24 0 -5
BITMAP
0000
0000
0000
0000
0000
0000
0000
0000
0000
0000
FFF0
0000
0000
FFF0
0000
0000
0000
0000
0000
0000
0000
0000
0000
0000
ENDCHAR
STARTCHAR SF240000
ENCODING 9553
SWIDTH 500 0
DWIDTH 12 0
BBX 12 24 0 -5
BITMAP
0900
0900
0900
0900
0900
0900
0900
0900
0900
0900
0900
0900
0900
0900
0900
0900
0900
0900
0900
0900
0900
0900
0900
0900
ENDCHAR
STARTCHAR SF510000
ENCODING 9554
SWIDTH 500 0
DWIDTH 12 0
BBX 12 24 0 -5
BITMAP
0000
0000
0000
0000
0000
0000
0000
0000
0000
0000
07F0
0400
0400
07F0
0400
0400
0400
0400
0400
0400
0400
0400
0400
0400
ENDCHAR
STARTCHAR SF520000
ENCODING 9555
SWIDTH 500 0
DWIDTH 12 0
BBX 12 24 0 -5
BITMAP
0000
0000
0000
0000
0000
0000
0000
0000
0000
0000
0000
0FF0
0900
0900
0900
0900
0900
0900
0900
0900
0900
0900
0900
0900
ENDCHAR
STARTCHAR SF390000
ENCODING 9556
SWIDTH 500 0
DWIDTH 12 0
BBX 12 24 0 -5
BITMAP
0000
0000
0000
0000
0000
0000
0000
0000
0000
0000
0FF0
0800
0800
09F0
0900
0900
0900
0900
0900
0900
0900
0900
0900
0900
ENDCHAR
STARTCHAR SF220000
ENCODING 9557
SWIDTH 500 0
DWIDTH 12 0
BBX 12 24 0 -5
BITMAP
0000
0000
0000
0000
0000
0000
0000
0000
0000
0000
FC00
0400
0400
FC00
0400
0400
0400
0400
0400
0400
0400
0400
0400
0400
ENDCHAR
STARTCHAR SF210000
ENCODING 9558
SWIDTH 500 0
DWIDTH 12 0
BBX 12 24 0 -5
BITMAP
0000
0000
0000
0000
0000
0000
0000
0000
0000
0000
0000
FF00
0900
0900
0900
0900
0900
0900
0900
0900
0900
0900
0900
0900
ENDCHAR
STARTCHAR SF250000
ENCODING 9559
SWIDTH 500 0
DWIDTH 12 0
BBX 12 24 0 -5
BITMAP
0000
0000
0000
0000
0000
0000
0000
0000
0000
0000
FF00
0100
0100
F900
0900
0900
0900
0900
0900
0900
0900
0900
0900
0900
ENDCHAR
STARTCHAR SF500000
ENCODING 9560
SWIDTH 500 0
DWIDTH 12 0
BBX 12 24 0 -5
BITMAP
0400
0400
0400
0400
0400
0400
0400
0400
0400
0400
07F0
0400
0400
07F0
0000
0000
0000
0000
0000
0000
0000
0000
0000
0000
ENDCHAR
STARTCHAR SF490000
ENCODING 9561
SWIDTH 500 0
DWIDTH 12 0
BBX 12 24 0 -5
BITMAP
0900
0900
0900
0900
0900
0900
0900
0900
0900
0900
0900
0FF0
0000
0000
0000
0000
0000
0000
0000
0000
0000
0000
0000
0000
ENDCHAR
STARTCHAR SF380000
ENCODING 9562
SWIDTH 500 0
DWIDTH 12 0
BBX 12 24 0 -5
BITMAP
0900
0900
0900
0900
0900
0900
0900
0900
0900
0900
09F0
0800
0800
0FF0
0000
0000
0000
0000
0000
0000
0000
0000
0000
0000
ENDCHAR
STARTCHAR SF280000
ENCODING 9563
SWIDTH 500 0
DWIDTH 12 0
BBX 12 24 0 -5
BITMAP
0400
0400
0400
0400
0400
0400
0400
0400
0400
0400
FC00
0400
0400
FC00
0000
0000
0000
0000
0000
0000
0000
0000
0000
0000
ENDCHAR
STARTCHAR SF270000
ENCODING 9564
SWIDTH 500 0
DWIDTH 12 0
BBX 12 24 0 -5
BITMAP
0900
0900
0900
0900
0900
0900
0900
0900
0900
0900
0900
FF00
0000
0000
0000
0000
0000
0000
0000
0000
0000
0000
0000
0000
ENDCHAR
STARTCHAR SF260000
ENCODING 9565
SWIDTH 500 0
DWIDTH 12 0
BBX 12 24 0 -5
BITMAP
0900
0900
0900
0900
0900
0900
0900
0900
0900
0900
F900
0100
0100
FF00
0000
0000
0000
0000
0000
0000
0000
0000
0000
0000
ENDCHAR
STARTCHAR SF360000
ENCODING 9566
SWIDTH 500 0
DWIDTH 12 0
BBX 12 24 0 -5
BITMAP
0400
0400
0400
0400
0400
0400
0400
0400
0400
0400
07F0
0400
0400
07F0
0400
0400
0400
0400
0400
0400
0400
0400
0400
0400
ENDCHAR
STARTCHAR SF370000
ENCODING 9567
SWIDTH 500 0
DWIDTH 12 0
BBX 12 24 0 -5
BITMAP
0900
0900
0900
0900
0900
0900
0900
0900
0900
0900
0900
09F0
0900
0900
0900
0900
0900
0900
0900
0900
0900
0900
0900
0900
ENDCHAR
STARTCHAR SF420000
ENCODING 9568
SWIDTH 500 0
DWIDTH 12 0
BBX 12 24 0 -5
BITMAP
0900
0900
0900
0900
0900
0900
0900
0900
0900
0900
09F0
0800
0800
09F0
0900
0900
0900
0900
0900
0900
0900
0900
0900
0900
ENDCHAR
STARTCHAR SF190000
ENCODING 9569
SWIDTH 500 0
DWIDTH 12 0
BBX 12 24 0 -5
BITMAP
0400
0400
0400
0400
0400
0400
0400
0400
0400
0400
FC00
0400
0400
FC00
0400
0400
0400
0400
0400
0400
0400
0400
0400
0400
ENDCHAR
STARTCHAR SF200000
ENCODING 9570
SWIDTH 500 0
DWIDTH 12 0
BBX 12 24 0 -5
BITMAP
0900
0900
0900
0900
0900
0900
0900
0900
0900
0900
0900
F900
0900
0900
0900
0900
0900
0900
0900
0900
0900
0900
0900
0900
ENDCHAR
STARTCHAR SF230000
ENCODING 9571
SWIDTH 500 0
DWIDTH 12 0
BBX 12 24 0 -5
BITMAP
0900
0900
0900
0900
0900
0900
0900
0900
0900
0900
F900
0100
0100
F900
0900
0900
0900
0900
0900
0900
0900
0900
0900
0900
ENDCHAR
STARTCHAR SF470000
ENCODING 9572
SWIDTH 500 0
DWIDTH 12 0
BBX 12 24 0 -5
BITMAP
0000
0000
0000
0000
0000
0000
0000
0000
0000
0000
FFF0
0000
0000
FFF0
0400
0400
0400
0400
0400
0400
0400
0400
0400
0400
ENDCHAR
STARTCHAR SF480000
ENCODING 9573
SWIDTH 500 0
DWIDTH 12 0
BBX 12 24 0 -5
BITMAP
0000
0000
0000
0000
0000
0000
0000
0000
0000
0000
0000
FFF0
0900
0900
0900
0900
0900
0900
0900
0900
0900
0900
0900
0900
ENDCHAR
STARTCHAR SF410000
ENCODING 9574
SWIDTH 500 0
DWIDTH 12 0
BBX 12 24 0 -5
BITMAP
0000
0000
0000
0000
0000
0000
0000
0000
0000
0000
FFF0
0000
0000
F9F0
0900
0900
0900
0900
0900
0900
0900
0900
0900
0900
ENDCHAR
STARTCHAR SF450000
ENCODING 9575
SWIDTH 500 0
DWIDTH 12 0
BBX 12 24 0 -5
BITMAP
0400
0400
0400
0400
0400
0400
0400
0400
0400
0400
FFF0
0000
0000
FFF0
0000
0000
0000
0000
0000
0000
0000
0000
0000
0000
ENDCHAR
STARTCHAR SF460000
ENCODING 9576
SWIDTH 500 0
DWIDTH 12 0
BBX 12 24 0 -5
BITMAP
0900
0900
0900
0900
0900
0900
0900
0900
0900
0900
0900
FFF0
0000
0000
0000
0000
0000
0000
0000
0000
0000
0000
0000
0000
ENDCHAR
STARTCHAR SF400000
ENCODING 9577
SWIDTH 500 0
DWIDTH 12 0
BBX 12 24 0 -5
BITMAP
0900
0900
0900
0900
0900
0900
0900
0900
0900
0900
F9F0
0000
0000
FFF0
0000
0000
0000
0000
0000
0000
0000
0000
0000
0000
ENDCHAR
STARTCHAR SF540000
ENCODING 9578
SWIDTH 500 0
DWIDTH 12 0
BBX 12 24 0 -5
BITMAP
0400
0400
0400
0400
0400
0400
0400
0400
0400
0400
FFF0
0000
0000
FFF0
0400
0400
0400
0400
0400
0400
0400
0400
0400
0400
ENDCHAR
STARTCHAR SF530000
ENCODING 9579
SWIDTH 500 0
DWIDTH 12 0
BBX 12 24 0 -5
BITMAP
0900
0900
0900
0900
0900
0900
0900
0900
0900
0900
0900
F9F0
0900
0900
0900
0900
0900
0900
0900
0900
0900
0900
0900
0900
ENDCHAR
STARTCHAR SF440000
ENCODING 9580
SWIDTH 500 0
DWIDTH 12 0
BBX 12 24 0 -5
BITMAP
0900
0900
0900
0900
0900
0900
0900
0900
0900
0900
F9F0
0000
0000
F9F0
0900
0900
0900
0900
0900
0900
0900
0900
0900
0900
ENDCHAR
STARTCHAR upblock
ENCODING 9600
SWIDTH 500 0
DWIDTH 12 0
BBX 12 24 0 -5
BITMAP
FFF0
FFF0
FFF0
FFF0
FFF0
FFF0
FFF0
FFF0
FFF0
FFF0
FFF0
FFF0
0000
0000
0000
0000
0000
0000
0000
0000
0000
0000
0000
0000
ENDCHAR
STARTCHAR dnblock
ENCODING 9604
SWIDTH 500 0
DWIDTH 12 0
BBX 12 24 0 -5
BITMAP
0000
0000
0000
0000
0000
0000
0000
0000
0000
0000
0000
0000
FFF0
FFF0
FFF0
FFF0
FFF0
FFF0
FFF0
FFF0
FFF0
FFF0
FFF0
FFF0
ENDCHAR
STARTCHAR block
ENCODING 9608
SWIDTH 500 0
DWIDTH 12 0
BBX 12 24 0 -5
BITMAP
FFF0
FFF0
FFF0
FFF0
FFF0
FFF0
FFF0
FFF0
FFF0
FFF0
FFF0
FFF0
FFF0
FFF0
FFF0
FFF0
FFF0
FFF0
FFF0
FFF0
FFF0
FFF0
FFF0
FFF0
ENDCHAR
STARTCHAR lfblock
ENCODING 9612
SWIDTH 500 0
DWIDTH 12 0
BBX 12 24 0 -5
BITMAP
FC00
FC00
FC00
FC00
FC00
FC00
FC00
FC00
FC00
FC00
FC00
FC00
FC00
FC00
FC00
FC00
FC00
FC00
FC00
FC00
FC00
FC00
FC00
FC00
ENDCHAR
STARTCHAR rtblock
ENCODING 9616
SWIDTH 500 0
DWIDTH 12 0
BBX 12 24 0 -5
BITMAP
03F0
03F0
03F0
03F0
03F0
03F0
03F0
03F0
03F0
03F0
03F0
03F0
03F0
03F0
03F0
03F0
03F0
03F0
03F0
03F0
03F0
03F0
03F0
03F0
ENDCHAR
STARTCHAR ltshade
ENCODING 9617
SWIDTH 500 0
DWIDTH 12 0
BBX 12 24 0 -5
BITMAP
AAA0
0000
AAA0
0000
AAA0
0000
AAA0
0000
AAA0
0000
AAA0
0000
AAA0
0000
AAA0
0000
AAA0
0000
AAA0
0000
AAA0
0000
AAA0
0000
ENDCHAR
STARTCHAR shade
ENCODING 9618
SWIDTH 500 0
DWIDTH 12 0
BBX 12 24 0 -5
BITMAP
AAA0
5550
AAA0
5550
AAA0
5550
AAA0
5550
AAA0
5550
AAA0
5550
AAA0
5550
AAA0
5550
AAA0
5550
AAA0
5550
AAA0
5550
AAA0
5550
ENDCHAR
STARTCHAR dkshade
ENCODING 9619
SWIDTH 500 0
DWIDTH 12 0
BBX 12 24 0 -5
BITMAP
FFF0
AAA0
FFF0
AAA0
FFF0
AAA0
FFF0
AAA0
FFF0
AAA0
FFF0
AAA0
FFF0
AAA0
FFF0
AAA0
FFF0
AAA0
FFF0
AAA0
FFF0
AAA0
FFF0
AAA0
ENDCHAR
STARTCHAR filledbox
ENCODING 9632
SWIDTH 500 0
DWIDTH 12 0
BBX 12 24 0 -5
BITMAP
0000
0000
0000
0000
0000
0000
0000
3F80
3F80
3F80
3F80
3F80
3F80
3F80
3F80
3F80
3F80
0000
0000
0000
0000
0000
0000
0000
ENDCHAR
STARTCHAR filledrect
ENCODING 9644
SWIDTH 500 0
DWIDTH 12 0
BBX 12 24 0 -5
BITMAP
0000
0000
0000
0000
0000
0000
0000
0000
0000
0000
0000
0000
0000
7FE0
7FE0
7FE0
7FE0
7FE0
7FE0
0000
0000
0000
0000
0000
ENDCHAR
STARTCHAR uni25AE
ENCODING 9646
SWIDTH 500 0
DWIDTH 12 0
BBX 12 24 0 -5
BITMAP
0000
0000
0000
0000
7FC0
7FC0
7FC0
7FC0
7FC0
7FC0
7FC0
7FC0
7FC0
7FC0
7FC0
7FC0
7FC0
7FC0
7FC0
0000
0000
0000
0000
0000
ENDCHAR
STARTCHAR triagup
ENCODING 9650
SWIDTH 500 0
DWIDTH 12 0
BBX 12 24 0 -5
BITMAP
0000
0000
0000
0000
0000
0000
0400
0400
0E00
0E00
1F00
1F00
3F80
3F80
7FC0
7FC0
FFE0
FFE0
0000
0000
0000
0000
0000
0000
ENDCHAR
STARTCHAR uni25B6
ENCODING 9654
SWIDTH 500 0
DWIDTH 12 0
BBX 12 24 0 -5
BITMAP
0000
0000
0000
4000
6000
7000
7800
7C00
7E00
7F00
7F80
7FC0
7F80
7F00
7E00
7C00
7800
7000
6000
4000
0000
0000
0000
0000
ENDCHAR
STARTCHAR triagdn
ENCODING 9660
SWIDTH 500 0
DWIDTH 12 0
BBX 12 24 0 -5
BITMAP
0000
0000
0000
0000
0000
0000
FFE0
FFE0
7FC0
7FC0
3F80
3F80
1F00
1F00
0E00
0E00
0400
0400
0000
0000
0000
0000
0000
0000
ENDCHAR
STARTCHAR uni25C0
ENCODING 9664
SWIDTH 500 0
DWIDTH 12 0
BBX 12 24 0 -5
BITMAP
0000
0000
0000
0040
00C0
01C0
03C0
07C0
0FC0
1FC0
3FC0
7FC0
3FC0
1FC0
0FC0
07C0
03C0
01C0
00C0
0040
0000
0000
0000
0000
ENDCHAR
STARTCHAR blackdiamond
ENCODING 9670
SWIDTH 500 0
DWIDTH 12 0
BBX 12 24 0 -5
BITMAP
0000
0000
0000
0000
0000
0000
0400
0E00
1F00
3F80
7FC0
FFE0
7FC0
3F80
1F00
0E00
0400
0000
0000
0000
0000
0000
0000
0000
ENDCHAR
STARTCHAR lozenge
ENCODING 9674
SWIDTH 500 0
DWIDTH 12 0
BBX 12 24 0 -5
BITMAP
0000
0000
0000
0000
0000
0000
0400
0A00
1100
2080
4040
8020
4040
2080
1100
0A00
0400
0000
0000
0000
0000
0000
0000
0000
ENDCHAR
STARTCHAR circle
ENCODING 9675
SWIDTH 500 0
DWIDTH 12 0
BBX 12 24 0 -5
BITMAP
0000
0000
0000
0000
0000
0000
0000
0000
0000
0F00
1080
1080
1080
1080
0F00
0000
0000
0000
0000
0000
0000
0000
0000
0000
ENDCHAR
STARTCHAR invbullet
ENCODING 9688
SWIDTH 500 0
DWIDTH 12 0
BBX 12 24 0 -5
BITMAP
FFF0
FFF0
FFF0
FFF0
FFF0
FFF0
FFF0
FFF0
FFF0
F0F0
E070
E070
E070
E070
F0F0
FFF0
FFF0
FFF0
FFF0
FFF0
FFF0
FFF0
FFF0
FFF0
ENDCHAR
STARTCHAR invcircle
ENCODING 9689
SWIDTH 500 0
DWIDTH 12 0
BBX 12 24 0 -5
BITMAP
FFF0
FFF0
FFF0
FFF0
FFF0
FFF0
FFF0
FFF0
FFF0
F0F0
EF70
EF70
EF70
EF70
F0F0
FFF0
FFF0
FFF0
FFF0
FFF0
FFF0
FFF0
FFF0
FFF0
ENDCHAR
STARTCHAR smileface
ENCODING 9786
SWIDTH 500 0
DWIDTH 12 0
BBX 12 24 0 -5
BITMAP
0000
0000
0000
0000
3F80
4040
8020
8020
9B20
9B20
8020
8020
8020
9F20
8E20
8020
8020
4040
3F80
0000
0000
0000
0000
0000
ENDCHAR
STARTCHAR invsmileface
ENCODING 9787
SWIDTH 500 0
DWIDTH 12 0
BBX 12 24 0 -5
BITMAP
0000
0000
0000
0000
3F80
7FC0
FFE0
FFE0
E4E0
E4E0
FFE0
FFE0
FFE0
E0E0
F1E0
FFE0
FFE0
7FC0
3F80
0000
0000
0000
0000
0000
ENDCHAR
STARTCHAR sun
ENCODING 9788
SWIDTH 500 0
DWIDTH 12 0
BBX 12 24 0 -5
BITMAP
0000
0000
0000
0000
0400
0400
0400
C460
2480
1500
0E00
FBE0
0E00
1500
2480
C460
0400
0400
0400
0000
0000
0000
0000
0000
ENDCHAR
STARTCHAR female
ENCODING 9792
SWIDTH 500 0
DWIDTH 12 0
BBX 12 24 0 -5
BITMAP
0000
0000
0000
0000
1F00
2080
4040
4040
4040
4040
4040
2080
1F00
0400
0400
7FC0
0400
0400
0400
0000
0000
0000
0000
0000
ENDCHAR
STARTCHAR male
ENCODING 9794
SWIDTH 500 0
DWIDTH 12 0
BBX 12 24 0 -5
BITMAP
0000
0000
0000
0000
07C0
00C0
0140
0240
0440
0800
1F00
2080
4040
4040
4040
4040
4040
2080
1F00
0000
0000
0000
0000
0000
ENDCHAR
STARTCHAR spade
ENCODING 9824
SWIDTH 500 0
DWIDTH 12 0
BBX 12 24 0 -5
BITMAP
0000
0000
0000
0000
0400
0400
0E00
1F00
3F80
7FC0
7FC0
7FC0
7FC0
7FC0
3580
0400
0400
0400
1F00
0000
0000
0000
0000
0000
ENDCHAR
STARTCHAR club
ENCODING 9827
SWIDTH 500 0
DWIDTH 12 0
BBX 12 24 0 -5
BITMAP
0000
0000
0000
0000
0E00
1F00
1F00
0E00
0400
0400
75C0
FFE0
FFE0
FFE0
75C0
0400
0400
0400
1F00
0000
0000
0000
0000
0000
ENDCHAR
STARTCHAR heart
ENCODING 9829
SWIDTH 500 0
DWIDTH 12 0
BBX 12 24 0 -5
BITMAP
0000
0000
0000
0000
0000
0000
3180
7BC0
FFE0
FFE0
FFE0
FFE0
FFE0
7FC0
3F80
1F00
0E00
0400
0000
0000
0000
0000
0000
0000
ENDCHAR
STARTCHAR diamond
ENCODING 9830
SWIDTH 500 0
DWIDTH 12 0
BBX 12 24 0 -5
BITMAP
0000
0000
0000
0000
0000
0000
0400
0E00
1F00
3F80
7FC0
FFE0
7FC0
3F80
1F00
0E00
0400
0000
0000
0000
0000
0000
0000
0000
ENDCHAR
STARTCHAR musicalnote
ENCODING 9834
SWIDTH 500 0
DWIDTH 12 0
BBX 12 24 0 -5
BITMAP
0000
0000
0000
0000
1FE0
1020
1020
1020
1FE0
1000
1000
1000
1000
1000
1000
1000
1000
1000
E000
0000
0000
0000
0000
0000
ENDCHAR
STARTCHAR musicalnotedbl
ENCODING 9835
SWIDTH 500 0
DWIDTH 12 0
BBX 12 24 0 -5
BITMAP
0000
0000
0000
0000
7FC0
4040
4040
4040
7FC0
4040
4040
4040
4040
4040
4040
4040
4040
4080
8000
0000
0000
0000
0000
0000
ENDCHAR
STARTCHAR dotlessj
ENCODING 63166
SWIDTH 500 0
DWIDTH 12 0
BBX 12 24 0 -5
BITMAP
0000
0000
0000
0000
0000
0000
0000
0000
0380
0080
0080
0080
0080
0080
0080
0080
0080
0080
0080
2080
2080
1100
0E00
0000
ENDCHAR
STARTCHAR uniFFFD
ENCODING 65533
SWIDTH 500 0
DWIDTH 12 0
BBX 12 24 0 -5
BITMAP
0000
0000
0000
0000
7FC0
4040
4040
4040
4040
4040
4040
4040
4040
4040
4040
4040
4040
4040
7FC0
0000
0000
0000
0000
0000
ENDCHAR
ENDFONT
